<svg width="66" height="65" viewBox="0 0 66 65" fill="none" xmlns="http://www.w3.org/2000/svg">
<mask id="mask0_276_11048" style="mask-type:luminance" maskUnits="userSpaceOnUse" x="-96" y="-124" width="260" height="344">
<path d="M-95.2918 -87.9621L109.867 -123.864L163.72 183.874L-41.439 219.776L-95.2918 -87.9621Z" fill="white"/>
</mask>
<g mask="url(#mask0_276_11048)">
<mask id="mask1_276_11048" style="mask-type:luminance" maskUnits="userSpaceOnUse" x="-198" y="-142" width="465" height="380">
<path d="M-197.871 -70.0125L212.446 -141.816L266.299 165.922L-144.019 237.726L-197.871 -70.0125Z" fill="white"/>
</mask>
<g mask="url(#mask1_276_11048)">
<mask id="mask2_276_11048" style="mask-type:luminance" maskUnits="userSpaceOnUse" x="-53" y="-49" width="168" height="164">
<path d="M-52.2425 -15.5261L83.854 -48.1919L114.964 81.4239L-21.1322 114.09L-52.2425 -15.5261Z" fill="white"/>
</mask>
<g mask="url(#mask2_276_11048)">
<path d="M20.7933 4.96185L34.5742 62.3776L33.4816 62.6398L19.7007 5.2241L20.7933 4.96185Z" fill="black"/>
<path d="M20.7933 4.96185L34.5742 62.3776L33.4816 62.6398L19.7007 5.2241L20.7933 4.96185Z" stroke="black" stroke-width="4.26273" stroke-linecap="round" stroke-linejoin="round"/>
<path d="M24.102 4.21296C39.5865 0.49637 55.237 10.3861 59.057 26.3015C62.877 42.2169 53.4204 58.1328 37.9358 61.8494C22.4513 65.566 6.80079 55.6763 2.98079 39.7609C-0.839208 23.8455 8.61741 7.92954 24.102 4.21296Z" fill="black"/>
<path d="M24.102 4.21296C39.5865 0.49637 55.237 10.3861 59.057 26.3015C62.877 42.2169 53.4204 58.1328 37.9358 61.8494C22.4513 65.566 6.80079 55.6763 2.98079 39.7609C-0.839208 23.8455 8.61741 7.92954 24.102 4.21296Z" stroke="black" stroke-width="4.26273" stroke-linecap="round" stroke-linejoin="round"/>
<path d="M25.1952 3.95089C40.6798 0.234302 56.3302 10.1241 60.1502 26.0394C63.9702 41.9548 54.5136 57.8708 39.0291 61.5874C23.5445 65.3039 7.89404 55.4142 4.07404 39.4988C0.254041 23.5834 9.71066 7.66747 25.1952 3.95089Z" fill="#3DA647"/>
<path d="M25.1952 3.95089C40.6798 0.234302 56.3302 10.1241 60.1502 26.0394C63.9702 41.9548 54.5136 57.8708 39.0291 61.5873C23.5445 65.3039 7.89404 55.4142 4.07404 39.4988C0.254041 23.5834 9.71066 7.66747 25.1952 3.95089Z" stroke="black" stroke-width="4.26273" stroke-linecap="round" stroke-linejoin="round"/>
<path d="M17.9422 25.4186C18.7895 25.2153 19.815 26.462 20.2328 28.2027C20.6506 29.9434 20.3027 31.5198 19.4555 31.7232C18.6082 31.9266 17.5837 30.6796 17.1659 28.9389C16.7481 27.1982 17.0949 25.622 17.9422 25.4186Z" fill="black"/>
<path d="M17.9422 25.4186C18.7895 25.2153 19.815 26.462 20.2328 28.2027C20.6506 29.9434 20.3027 31.5198 19.4555 31.7232C18.6082 31.9266 17.5837 30.6796 17.1659 28.9389C16.7481 27.1982 17.0949 25.622 17.9422 25.4186Z" stroke="black" stroke-width="5.00871" stroke-linecap="round" stroke-linejoin="round"/>
<path d="M45.9043 20.4088C41.319 16.7468 36.4934 19.8103 34.0698 25.1545" stroke="black" stroke-width="4.62762" stroke-linecap="round" stroke-linejoin="round"/>
<path d="M47.3939 34.3381C42.0908 50.8497 27.4238 51.5127 21.5296 46.2607" stroke="black" stroke-width="4.61483" stroke-linecap="round" stroke-linejoin="round"/>
</g>
<mask id="mask3_276_11048" style="mask-type:luminance" maskUnits="userSpaceOnUse" x="-45" y="-49" width="161" height="162">
<path d="M-44.7501 -17.4662L84.8656 -48.5764L115.976 81.0393L-13.6399 112.15L-44.7501 -17.4662Z" fill="white"/>
</mask>
<g mask="url(#mask3_276_11048)">
<path d="M25.2199 3.75788L39.0008 61.1736L37.9602 61.4234L24.1793 4.00764L25.2199 3.75788Z" fill="black"/>
<path d="M25.2199 3.75788L39.0008 61.1736L37.9602 61.4234L24.1793 4.00764L25.2199 3.75788Z" stroke="black" stroke-width="4.16" stroke-linecap="round" stroke-linejoin="round"/>
<path d="M28.3719 3.04707C43.1191 -0.492539 58.1718 9.54069 61.9918 25.4561C65.8118 41.3715 56.953 57.1439 42.2058 60.6835C27.4586 64.2231 12.4059 54.1899 8.58589 38.2745C4.76589 22.3591 13.6247 6.58667 28.3719 3.04707Z" fill="black"/>
<path d="M28.3719 3.04707C43.1191 -0.49254 58.1718 9.54069 61.9918 25.4561C65.8118 41.3715 56.953 57.1439 42.2058 60.6835C27.4586 64.2231 12.4059 54.1899 8.58589 38.2745C4.76589 22.3591 13.6247 6.58667 28.3719 3.04707Z" stroke="black" stroke-width="4.16" stroke-linecap="round" stroke-linejoin="round"/>
<path d="M29.4124 2.79673C44.1596 -0.742873 59.2122 9.29036 63.0322 25.2057C66.8522 41.1211 57.9934 56.8936 43.2462 60.4332C28.499 63.9728 13.4463 53.9396 9.62633 38.0242C5.80634 22.1088 14.6652 6.33634 29.4124 2.79673Z" fill="#3DA647"/>
<path d="M29.4124 2.79673C44.1596 -0.742873 59.2122 9.29036 63.0322 25.2057C66.8522 41.1211 57.9934 56.8936 43.2462 60.4332C28.499 63.9728 13.4463 53.9396 9.62633 38.0242C5.80634 22.1088 14.6652 6.33634 29.4124 2.79673Z" stroke="black" stroke-width="4.16" stroke-linecap="round" stroke-linejoin="round"/>
<path d="M22.7194 24.1297C23.5264 23.936 24.5192 25.1907 24.937 26.9314C25.3548 28.6721 25.0396 30.2406 24.2326 30.4343C23.4257 30.628 22.4338 29.3731 22.016 27.6324C21.5982 25.8917 21.9125 24.3234 22.7194 24.1297Z" fill="black"/>
<path d="M22.7194 24.1297C23.5264 23.936 24.5192 25.1907 24.937 26.9314C25.3548 28.6721 25.0396 30.2406 24.2326 30.4343C23.4257 30.628 22.4338 29.3731 22.016 27.6324C21.5982 25.8917 21.9125 24.3234 22.7194 24.1297Z" stroke="black" stroke-width="4.888" stroke-linecap="round" stroke-linejoin="round"/>
<path d="M49.3665 19.4381C44.9482 15.7361 40.3729 18.7395 38.1162 24.0437" stroke="black" stroke-width="4.51609" stroke-linecap="round" stroke-linejoin="round"/>
<path d="M50.939 33.3461C46.0531 49.7575 32.0536 50.2603 26.368 44.9582" stroke="black" stroke-width="4.50361" stroke-linecap="round" stroke-linejoin="round"/>
</g>
</g>
</g>
</svg>
