<svg width="14" height="14" viewBox="0 0 14 14" fill="none" xmlns="http://www.w3.org/2000/svg">
<g clip-path="url(#clip0_276_11941)">
<path d="M2.43541 5.39711C2.53865 4.53385 3.32216 3.91773 4.18542 4.02097L10.4377 4.76872C11.301 4.87196 11.9171 5.65546 11.8138 6.51873L11.3153 10.6869C11.2121 11.5502 10.4286 12.1663 9.56534 12.0631L3.31305 11.3153C2.44979 11.2121 1.83367 10.4286 1.93691 9.5653L2.43541 5.39711Z" fill="#228821"/>
<path fill-rule="evenodd" clip-rule="evenodd" d="M6.39439 3.22802C6.10663 3.19361 5.84547 3.39898 5.81105 3.68674L5.74874 4.20776L4.70669 4.08313L4.769 3.56211C4.87225 2.69885 5.65575 2.08273 6.51901 2.18598L8.60311 2.43522C9.46637 2.53847 10.0825 3.32197 9.97924 4.18523L9.91693 4.70626L8.87488 4.58163L8.93719 4.06061C8.97161 3.77285 8.76624 3.51169 8.47848 3.47727L6.39439 3.22802Z" fill="#82EE8F"/>
<path fill-rule="evenodd" clip-rule="evenodd" d="M7.06237 6.47902C6.77462 6.4446 6.51345 6.64998 6.47903 6.93773L6.41672 7.45875L5.8957 7.39644C5.60794 7.36203 5.34678 7.5674 5.31236 7.85515C5.27795 8.14291 5.48332 8.40408 5.77107 8.43849L6.2921 8.5008L6.22978 9.02183C6.19537 9.30958 6.40074 9.57075 6.6885 9.60516C6.97625 9.63958 7.23742 9.4342 7.27183 9.14645L7.33414 8.62543L7.85517 8.68774C8.14292 8.72215 8.40409 8.51678 8.4385 8.22903C8.47292 7.94127 8.26755 7.6801 7.97979 7.64569L7.45877 7.58338L7.52108 7.06235C7.5555 6.7746 7.35012 6.51343 7.06237 6.47902Z" fill="#82EE8F"/>
</g>
<defs>
<clipPath id="clip0_276_11941">
<rect width="11.883" height="11.883" fill="white" transform="translate(1.49553) scale(1.05981) rotate(6.81992)"/>
</clipPath>
</defs>
</svg>
