<svg width="10" height="10" viewBox="0 0 10 10" fill="none" xmlns="http://www.w3.org/2000/svg">
<path d="M7.91818 2.4995H2.08492V7.91609C2.08492 8.60644 2.64456 9.16608 3.33491 9.16608H6.6682C7.35854 9.16608 7.91818 8.60644 7.91818 7.91609V2.4995Z" fill="#667085"/>
<path fill-rule="evenodd" clip-rule="evenodd" d="M4.99998 5C4.76987 5 4.58332 5.18655 4.58332 5.41666V5.83332H4.16666C3.93655 5.83332 3.75 6.01987 3.75 6.24998C3.75 6.4801 3.93655 6.66664 4.16666 6.66664H4.58332V7.08331C4.58332 7.31342 4.76987 7.49997 4.99998 7.49997C5.2301 7.49997 5.41664 7.31342 5.41664 7.08331V6.66664H5.83331C6.06342 6.66664 6.24997 6.4801 6.24997 6.24998C6.24997 6.01987 6.06342 5.83332 5.83331 5.83332L5.41664 5.83332V5.41666C5.41664 5.18655 5.2301 5 4.99998 5Z" fill="#C6C6C6"/>
<path fill-rule="evenodd" clip-rule="evenodd" d="M1.66508 1.6685C1.66508 1.20827 2.03817 0.835176 2.4984 0.835176H7.49833C7.95856 0.835176 8.33165 1.20827 8.33165 1.6685V2.50182C8.33165 2.96205 7.95856 3.33514 7.49833 3.33514H6.45668C6.34162 3.33514 6.24835 3.24187 6.24835 3.12681V2.91848C6.24835 2.68837 6.0618 2.50182 5.83169 2.50182C5.60157 2.50182 5.41503 2.68837 5.41503 2.91848V3.12681C5.41503 3.24187 5.32175 3.33514 5.20669 3.33514H4.79003C4.67498 3.33514 4.5817 3.24187 4.5817 3.12681V2.91848C4.5817 2.68837 4.39516 2.50182 4.16504 2.50182C3.93493 2.50182 3.74838 2.68837 3.74838 2.91848V3.12681C3.74838 3.24187 3.65511 3.33514 3.54005 3.33514H2.4984C2.03817 3.33514 1.66508 2.96205 1.66508 2.50182V1.6685Z" fill="#C6C6C6"/>
</svg>
