<svg width="15" height="15" viewBox="0 0 15 15" fill="none" xmlns="http://www.w3.org/2000/svg">
<path d="M1.87497 5.87093C1.87497 4.4708 1.87497 3.77073 2.14745 3.23595C2.38714 2.76555 2.76959 2.3831 3.23999 2.14341C3.77477 1.87093 4.47484 1.87093 5.87497 1.87093H9.12498C10.5251 1.87093 11.2252 1.87093 11.76 2.14341C12.2304 2.3831 12.6128 2.76555 12.8525 3.23595C13.125 3.77073 13.125 4.4708 13.125 5.87093V9.12094C13.125 10.5211 13.125 11.2211 12.8525 11.7559C12.6128 12.2263 12.2304 12.6088 11.76 12.8485C11.2252 13.1209 10.5251 13.1209 9.12498 13.1209H5.87497C4.47484 13.1209 3.77477 13.1209 3.23999 12.8485C2.76959 12.6088 2.38714 12.2263 2.14745 11.7559C1.87497 11.2211 1.87497 10.5211 1.87497 9.12093V5.87093Z" fill="#228821"/>
<path fill-rule="evenodd" clip-rule="evenodd" d="M9.37498 4.68338C9.12496 4.68338 8.899 4.83238 8.80051 5.06218L7.49997 8.09676L7.13694 7.24968C7.03845 7.01988 6.81249 6.87088 6.56247 6.87088H1.87497V8.12088H6.15035L6.92551 9.92959C7.02399 10.1594 7.24996 10.3084 7.49997 10.3084C7.74999 10.3084 7.97595 10.1594 8.07444 9.92959L9.37498 6.895L9.73801 7.74208C9.8365 7.97189 10.0625 8.12088 10.3125 8.12088H13.125V6.87088H10.7246L9.94944 5.06218C9.85096 4.83238 9.62499 4.68338 9.37498 4.68338Z" fill="#82EE8F"/>
</svg>
