<svg width="40" height="63" viewBox="0 0 40 63" fill="none" xmlns="http://www.w3.org/2000/svg">
<path d="M28.0866 0C29.1403 1.12353 29.8805 2.23444 29.0149 3.82505C28.7891 4.22901 28.8393 4.77184 28.7515 5.33991C26.4684 5.66814 24.3609 6.32457 22.818 8.16766C25.8788 8.97559 28.927 9.7709 31.9753 10.5788C32.2387 11.4246 30.3069 11.7276 31.6868 12.6618C30.8714 13.2298 30.2442 13.5076 29.4916 12.9395C28.8643 12.4724 28.2873 12.5608 27.6978 13.1162C27.4343 13.3687 26.9325 13.5076 26.5562 13.4823C25.0007 13.3813 23.4327 14.2145 21.8897 13.3687C21.7643 13.3056 21.5636 13.3435 21.4005 13.3813C19.6819 13.6969 18.3146 13.0279 17.1856 11.7402C16.6462 11.9296 16.1821 12.0811 15.718 12.2452C15.1033 12.0053 15.718 11.4625 15.4545 11.1343C15.3918 11.0838 15.3417 10.9954 15.2789 10.9702C14.3632 10.6041 13.2091 10.6167 12.6822 9.61941C11.9547 8.21816 11.1895 6.79166 11.4153 5.20105C11.6034 4.97382 11.6787 4.77184 11.8041 4.72134C14.3506 3.92603 16.8595 2.96662 19.4687 2.41117C21.0367 2.07032 22.5295 1.65373 23.9846 1.02254C25.2892 0.467089 26.6189 0.0252478 28.0866 0Z" fill="white"/>
<path d="M27.2583 22.2681C27.0576 23.3033 26.3802 23.4295 25.7279 23.5431C24.8247 23.6946 23.9215 23.8083 23.0309 23.9345C22.2531 24.0481 22.0524 23.9092 21.5883 22.9624C21.513 22.811 21.4628 22.6595 21.3876 22.5206C21.3499 22.4575 21.2496 22.4449 21.0614 22.3439C20.0077 22.7352 18.8913 23.4927 17.5867 22.9877C16.0814 23.5936 14.2499 23.4295 13.0456 24.9823C13.2589 26.0301 13.5223 27.0778 13.6979 28.1509C13.8736 29.1986 13.6478 30.3096 14.2499 31.3195C14.3628 31.4962 14.0241 32.0895 13.7607 32.3294C13.3592 32.6828 12.6693 32.5692 12.4184 32.1905C12.1801 31.8497 11.9794 31.4836 11.7912 31.1049C11.603 30.7388 11.5528 30.2464 11.2769 29.9687C9.73392 28.4033 9.34506 26.2952 8.52968 24.3763C7.99028 23.1013 8.09067 21.7506 8.00286 20.425C7.96523 19.857 8.30391 19.4656 8.74296 19.2132C9.6336 18.6956 10.587 18.4683 11.6156 18.481C14.9524 18.5315 18.2766 18.7461 21.5381 19.554C22.1779 19.7181 22.7925 19.9958 23.3821 20.2862C24.5111 20.8164 25.615 21.3845 26.7314 21.9399C26.9447 22.0409 27.1329 22.1924 27.2583 22.2681Z" fill="white"/>
<path d="M31.1495 55.632C32.6866 55.9739 34.2884 54.9807 35.955 54.2642C36.5051 54.0363 37.0713 53.5315 37.3464 52.9942C38.2524 51.2845 39.0614 49.5097 39.8542 47.7512C40.016 47.3767 39.9676 46.9045 39.9999 46.4811C40.0161 46.3672 37.6538 41.0591 37.5891 40.9614C37.1684 40.3589 36.6992 39.7728 36.3756 39.1215C35.5666 37.5583 34.4179 36.272 33.1073 35.1648C32.0071 34.2367 30.5671 33.9436 29.1594 34.0087C25.0821 34.2041 20.034 35.9626 18.3027 42.036C17.0083 46.5626 19.8398 52.1149 23.1081 53.3687C25.5836 54.3619 27.9135 55.8274 31.1495 55.632ZM32.4601 48.9398C29.6933 48.9561 27.7355 48.0117 25.7131 47.3116C23.8686 46.6928 23.0596 45.2111 22.6875 43.4363C22.283 41.5313 23.3993 40.0495 25.2924 39.7239C27.8973 39.268 30.0816 40.6032 32.4115 41.3196C32.5895 41.3685 32.7513 41.5801 32.8646 41.7429C33.5441 42.7036 34.2399 43.6643 34.8709 44.6575C36.0682 46.5463 35.3401 48.3373 33.172 48.8421C32.7675 48.9561 32.3307 48.9398 32.4601 48.9398Z" fill="white"/>
<path d="M8.80518 48.5177C8.41686 48.4689 7.67257 48.3712 6.9283 48.2572C4.45278 47.8664 2.52744 48.8434 0.925636 50.6671C0.0681038 51.644 -0.239313 52.7838 0.197543 53.9887C0.715298 55.4053 1.2654 56.8381 2.04203 58.1081C3.49822 60.4854 5.9899 61.4461 8.49777 62.0323C9.97014 62.3742 11.5396 61.8857 12.4618 60.4366C13.9018 58.2222 14.905 55.8611 14.7594 53.142C14.5976 50.0971 12.8663 48.4364 9.79216 48.3875C9.598 48.4038 9.38765 48.4526 8.80518 48.5177ZM8.74047 53.7119C8.93463 53.7933 9.12879 53.8747 9.30677 53.9724C9.38767 54.0212 9.43624 54.1189 9.50096 54.2003C9.35534 54.2166 9.12879 54.2981 9.06407 54.2329C8.93463 54.0864 8.88612 53.8747 8.77286 53.6956C8.56252 53.6956 8.36832 53.6956 8.15798 53.7119C8.35214 53.7119 8.54631 53.7119 8.74047 53.7119Z" fill="white"/>
</svg>
