<svg width="33" height="13" viewBox="0 0 33 13" fill="none" xmlns="http://www.w3.org/2000/svg">
<path d="M9.97336 9.93299C11.616 9.93299 12.5918 8.6484 12.5918 6.47311C12.5918 5.65401 12.4351 4.96472 12.1352 4.43209C11.7011 3.60404 10.9536 3.15645 10.0092 3.15645C8.60373 3.15645 7.61007 4.10087 7.61007 5.42574C7.61007 6.67005 8.50526 7.57418 9.73614 7.57418C10.4926 7.57418 11.1058 7.22059 11.4101 6.60739H11.4236C11.4236 6.60739 11.4415 6.60739 11.4459 6.60739C11.4549 6.60739 11.4862 6.60739 11.4862 6.60739C11.4862 8.08444 10.9267 8.96619 9.98231 8.96619C9.4273 8.96619 8.99761 8.66183 8.8499 8.17396H7.69959C7.89206 9.23475 8.79172 9.93299 9.97336 9.93299ZM10.0136 6.65662C9.27064 6.65662 8.74248 6.12846 8.74248 5.38993C8.74248 4.66931 9.2975 4.11877 10.0181 4.11877C10.7387 4.11877 11.2938 4.67826 11.2938 5.40784C11.2938 6.12846 10.7522 6.65662 10.0136 6.65662Z" fill="#2C312E"/>
<path d="M14.4808 9.87033C14.906 9.87033 15.1969 9.56597 15.1969 9.16313C15.1969 8.75583 14.906 8.45594 14.4808 8.45594C14.0601 8.45594 13.7646 8.75583 13.7646 9.16313C13.7646 9.56597 14.0601 9.87033 14.4808 9.87033ZM14.4808 6.51339C14.906 6.51339 15.1969 6.2135 15.1969 5.81067C15.1969 5.40336 14.906 5.10348 14.4808 5.10348C14.0601 5.10348 13.7646 5.40336 13.7646 5.81067C13.7646 6.2135 14.0601 6.51339 14.4808 6.51339Z" fill="#2C312E"/>
<path d="M19.3866 9.77634H20.4921V8.57231H21.3649V7.59656H20.4921V3.31758H18.8629C17.7215 5.03634 16.8129 6.47311 16.2311 7.54285V8.57231H19.3866V9.77634ZM17.3008 7.55628C18.0528 6.23141 18.7241 5.17061 19.3418 4.25753H19.4045V7.62342H17.3008V7.55628Z" fill="#2C312E"/>
<path d="M23.8269 9.77634H24.9816V3.31758H23.8313L22.1439 4.49923V5.60926L23.7508 4.48132H23.8269V9.77634Z" fill="#2C312E"/>
</svg>
