<svg width="28" height="27" viewBox="0 0 28 27" fill="none" xmlns="http://www.w3.org/2000/svg">
<mask id="mask0_276_10871" style="mask-type:luminance" maskUnits="userSpaceOnUse" x="-72" y="-52" width="174" height="142">
<path d="M-71.2192 -24.5181L81.0373 -51.1623L101.02 63.0299L-51.236 89.6741L-71.2192 -24.5181Z" fill="white"/>
</mask>
<g mask="url(#mask0_276_10871)">
<mask id="mask1_276_10871" style="mask-type:luminance" maskUnits="userSpaceOnUse" x="-18" y="-17" width="63" height="61">
<path d="M-17.1792 -4.30176L33.3221 -16.423L44.8661 31.6734L-5.63517 43.7946L-17.1792 -4.30176Z" fill="white"/>
</mask>
<g mask="url(#mask1_276_10871)">
<path d="M10.2573 1.82957L16.0294 25.8778L15.0413 26.1149L9.26925 2.06673L10.2573 1.82957Z" fill="black"/>
<path d="M10.2573 1.82957L16.0294 25.8778L15.0413 26.1149L9.26925 2.06673L10.2573 1.82957Z" stroke="black" stroke-width="1.54275" stroke-linecap="round" stroke-linejoin="round"/>
<path d="M24.8892 9.44256C26.1969 14.891 23.6474 19.4769 17.7506 22.2832L15.0208 26.1176L12.9187 23.4429C6.3906 23.6189 2.20211 19.8554 1.07476 15.1585C-0.232968 9.71005 3.03627 3.56047 10.2841 1.82085C17.532 0.0812196 23.5815 3.99414 24.8892 9.44256Z" fill="black"/>
<path d="M24.8892 9.44256C26.1969 14.891 23.6474 19.4769 17.7506 22.2832L15.0208 26.1176L12.9187 23.4429C6.3906 23.6189 2.20211 19.8554 1.07476 15.1585C-0.232968 9.71005 3.03627 3.56047 10.2841 1.82085C17.532 0.0812194 23.5815 3.99414 24.8892 9.44256Z" stroke="black" stroke-width="1.54275" stroke-linecap="round" stroke-linejoin="round"/>
<path d="M25.8758 9.20194C27.1835 14.6504 24.634 19.2363 18.7372 22.0425L16.0073 25.8769L13.9053 23.2023C7.37715 23.3782 3.18866 19.6148 2.06131 14.9178C0.753587 9.46943 4.02283 3.31985 11.2707 1.58022C18.5186 -0.159403 24.568 3.75351 25.8758 9.20194Z" fill="#FF834F"/>
<path d="M25.8758 9.20194C27.1835 14.6504 24.634 19.2363 18.7372 22.0425L16.0073 25.8769L13.9053 23.2023C7.37715 23.3782 3.18866 19.6148 2.06131 14.9178C0.753587 9.46943 4.02283 3.31985 11.2707 1.58022C18.5186 -0.159404 24.568 3.75351 25.8758 9.20194Z" stroke="black" stroke-width="1.54275" stroke-linecap="round" stroke-linejoin="round"/>
<path d="M10.1363 13.382C10.432 14.6141 10.0181 15.2467 8.95837 15.5011C7.89863 15.7554 7.21946 15.283 6.94691 14.1475C6.67436 13.012 7.14749 12.0062 8.1249 12.0286C9.1023 12.0509 9.84059 12.1499 10.1363 13.382Z" fill="black"/>
<path d="M15.8393 12.0079C16.0018 13.1611 15.3492 14.0827 14.5252 14.3717C13.7012 14.6607 12.6298 13.7383 12.2813 12.8619C11.9328 11.9854 12.4537 10.9279 13.5954 10.4981C14.7372 10.0682 15.6768 10.8547 15.8393 12.0079Z" fill="black"/>
<path d="M21.4278 10.6662C21.3915 11.7978 21.2779 12.6071 20.0665 13.1149C19.0992 13.5203 18.008 12.6589 17.7421 11.5508C17.4761 10.4427 17.9673 9.44283 19.1034 9.10218C20.1004 8.80327 21.4663 9.46475 21.4278 10.6662Z" fill="black"/>
</g>
<mask id="mask2_276_10871" style="mask-type:luminance" maskUnits="userSpaceOnUse" x="-15" y="-17" width="61" height="61">
<path d="M-14.402 -5.01962L33.6944 -16.5637L45.2385 31.5327L-2.85798 43.0768L-14.402 -5.01962Z" fill="white"/>
</mask>
<g mask="url(#mask2_276_10871)">
<path d="M11.8686 1.3917L17.6406 25.4399L16.6996 25.6658L10.9275 1.61756L11.8686 1.3917Z" fill="black"/>
<path d="M11.8686 1.3917L17.6406 25.4399L16.6996 25.6658L10.9275 1.61756L11.8686 1.3917Z" stroke="black" stroke-width="1.50557" stroke-linecap="round" stroke-linejoin="round"/>
<path d="M25.9208 9.13725C27.2285 14.5857 24.8434 19.1321 19.2424 21.8674L16.6769 25.6624L14.6406 22.9719C8.40829 23.0769 4.36772 19.2779 3.24037 14.581C1.93264 9.13256 4.98822 3.03426 11.891 1.37747C18.7937 -0.279316 24.6131 3.68883 25.9208 9.13725Z" fill="black"/>
<path d="M25.9208 9.13725C27.2285 14.5857 24.8434 19.1321 19.2424 21.8674L16.6769 25.6624L14.6406 22.9719C8.40829 23.0769 4.36772 19.2779 3.24037 14.581C1.93264 9.13256 4.98822 3.03426 11.891 1.37747C18.7937 -0.279316 24.6131 3.68883 25.9208 9.13725Z" stroke="black" stroke-width="1.50557" stroke-linecap="round" stroke-linejoin="round"/>
<path d="M26.8773 8.91267C28.185 14.3611 25.7999 18.9076 20.1989 21.6428L17.6334 25.4378L15.5971 22.7473C9.36477 22.8523 5.32419 19.0533 4.19684 14.3564C2.88912 8.90797 5.9447 2.80968 12.8474 1.15289C19.7502 -0.503898 25.5695 3.46425 26.8773 8.91267Z" fill="#FF834F"/>
<path d="M26.8773 8.91267C28.185 14.3611 25.7999 18.9076 20.1989 21.6428L17.6334 25.4378L15.5971 22.7473C9.36477 22.8523 5.32419 19.0533 4.19684 14.3564C2.88912 8.90797 5.9447 2.80968 12.8474 1.15289C19.7502 -0.503898 25.5695 3.46425 26.8773 8.91267Z" stroke="black" stroke-width="1.50557" stroke-linecap="round" stroke-linejoin="round"/>
<path d="M11.8874 12.9091C12.1831 14.1412 11.7946 14.7677 10.7854 15.01C9.77608 15.2522 9.12238 14.7737 8.84984 13.6382C8.57729 12.5026 9.01825 11.5046 9.95189 11.5375C10.8855 11.5703 11.5916 11.677 11.8874 12.9091Z" fill="black"/>
<path d="M17.3154 11.6036C17.4831 12.7555 16.8698 13.6677 16.086 13.9471C15.3022 14.2264 14.2691 13.2949 13.9268 12.4169C13.5845 11.5389 14.0706 10.4898 15.1563 10.0734C16.2419 9.65705 17.1477 10.4516 17.3154 11.6036Z" fill="black"/>
<path d="M22.6399 10.3273C22.6174 11.4556 22.5177 12.2616 21.3663 12.7549C20.447 13.1489 19.3956 12.2779 19.1297 11.1699C18.8637 10.0618 19.3219 9.06974 20.4032 8.74226C21.3521 8.45489 22.6637 9.12943 22.6399 10.3273Z" fill="black"/>
</g>
</g>
</svg>
