<svg width="41" height="7" viewBox="0 0 41 7" fill="none" xmlns="http://www.w3.org/2000/svg">
<path opacity="0.35" d="M27.6783 0.307583H37.9294C38.6651 0.307713 39.2614 0.904044 39.2616 1.63978V5.33078C39.2613 6.06643 38.6651 6.66285 37.9294 6.66298H27.6783C26.9426 6.66281 26.3463 6.06641 26.3461 5.33078V1.63978C26.3462 0.904066 26.9425 0.307749 27.6783 0.307583Z" stroke="#2C312E" stroke-width="0.607292"/>
<path opacity="0.4" d="M40.1833 2.25495V4.71508C40.6783 4.50672 41.0001 4.02202 41.0001 3.48502C41.0001 2.94801 40.6783 2.46331 40.1833 2.25495Z" fill="#2C312E"/>
<path d="M27.2688 2.05038C27.2688 1.59748 27.6359 1.23033 28.0888 1.23033H37.5194C37.9723 1.23033 38.3394 1.59748 38.3394 2.05038V4.92053C38.3394 5.37343 37.9723 5.74058 37.5194 5.74058H28.0888C27.6359 5.74058 27.2688 5.37343 27.2688 4.92053V2.05038Z" fill="#2C312E"/>
<path fill-rule="evenodd" clip-rule="evenodd" d="M18.2482 1.40063C19.6111 1.40069 20.9218 1.92436 21.9095 2.86339C21.9839 2.93589 22.1028 2.93497 22.176 2.86134L22.887 2.1438C22.9241 2.10645 22.9448 2.05587 22.9445 2.00323C22.9442 1.9506 22.9229 1.90025 22.8854 1.86334C20.2929 -0.621115 16.2031 -0.621115 13.6107 1.86334C13.5731 1.90023 13.5518 1.95055 13.5515 2.00319C13.5511 2.05582 13.5717 2.10643 13.6088 2.1438L14.32 2.86134C14.3932 2.93508 14.5122 2.936 14.5865 2.86339C15.5743 1.92429 16.8852 1.40063 18.2482 1.40063ZM18.248 3.7357C18.9968 3.73566 19.7189 4.01398 20.2739 4.51659C20.349 4.58792 20.4673 4.58638 20.5405 4.51311L21.2506 3.79557C21.288 3.75793 21.3088 3.70687 21.3082 3.65382C21.3077 3.60076 21.2859 3.55013 21.2477 3.51327C19.5575 1.941 16.94 1.941 15.2497 3.51327C15.2115 3.55013 15.1898 3.60078 15.1893 3.65386C15.1888 3.70693 15.2096 3.75798 15.2471 3.79557L15.957 4.51311C16.0302 4.58638 16.1485 4.58792 16.2235 4.51659C16.7782 4.01431 17.4997 3.73601 18.248 3.7357ZM19.6743 5.30905C19.6754 5.36226 19.6545 5.41355 19.6165 5.45083L18.3881 6.69053C18.3521 6.72696 18.303 6.74747 18.2518 6.74747C18.2005 6.74747 18.1514 6.72696 18.1154 6.69053L16.8868 5.45083C16.8488 5.41352 16.828 5.36221 16.8291 5.30901C16.8302 5.2558 16.8532 5.20542 16.8927 5.16976C17.6773 4.50621 18.8263 4.50621 19.6108 5.16976C19.6502 5.20545 19.6732 5.25585 19.6743 5.30905Z" fill="#2C312E"/>
<path fill-rule="evenodd" clip-rule="evenodd" d="M9.84041 0.205715H9.22538C8.8857 0.205715 8.61034 0.481075 8.61034 0.820748V6.15104C8.61034 6.49072 8.8857 6.76608 9.22538 6.76608H9.84041C10.1801 6.76608 10.4554 6.49072 10.4554 6.15104V0.820748C10.4554 0.481075 10.1801 0.205715 9.84041 0.205715ZM6.35724 1.64176H6.97227C7.31195 1.64176 7.58731 1.91712 7.58731 2.25679V6.15201C7.58731 6.49168 7.31195 6.76704 6.97227 6.76704H6.35724C6.01757 6.76704 5.74221 6.49168 5.74221 6.15201V2.25679C5.74221 1.91712 6.01757 1.64176 6.35724 1.64176ZM4.0982 3.07385H3.48317C3.1435 3.07385 2.86814 3.34921 2.86814 3.68888V6.14902C2.86814 6.48869 3.1435 6.76405 3.48317 6.76405H4.0982C4.43788 6.76405 4.71324 6.48869 4.71324 6.14902V3.68888C4.71324 3.34921 4.43788 3.07385 4.0982 3.07385ZM1.23007 4.30394H0.615034C0.27536 4.30394 0 4.5793 0 4.91898V6.14905C0 6.48872 0.27536 6.76408 0.615034 6.76408H1.23007C1.56974 6.76408 1.8451 6.48872 1.8451 6.14905V4.91898C1.8451 4.5793 1.56974 4.30394 1.23007 4.30394Z" fill="#2C312E"/>
</svg>
