<svg width="60" height="8" viewBox="0 0 60 8" fill="none" xmlns="http://www.w3.org/2000/svg">
<path d="M3.66438 7.30996C5.77358 7.30996 7.32876 5.83253 7.32876 3.81076C7.32876 1.7891 5.77363 0.311667 3.66438 0.311667C1.55523 0.311667 0 1.79873 0 3.81076C0 5.82279 1.55529 7.30996 3.66438 7.30996ZM3.66438 6.20186C2.29389 6.20186 1.27335 5.20064 1.27335 3.81071C1.27335 2.42073 2.29394 1.41966 3.66438 1.41966C5.03482 1.41966 6.05551 2.42073 6.05551 3.81071C6.05551 5.20064 5.03482 6.20186 3.66438 6.20186ZM10.7591 1.964C10.001 1.964 9.36915 2.21666 8.97065 2.69292V2.02228H7.81397V7.21277H9.02894V4.58844C9.02894 3.54836 9.61212 3.0235 10.4771 3.0235C11.2548 3.0235 11.7116 3.4706 11.7116 4.394V7.21282H12.9265V4.23853C12.9265 2.67365 12.0032 1.9641 10.7591 1.9641L10.7591 1.964ZM18.6607 4.64672C18.6607 3.02345 17.5527 1.964 16.0364 1.964C14.4908 1.964 13.3537 3.07204 13.3537 4.61744C13.3537 6.163 14.4811 7.28069 16.2209 7.28069C17.1152 7.28069 17.8442 6.98912 18.3108 6.43504L17.6595 5.68664C17.2901 6.06581 16.8334 6.25051 16.2501 6.25051C15.3462 6.25051 14.7143 5.7644 14.5685 5.00626H18.6412C18.651 4.88964 18.6607 4.7438 18.6607 4.64672ZM16.0364 2.93595C16.8334 2.93595 17.4069 3.45106 17.5041 4.19957H14.559C14.6755 3.44143 15.249 2.93595 16.0364 2.93595Z" fill="#F6921E"/>
<path d="M33.5241 4.64615C33.5241 3.02288 32.416 1.96343 30.8998 1.96343C29.3542 1.96343 28.2171 3.07148 28.2171 4.61688C28.2171 6.16244 29.3444 7.28012 31.0843 7.28012C31.9785 7.28012 32.7076 6.98855 33.1742 6.43447L32.5229 5.68607C32.1535 6.06525 31.6968 6.24994 31.1135 6.24994C30.2095 6.24994 29.5777 5.76383 29.4319 5.00569H33.5045C33.5143 4.88907 33.5241 4.74324 33.5241 4.64615ZM30.8998 2.93538C31.6968 2.93538 32.2702 3.4505 32.3674 4.19901H29.4223C29.5389 3.44086 30.1124 2.93538 30.8997 2.93538H30.8998ZM34.3533 7.21215H35.5683V0H34.3533V7.21215ZM36.8252 7.21215H38.0403V0H36.8252V7.21215ZM42.2423 1.96343C41.4841 1.96343 40.8524 2.21609 40.4538 2.69236V2.02171H39.2972V7.2122H40.5122V4.58787C40.5122 3.54779 41.0953 3.02294 41.9604 3.02294C42.738 3.02294 43.1949 3.47003 43.1949 4.39344V7.21226H44.4098V4.23797C44.4098 2.67309 43.4864 1.96354 42.2423 1.96354V1.96343ZM50.5463 4.64615C50.5463 3.02288 49.4382 1.96343 47.9219 1.96343C46.3763 1.96343 45.2392 3.07148 45.2392 4.61688C45.2392 6.16244 46.3666 7.28012 48.1065 7.28012C49.0007 7.28012 49.7297 6.98855 50.1964 6.43447L49.545 5.68607C49.1757 6.06525 48.7189 6.24994 48.1357 6.24994C47.2317 6.24994 46.5999 5.76383 46.4541 5.00569H50.5267C50.5365 4.88907 50.5463 4.74324 50.5463 4.64615ZM47.9219 2.93538C48.7189 2.93538 49.2924 3.4505 49.3896 4.19901H46.4445C46.5611 3.44086 47.1345 2.93538 47.9219 2.93538ZM52.9792 7.28012C54.4371 7.28012 55.3314 6.64839 55.3314 5.67633C55.3314 3.64493 52.1238 4.57639 52.1238 3.52837C52.1238 3.1881 52.4737 2.94517 53.2125 2.94517C53.7082 2.94517 54.204 3.04242 54.6996 3.33393L55.1662 2.41058C54.6996 2.1287 53.9123 1.96348 53.2222 1.96348C51.8225 1.96348 50.9381 2.60496 50.9381 3.58665C50.9381 5.65706 54.1456 4.72239 54.1456 5.7154C54.1456 6.07504 53.8248 6.28885 53.0569 6.28885C52.4057 6.28885 51.7059 6.07504 51.2491 5.77363L50.7825 6.69709C51.2491 7.02746 52.1142 7.28017 52.9792 7.28017V7.28012ZM57.6479 7.28012C59.1058 7.28012 60 6.64839 60 5.67633C60 3.64493 56.7925 4.57639 56.7925 3.52837C56.7925 3.1881 57.1424 2.94517 57.8812 2.94517C58.3769 2.94517 58.8727 3.04242 59.3684 3.33393L59.8349 2.41058C59.3684 2.1287 58.581 1.96348 57.891 1.96348C56.4913 1.96348 55.6068 2.60496 55.6068 3.58665C55.6068 5.65706 58.8143 4.72239 58.8143 5.7154C58.8143 6.07504 58.4935 6.28885 57.7257 6.28885C57.0745 6.28885 56.3747 6.07504 55.9178 5.77363L55.4512 6.69709C55.9178 7.02746 56.7829 7.28017 57.6479 7.28017L57.6479 7.28012Z" fill="white"/>
<path fill-rule="evenodd" clip-rule="evenodd" d="M27.2194 2.01945L25.8099 5.86881L24.4101 2.01945H23.3895L22.5638 4.23286C22.8098 4.87033 22.8661 5.55692 22.769 6.24746L22.7034 6.71404L23.8755 3.63308L25.217 7.21015H26.3833L28.2983 2.01945H27.2193H27.2194Z" fill="white"/>
<path fill-rule="evenodd" clip-rule="evenodd" d="M22.4502 6.20435C21.9257 5.70397 21.727 5.09098 21.3027 4.63947C21.1797 4.49989 21.0629 4.23354 20.838 4.39507C20.663 4.52048 20.8341 4.72234 20.9085 4.86933C21.2054 5.43794 21.527 5.9977 21.7024 6.61985C21.7651 6.83592 21.8787 7.08548 21.696 7.25058C21.4741 7.44886 21.2327 7.25838 21.0248 7.15329C20.3029 6.77617 19.7774 6.21124 19.5934 5.41209C19.2936 4.12398 19.1677 2.78054 17.9622 1.77169C20.8626 1.97059 22.8064 3.66783 22.4502 6.20435Z" fill="white"/>
</svg>
