<svg width="12" height="12" viewBox="0 0 12 12" fill="none" xmlns="http://www.w3.org/2000/svg">
<g clip-path="url(#clip0_0_86)">
<path d="M2.39614 4.88865C2.3073 4.87803 2.22633 4.83255 2.17103 4.76223C2.11573 4.6919 2.09063 4.60249 2.10126 4.51366L2.42163 1.83484C2.43226 1.74601 2.47773 1.66503 2.54806 1.60973C2.61838 1.55443 2.70779 1.52933 2.79663 1.53996L5.47612 1.86041C5.56495 1.87104 5.64592 1.91651 5.70122 1.98684C5.75652 2.05716 5.78162 2.14657 5.771 2.23541L5.45062 4.91423C5.44 5.00306 5.39452 5.08403 5.3242 5.13933C5.25387 5.19463 5.16446 5.21973 5.07563 5.20911L2.39614 4.88865ZM7.08525 5.44945C6.99642 5.43882 6.91544 5.39335 6.86014 5.32302C6.80484 5.2527 6.77974 5.16329 6.79037 5.07446L7.11074 2.39563C7.12137 2.3068 7.16684 2.22583 7.23717 2.17053C7.30749 2.11523 7.39691 2.09013 7.48574 2.10075L10.1646 2.42113C10.2534 2.43175 10.3344 2.47723 10.3897 2.54755C10.445 2.61788 10.4701 2.70729 10.4594 2.79612L10.1391 5.47494C10.1284 5.56377 10.083 5.64475 10.0126 5.70005C9.94231 5.75535 9.8529 5.78045 9.76407 5.76982L7.08525 5.44945ZM1.83534 9.57776C1.74651 9.56714 1.66554 9.52166 1.61023 9.45134C1.55493 9.38101 1.52983 9.2916 1.54046 9.20277L1.86091 6.52328C1.87154 6.43445 1.91701 6.35347 1.98734 6.29817C2.05766 6.24287 2.14708 6.21777 2.23591 6.2284L4.9154 6.54885C5.00423 6.55948 5.0852 6.60495 5.1405 6.67528C5.1958 6.7456 5.2209 6.83502 5.21028 6.92385L4.88982 9.60334C4.8792 9.69217 4.83372 9.77314 4.7634 9.82844C4.69307 9.88374 4.60366 9.90884 4.51483 9.89822L1.83534 9.57776ZM6.52445 10.1386C6.43562 10.1279 6.35465 10.0825 6.29935 10.0121C6.24405 9.94181 6.21895 9.8524 6.22957 9.76357L6.55003 7.08407C6.56065 6.99524 6.60613 6.91427 6.67645 6.85897C6.74678 6.80367 6.83619 6.77857 6.92502 6.78919L9.60384 7.10957C9.69267 7.12019 9.77364 7.16567 9.82894 7.23599C9.88425 7.30632 9.90934 7.39573 9.89872 7.48456L9.57826 10.1641C9.56764 10.2529 9.52216 10.3339 9.45184 10.3892C9.38151 10.4445 9.2921 10.4696 9.20327 10.4589L6.52445 10.1386Z" fill="#C2C1CC"/>
</g>
<defs>
<clipPath id="clip0_0_86">
<rect width="9.9025" height="9.9025" fill="white" transform="translate(1.28194) scale(1.09006) rotate(6.81992)"/>
</clipPath>
</defs>
</svg>
