<svg width="34" height="34" viewBox="0 0 34 34" fill="none" xmlns="http://www.w3.org/2000/svg">
<rect width="34" height="34" rx="16.6149" fill="#228821"/>
<path d="M13.4544 10.6265C12.2808 10.6265 11.3294 11.5779 11.3294 12.7515V21.9598C11.3294 23.1334 12.2808 24.0848 13.4544 24.0848H20.5378C21.7114 24.0848 22.6628 23.1334 22.6628 21.9598V12.7515C22.6628 11.5779 21.7114 10.6265 20.5378 10.6265H13.4544Z" fill="#F1F9F4"/>
<path fill-rule="evenodd" clip-rule="evenodd" d="M14.8775 16.2939C14.4863 16.2939 14.1691 16.6111 14.1691 17.0023C14.1691 17.3935 14.4863 17.7106 14.8775 17.7106H19.1275C19.5187 17.7106 19.8358 17.3935 19.8358 17.0023C19.8358 16.6111 19.5187 16.2939 19.1275 16.2939H14.8775ZM14.8775 19.1273C14.4863 19.1273 14.1691 19.4444 14.1691 19.8356C14.1691 20.2268 14.4863 20.5439 14.8775 20.5439H17.7108C18.102 20.5439 18.4191 20.2268 18.4191 19.8356C18.4191 19.4444 18.102 19.1273 17.7108 19.1273H14.8775Z" fill="#82EE8F"/>
<path d="M14.8746 10.6274C14.8746 10.2362 15.1917 9.91905 15.5829 9.91905H18.4162C18.8074 9.91905 19.1246 10.2362 19.1246 10.6274V11.3357C19.1246 11.7269 18.8074 12.0441 18.4162 12.0441H15.5829C15.1917 12.0441 14.8746 11.7269 14.8746 11.3357V10.6274Z" fill="#82EE8F"/>
</svg>
