<svg width="96" height="96" viewBox="0 0 96 96" fill="none" xmlns="http://www.w3.org/2000/svg">
<path d="M41.6999 24.0024C32.3999 24.0024 24.5999 31.4024 24.0999 40.7024C23.8999 44.4024 24.7999 47.9024 26.5999 50.8024C26.6999 51.0024 26.7999 51.3024 26.6999 51.5024L25.6999 55.5024C25.5999 56.0024 25.9999 56.4024 26.4999 56.3024L29.9999 55.4024C30.2999 55.3024 30.5999 55.4024 30.7999 55.6024C34.2999 58.3024 38.7999 59.8024 43.5999 59.3024C51.6999 58.5024 58.2999 52.1024 59.2999 44.0024C60.5999 33.2024 52.1999 24.0024 41.6999 24.0024Z" fill="#3DA647"/>
<path d="M41.6999 24.0024C32.3999 24.0024 24.5999 31.4024 24.0999 40.7024C23.8999 44.4024 24.7999 47.9024 26.5999 50.8024C26.6999 51.0024 26.7999 51.3024 26.6999 51.5024L25.6999 55.5024C25.5999 56.0024 25.9999 56.4024 26.4999 56.3024L29.9999 55.4024C30.2999 55.3024 30.5999 55.4024 30.7999 55.6024C34.2999 58.3024 38.7999 59.8024 43.5999 59.3024C51.6999 58.5024 58.2999 52.1024 59.2999 44.0024C60.5999 33.2024 52.1999 24.0024 41.6999 24.0024Z" fill="black" fill-opacity="0.2"/>
<path d="M48.4999 36.4024C46.5999 34.9024 43.8999 35.1024 42.1999 36.8024L42.0999 36.9024C41.8999 37.1024 41.5999 37.1024 41.3999 36.9024L41.2999 36.8024C39.5999 35.1024 36.7999 34.8024 34.9999 36.4024C32.8999 38.2024 32.7999 41.3024 34.6999 43.2024L35.2999 43.8024L40.6999 49.2024C41.2999 49.8024 42.1999 49.8024 42.7999 49.2024L48.1999 43.8024L48.7999 43.2024C50.6999 41.3024 50.5999 38.1024 48.4999 36.4024Z" fill="#3DA647"/>
<path d="M54.2999 36.6025C63.5999 36.6025 71.3999 44.0025 71.8999 53.3025C72.0999 57.0025 71.1999 60.5025 69.3999 63.4025C69.2999 63.6025 69.1999 63.9025 69.2999 64.1025L70.2999 68.1025C70.3999 68.6025 69.9999 69.0025 69.4999 68.9025L65.9999 68.0025C65.6999 67.9025 65.3999 68.0025 65.1999 68.2025C61.6999 70.9025 57.1999 72.4025 52.3999 71.9025C44.2999 71.1025 37.6999 64.7025 36.6999 56.6025C35.3999 45.8025 43.7999 36.6025 54.2999 36.6025Z" fill="#E6E6E6"/>
<path d="M36.7999 56.6025C36.8999 57.3025 36.9999 58.1025 37.1999 58.8025C39.1999 59.3025 41.2999 59.5025 43.4999 59.3025C51.5999 58.5025 58.1999 52.1025 59.1999 44.0025C59.4999 41.6025 59.2999 39.4025 58.7999 37.2025C57.3999 36.8025 55.8999 36.6025 54.2999 36.6025C43.7999 36.6025 35.3999 45.8025 36.7999 56.6025Z" fill="black" fill-opacity="0.05"/>
<path d="M38.3 46.9023L40.6 49.2023C41.2 49.8023 42.1 49.8023 42.7 49.2023L48.1 43.8023L48.7 43.2023C50.3 41.6023 50.5 39.2023 49.2 37.4023C44.4 38.8023 40.4 42.3023 38.3 46.9023Z" fill="#EBEEF2"/>
<path d="M47.4999 49.0025C49.3999 47.5025 52.0999 47.7025 53.7999 49.4025L53.8999 49.5025C54.0999 49.7025 54.3999 49.7025 54.5999 49.5025L54.6999 49.4025C56.3999 47.7025 59.1999 47.4025 60.9999 49.0025C63.0999 50.8025 63.1999 53.9025 61.2999 55.8025L60.6999 56.4025L55.2999 61.8025C54.6999 62.4025 53.7999 62.4025 53.1999 61.8025L47.7999 56.4025L47.1999 55.8025C45.2999 53.9025 45.3999 50.7025 47.4999 49.0025Z" fill="white"/>
</svg>
