<svg width="96" height="96" viewBox="0 0 96 96" fill="none" xmlns="http://www.w3.org/2000/svg">
<path d="M58.1951 72H60.3951L55.5951 49H53.295L55.6951 60.5H40.3951L42.795 49H40.5951L35.6951 72H37.8951L40.0951 61.8H55.9951L58.1951 72Z" fill="#3DA647"/>
<path d="M58.1951 72H60.3951L55.5951 49H53.295L55.6951 60.5H40.3951L42.795 49H40.5951L35.6951 72H37.8951L40.0951 61.8H55.9951L58.1951 72Z" fill="black" fill-opacity="0.2"/>
<path d="M51.0951 25.8H44.9951V25.6C44.9951 24.7 45.6951 24 46.5951 24H49.4951C50.3951 24 51.0951 24.7 51.0951 25.6V25.8Z" fill="#3DA647"/>
<path d="M51.0951 25.8H44.9951V25.6C44.9951 24.7 45.6951 24 46.5951 24H49.4951C50.3951 24 51.0951 24.7 51.0951 25.6V25.8Z" fill="black" fill-opacity="0.2"/>
<path d="M68.9951 53.1999H27.1951C26.2951 53.1999 25.4951 52.3999 25.4951 51.4999V29.3999H70.6951V51.4999C70.6951 52.4999 69.8951 53.1999 68.9951 53.1999Z" fill="#EBEEF2"/>
<path d="M70.4951 29.3998H25.4951C24.6951 29.3998 23.9951 28.6998 23.9951 27.8998V26.7998C23.9951 25.9998 24.6951 25.2998 25.4951 25.2998H70.4951C71.2951 25.2998 71.9951 25.9998 71.9951 26.7998V27.8998C72.0951 28.6998 71.3951 29.3998 70.4951 29.3998Z" fill="#3DA647"/>
<path d="M70.6951 29.3999H25.4951V30.6999H70.6951V29.3999Z" fill="#DCDFE2"/>
<path d="M38.9951 42.6002V41.3002C38.9951 40.2002 38.3951 39.3002 37.4951 38.7002C36.5951 38.2002 35.4951 38.2002 34.4951 38.7002C33.5951 39.2002 32.9951 40.2002 32.9951 41.3002V42.6002C32.9951 43.5002 33.4951 44.4002 34.2951 44.8002C35.2951 45.4002 36.5951 45.4002 37.5951 44.8002C38.4951 44.4002 38.9951 43.6002 38.9951 42.6002Z" fill="#3DA647"/>
<path d="M42.4952 54.7001H29.5952V52.6001C29.5952 49.0001 32.4952 46.1001 36.0952 46.1001C39.6952 46.1001 42.5952 49.0001 42.5952 52.6001V54.7001H42.4952Z" fill="#3DA647"/>
<path d="M46.8952 58.0003H25.1952C24.5952 58.0003 24.0952 57.5003 24.0952 56.9003V55.9003C24.0952 55.3003 24.5952 54.8003 25.1952 54.8003H46.8952C47.4952 54.8003 47.9952 55.3003 47.9952 55.9003V56.9003C48.0952 57.5003 47.4952 58.0003 46.8952 58.0003Z" fill="#3DA647"/>
<path d="M46.8952 58.0003H25.1952C24.5952 58.0003 24.0952 57.5003 24.0952 56.9003V55.9003C24.0952 55.3003 24.5952 54.8003 25.1952 54.8003H46.8952C47.4952 54.8003 47.9952 55.3003 47.9952 55.9003V56.9003C48.0952 57.5003 47.4952 58.0003 46.8952 58.0003Z" fill="black" fill-opacity="0.2"/>
<path d="M46.6953 58H25.3953V72H46.6953V58Z" fill="#3DA647"/>
<path d="M46.6953 58H25.3953V72H46.6953V58Z" fill="black" fill-opacity="0.2"/>
<path d="M59.2952 35.3002L60.4952 36.5002L57.8952 39.1002C57.6952 39.3002 57.3952 39.3002 57.1952 39.1002L55.2952 37.2002C55.2952 37.2002 55.2952 37.2002 55.1952 37.1002L54.8952 36.8002C54.0952 36.0002 52.7952 36.0002 51.9952 36.8002L49.6952 39.1002L47.5952 41.2002C46.5952 42.2002 46.3952 43.8002 47.2952 44.8002C48.2952 46.0002 50.0952 46.1002 51.1952 45.0002L53.0952 43.1002C53.2952 42.9002 53.5952 42.9002 53.7952 43.1002L55.6952 45.0002C56.6952 46.0002 58.2952 46.0002 59.2952 45.0002L61.2952 43.0002L64.1952 40.1002L65.3952 41.3002V35.2002H59.2952V35.3002Z" fill="white"/>
</svg>
