<svg width="96" height="96" viewBox="0 0 96 96" fill="none" xmlns="http://www.w3.org/2000/svg">
<path d="M41.3502 29.2002H38.5502C36.0502 29.2002 33.6502 30.6002 32.4502 32.7002C32.3502 32.8002 32.2502 32.9002 32.2502 33.1002C29.6502 33.4002 27.6502 35.4002 27.2502 37.9002C27.1502 38.4002 27.0502 38.8002 26.7502 39.2002C25.6502 40.9002 24.9502 42.9002 24.9502 45.0002V47.1002C24.9502 49.0002 25.4502 50.9002 26.4502 52.5002C26.7502 52.9002 26.8502 53.4002 26.7502 53.9002C26.7502 54.1002 26.7502 54.3002 26.7502 54.5002V55.6002C26.7502 58.2002 28.3502 60.5002 30.6502 61.4002C31.2502 61.6002 31.6502 62.1002 31.9502 62.6002C33.0502 65.2002 35.6502 66.9002 38.5502 66.9002H43.5502C46.0502 66.9002 48.0502 64.9002 48.0502 62.4002V55.1002V53.5002V35.9002C48.0502 32.2002 45.0502 29.2002 41.3502 29.2002Z" fill="#EBEEF2"/>
<path d="M54.0501 29.2002H56.8501C59.3501 29.2002 61.7501 30.6002 62.9501 32.7002C63.0501 32.8002 63.1501 32.9002 63.1501 33.1002C65.7501 33.4002 67.7501 35.4002 68.1501 37.9002C68.2501 38.4002 68.3501 38.8002 68.6501 39.2002C69.7501 40.9002 70.4501 42.9002 70.4501 45.0002V47.1002C70.4501 49.0002 69.9501 50.9002 68.9501 52.5002C68.6501 52.9002 68.5501 53.4002 68.6501 53.9002C68.6501 54.1002 68.6501 54.3002 68.6501 54.5002V55.6002C68.6501 58.2002 67.0501 60.5002 64.7501 61.4002C64.1501 61.6002 63.7501 62.1002 63.4501 62.6002C62.3501 65.2002 59.7501 66.9002 56.8501 66.9002H51.8501C49.3501 66.9002 47.3501 64.9002 47.3501 62.4002V55.1002V53.5002V35.9002C47.3501 32.2002 50.3501 29.2002 54.0501 29.2002Z" fill="#EBEEF2"/>
<path d="M69.7501 38.2001C69.4501 37.8001 69.2501 37.1001 69.1501 36.6001C68.6501 33.9001 66.4501 31.7001 63.6501 31.4001C63.5501 31.3001 63.4501 31.1001 63.4501 31.0001C62.0501 28.6001 59.4501 27.1001 56.6501 27.1001H53.5501C51.9501 27.1001 50.3501 27.6001 49.1501 28.5001C48.3501 29.1001 47.1501 29.1001 46.3501 28.5001C45.1501 27.6001 43.5501 27.1001 41.9501 27.1001H38.8501C36.0501 27.1001 33.4501 28.6001 32.0501 31.0001C31.9501 31.1001 31.8501 31.3001 31.8501 31.4001C29.0501 31.7001 26.7501 33.8001 26.3501 36.6001C26.2501 37.1001 26.0501 37.8001 25.7501 38.2001C24.5501 40.1001 23.8501 42.3001 23.8501 44.6001V46.9001C23.8501 49.0001 24.4501 51.1001 25.5501 52.9001C25.8501 53.4001 25.9501 53.9001 25.9501 54.4001C25.9501 54.6001 25.9501 54.8001 25.9501 55.0001V56.2001C25.9501 59.1001 27.7501 61.6001 30.3501 62.7001C30.9501 63.0001 31.5501 63.4001 31.7501 64.1001C32.9501 67.0001 35.8501 68.9001 39.0501 68.9001H44.6501C45.2501 68.9001 45.8501 68.8001 46.3501 68.6001C47.4501 68.2001 48.5501 68.2001 49.6501 68.6001C50.1501 68.8001 50.7501 68.9001 51.3501 68.9001H56.9501C60.1501 68.9001 63.0501 67.0001 64.2501 64.1001C64.5501 63.5001 65.0501 63.0001 65.6501 62.7001C68.2501 61.7001 70.0501 59.1001 70.0501 56.2001V55.0001C70.0501 54.8001 70.0501 54.6001 70.0501 54.4001C69.9501 53.9001 70.1501 53.3001 70.4501 52.9001C71.5501 51.1001 72.1501 49.1001 72.1501 46.9001V44.6001C71.7501 42.3001 71.0501 40.1001 69.7501 38.2001ZM41.9501 63.3001C43.2501 63.3001 44.5501 62.9001 45.7501 62.3001C45.8501 62.2001 45.9501 62.2001 46.0501 62.1001V63.5001C46.0501 64.6001 45.1501 65.5001 44.0501 65.5001H38.9501C37.2501 65.5001 35.8501 64.6001 35.0501 63.3001H35.9501C36.7501 63.3001 37.5501 62.7001 37.7501 61.9001C37.9501 60.8001 37.1501 59.9001 36.0501 59.9001H32.6501C32.5501 59.9001 32.3501 59.8001 32.2501 59.8001C30.4501 59.6001 29.1501 58.2001 29.1501 56.4001V55.9001C30.2501 56.4001 31.5501 56.8001 32.8501 56.8001H35.8501C37.6501 56.8001 39.4501 56.2001 40.7501 55.0001C42.3501 53.6001 43.1501 51.7001 43.1501 49.7001V48.6001C43.1501 46.2001 41.2501 44.3001 38.8501 44.3001H36.2501C34.8501 44.3001 33.6501 45.3001 33.3501 46.6001C32.9501 46.2001 32.3501 46.2001 31.9501 46.6001L31.5501 47.0001C30.8501 47.7001 30.8501 48.8001 31.5501 49.5001C32.0501 50.0001 32.6501 50.4001 33.4501 50.5001C34.8501 50.7001 36.1501 49.8001 36.5501 48.6001C36.7501 48.1001 37.2501 47.8001 37.7501 47.8001H38.3501C39.1501 47.8001 39.7501 48.4001 39.7501 49.1001V49.8001C39.7501 51.3001 38.8501 52.6001 37.4501 53.3001C37.1501 53.4001 36.5501 53.5001 36.2501 53.5001H32.8501C31.0501 53.5001 29.3501 52.5001 28.3501 50.9001L27.6501 49.6001C27.3501 48.7001 27.1501 47.8001 27.1501 46.9001V44.6001C27.1501 43.6001 27.3501 42.6001 27.6501 41.7001C27.8501 41.9001 27.9501 42.1001 28.1501 42.3001L28.4501 42.6001C29.0501 43.2001 30.0501 43.3001 30.6501 42.8001C31.5501 42.2001 31.5501 41.0001 30.8501 40.2001L30.4501 39.8001C29.8501 39.2001 29.4501 38.3001 29.4501 37.4001C29.5501 36.6001 29.8501 35.9001 30.4501 35.4001C30.5501 35.6001 30.6501 35.8001 30.8501 36.0001L32.8501 38.0001C34.5501 39.7001 36.8501 40.7001 39.2501 40.7001H39.6501C41.5501 40.7001 43.0501 39.2001 43.0501 37.3001V36.7001C43.0501 36.5001 43.0501 36.4001 43.0501 36.3001C42.7501 34.3001 39.6501 34.6001 39.7501 36.6001V36.7001V37.3001H39.3501C37.8501 37.3001 36.3501 36.7001 35.3501 35.6001L34.7501 35.0001C34.3501 34.6001 34.2501 34.1001 34.5501 33.6001L35.0501 32.4001C35.8501 31.1001 37.3501 30.3001 38.8501 30.3001H41.7501C44.0501 30.3001 45.9501 32.2001 45.9501 34.5001V53.9001V55.5001C45.9501 56.2001 45.7501 57.0001 45.4501 57.6001C44.6501 58.9001 43.2501 59.7001 41.8501 59.7001C41.0501 59.7001 40.3501 60.4001 40.3501 61.2001V61.5001C40.3501 62.7001 41.0501 63.3001 41.9501 63.3001ZM68.3501 46.9001C68.3501 47.8001 68.1501 48.8001 67.8501 49.6001L67.1501 50.9001C66.2501 52.5001 64.5501 53.5001 62.6501 53.5001H59.2501C58.8501 53.5001 58.3501 53.4001 58.0501 53.3001C56.5501 52.6001 55.7501 51.3001 55.7501 49.8001V49.1001C55.7501 48.4001 56.3501 47.8001 57.1501 47.8001H57.7501C58.2501 47.8001 58.8501 48.1001 58.9501 48.6001C59.3501 49.8001 60.6501 50.7001 62.0501 50.5001C62.7501 50.4001 63.4501 50.1001 63.9501 49.5001C64.6501 48.8001 64.5501 47.7001 63.9501 47.0001L63.5501 46.6001C63.1501 46.2001 62.5501 46.2001 62.1501 46.6001C61.8501 45.3001 60.6501 44.3001 59.2501 44.3001H56.6501C54.2501 44.3001 52.3501 46.2001 52.3501 48.6001V49.7001C52.3501 51.7001 53.2501 53.7001 54.7501 55.0001C56.1501 56.2001 57.8501 56.8001 59.6501 56.8001H62.6501C63.9501 56.8001 65.1501 56.5001 66.3501 55.9001V56.4001C66.3501 58.2001 64.9501 59.6001 63.2501 59.8001C63.1501 59.8001 62.9501 59.8001 62.8501 59.9001H59.6501C58.8501 59.9001 58.0501 60.5001 57.8501 61.3001C57.6501 62.4001 58.4501 63.3001 59.5501 63.3001H60.5501C59.7501 64.6001 58.2501 65.5001 56.6501 65.5001H51.5501C50.4501 65.5001 49.5501 64.6001 49.5501 63.5001V62.1001C49.6501 62.2001 49.7501 62.2001 49.8501 62.3001C50.9501 63.0001 52.2501 63.3001 53.6501 63.3001C54.5501 63.3001 55.2501 62.6001 55.2501 61.8001V61.5001C55.2501 60.7001 54.5501 60.0001 53.7501 60.0001C52.3501 60.0001 50.9501 59.3001 50.1501 57.9001C49.7501 57.3001 49.6501 56.5001 49.6501 55.8001V54.2001V34.7001C49.6501 32.4001 51.5501 30.5001 53.8501 30.5001H56.7501C58.3501 30.5001 59.7501 31.3001 60.5501 32.6001L61.0501 33.8001C61.2501 34.3001 61.1501 34.8001 60.8501 35.2001L60.2501 35.8001C59.1501 36.9001 57.7501 37.5001 56.2501 37.5001H55.6501V36.9001V36.8001C55.6501 34.8001 52.5501 34.4001 52.3501 36.5001C52.3501 36.6001 52.3501 36.8001 52.3501 36.9001V37.5001C52.3501 39.4001 53.8501 40.9001 55.7501 40.9001H56.1501C58.5501 40.9001 60.8501 39.9001 62.5501 38.2001L64.5501 36.2001C64.7501 36.0001 64.8501 35.8001 64.9501 35.6001C65.5501 36.1001 65.8501 36.8001 65.9501 37.6001C65.9501 38.5001 65.5501 39.4001 64.9501 40.0001L64.6501 40.3001C64.0501 40.9001 63.9501 41.9001 64.4501 42.5001C65.0501 43.4001 66.2501 43.4001 67.0501 42.7001L67.4501 42.3001C67.6501 42.1001 67.8501 41.9001 67.9501 41.7001C68.3501 42.6001 68.4501 43.6001 68.4501 44.6001V46.9001H68.3501Z" fill="#DCDFE2"/>
<path d="M41.9501 55.5003C37.0501 51.7003 37.0501 44.3003 41.9501 40.5003C45.3501 37.9003 50.1501 37.9003 53.4501 40.5003C58.3501 44.3003 58.3501 51.7003 53.4501 55.5003C50.1501 58.1003 45.2501 58.1003 41.9501 55.5003Z" fill="#3DA647"/>
<path d="M41.9501 55.5003C37.0501 51.7003 37.0501 44.3003 41.9501 40.5003C45.3501 37.9003 50.1501 37.9003 53.4501 40.5003C58.3501 44.3003 58.3501 51.7003 53.4501 55.5003C50.1501 58.1003 45.2501 58.1003 41.9501 55.5003Z" fill="black" fill-opacity="0.2"/>
<path d="M43.05 54.1002C39.05 51.0002 39.05 45.0002 43.05 41.9002C45.75 39.8002 49.6501 39.8002 52.3501 41.9002C56.3501 45.0002 56.3501 51.0002 52.3501 54.1002C49.6501 56.2002 45.75 56.2002 43.05 54.1002Z" fill="#3DA647"/>
<path d="M42.8501 48.5458V47.6087H44.0657L44.4449 47.723H50.2107L50.6791 47.6087H51.8501V48.5458H50.6233L50.1661 48.3744H44.378L44.0434 48.5458H42.8501ZM43.9207 52.1001V44.1001H45.4152L49.7311 50.0772H49.4189C49.3891 49.8411 49.3594 49.6125 49.3297 49.3915C49.3073 49.163 49.285 48.9344 49.2627 48.7058C49.2479 48.4696 49.233 48.2296 49.2181 47.9858C49.2107 47.7344 49.2033 47.4715 49.1958 47.1972C49.1958 46.9153 49.1958 46.6106 49.1958 46.283V44.1001H50.8352V52.1001H49.3185L44.9021 46.0658L45.3371 46.0772C45.3743 46.4734 45.404 46.8125 45.4263 47.0944C45.456 47.3687 45.4784 47.6087 45.4932 47.8144C45.5081 48.0201 45.5192 48.1991 45.5267 48.3515C45.5415 48.5039 45.549 48.6487 45.549 48.7858C45.5564 48.923 45.5601 49.0677 45.5601 49.2201V52.1001H43.9207Z" fill="white"/>
</svg>
