<svg width="183" height="378" viewBox="0 0 183 378" fill="none" xmlns="http://www.w3.org/2000/svg">
<path fill-rule="evenodd" clip-rule="evenodd" d="M143.115 0.441589H39.4073C28.8947 0.441589 23.7428 0.447037 19.5857 1.8032C11.1503 4.55511 4.53679 11.1953 1.79595 19.6648C0.445239 23.8386 0.439813 29.0114 0.439813 39.5663V338.434C0.439813 348.989 0.445239 354.161 1.79595 358.335C4.53679 366.805 11.1503 373.445 19.5857 376.197C23.7428 377.553 28.8947 377.558 39.4073 377.558H143.115C153.628 377.558 158.78 377.553 162.937 376.197C171.372 373.445 177.986 366.805 180.727 358.335C182.077 354.161 182.083 348.989 182.083 338.434V39.5664C182.083 29.0114 182.077 23.8386 180.727 19.6648C177.986 11.1953 171.372 4.55511 162.937 1.8032C158.78 0.447037 153.628 0.441589 143.115 0.441589ZM1.37766 19.5283C0 23.7855 0 29.0458 0 39.5663V338.434C0 348.954 0 354.215 1.37766 358.472C4.16201 367.076 10.8805 373.821 19.4498 376.617C23.6898 378 28.929 378 39.4073 378H143.115C153.594 378 158.833 378 163.073 376.617C171.642 373.821 178.36 367.076 181.145 358.472C182.523 354.215 182.523 348.954 182.523 338.434V39.5664C182.523 29.0458 182.523 23.7855 181.145 19.5283C178.36 10.9244 171.642 4.17881 163.073 1.38323C158.833 0 153.594 0 143.115 0H39.4073C28.929 0 23.6898 0 19.4498 1.38323C10.8805 4.17881 4.16201 10.9244 1.37766 19.5283Z" fill="#303030"/>
</svg>
