<svg width="18" height="18" viewBox="0 0 18 18" fill="none" xmlns="http://www.w3.org/2000/svg">
<g clip-path="url(#clip0_276_11930)">
<path d="M7.02372 4.18026C6.19129 4.08071 5.43576 4.67482 5.33621 5.50725L4.55508 12.0387C4.45552 12.8711 5.04964 13.6266 5.88207 13.7262L10.9062 14.327C11.7387 14.4266 12.4942 13.8325 12.5937 13L13.3749 6.46863C13.4744 5.6362 12.8803 4.88068 12.0479 4.78113L7.02372 4.18026Z" fill="#228821"/>
<path fill-rule="evenodd" clip-rule="evenodd" d="M7.55182 8.32156C7.27434 8.28838 7.0225 8.48642 6.98931 8.76389C6.95613 9.04137 7.15417 9.29321 7.43164 9.3264L10.4461 9.68692C10.7236 9.7201 10.9755 9.52206 11.0086 9.24459C11.0418 8.96711 10.8438 8.71527 10.5663 8.68208L7.55182 8.32156ZM7.31147 10.3312C7.03399 10.298 6.78215 10.4961 6.74897 10.7736C6.71578 11.051 6.91382 11.3029 7.1913 11.3361L9.20096 11.5764C9.47844 11.6096 9.73028 11.4116 9.76347 11.1341C9.79665 10.8566 9.59861 10.6048 9.32114 10.5716L7.31147 10.3312Z" fill="#82EE8F"/>
<path d="M8.03023 4.30281C8.06342 4.02534 8.31526 3.8273 8.59274 3.86049L10.6024 4.10083C10.8799 4.13402 11.0779 4.38586 11.0447 4.66334L10.9846 5.16575C10.9515 5.44323 10.6996 5.64126 10.4221 5.60808L8.41248 5.36773C8.135 5.33455 7.93696 5.08271 7.97015 4.80523L8.03023 4.30281Z" fill="#82EE8F"/>
</g>
<defs>
<clipPath id="clip0_276_11930">
<rect width="11.883" height="11.883" fill="white" transform="translate(3.69112 2.2495) scale(1.02196) rotate(6.81992)"/>
</clipPath>
</defs>
</svg>
