<svg width="195" height="52" viewBox="0 0 195 52" fill="none" xmlns="http://www.w3.org/2000/svg">
<g clip-path="url(#clip0_276_12134)">
<rect width="192.109" height="29.1961" transform="translate(3.48028) scale(1.00382) rotate(6.81992)" fill="white" fill-opacity="0.9"/>
<path opacity="0.35" d="M176.136 29.5781L184.361 30.5617C184.952 30.6323 185.374 31.1679 185.303 31.7584L184.949 34.7193C184.878 35.3099 184.342 35.7317 183.751 35.6611L175.526 34.6775C174.936 34.6068 174.515 34.0705 174.585 33.4799L174.94 30.519C175.01 29.9285 175.546 29.5075 176.136 29.5781Z" stroke="#2C312E" stroke-width="0.495125"/>
<path opacity="0.4" d="M185.984 32.3378L185.748 34.3118C186.165 34.1921 186.47 33.8341 186.521 33.4032C186.573 32.9723 186.361 32.5525 185.984 32.3378Z" fill="#2C312E"/>
<path d="M175.639 30.9333C175.682 30.5699 176.012 30.3105 176.375 30.354L183.942 31.259C184.306 31.3024 184.565 31.6323 184.522 31.9957L184.246 34.2986C184.203 34.662 183.873 34.9214 183.509 34.878L175.943 33.973C175.579 33.9295 175.32 33.5997 175.363 33.2363L175.639 30.9333Z" fill="#2C312E"/>
<path fill-rule="evenodd" clip-rule="evenodd" d="M168.462 29.5462C169.556 29.677 170.558 30.223 171.26 31.0712C171.313 31.1365 171.408 31.1472 171.474 31.0952L172.113 30.5876C172.147 30.5612 172.168 30.5226 172.173 30.4804C172.178 30.4381 172.165 30.3957 172.139 30.3624C170.297 28.1202 167.016 27.7277 164.697 29.4724C164.663 29.4984 164.641 29.5368 164.636 29.579C164.631 29.6212 164.642 29.6637 164.669 29.6973L165.17 30.3413C165.222 30.4075 165.317 30.4196 165.384 30.3685C166.267 29.7098 167.369 29.4154 168.462 29.5462ZM168.239 31.421C168.84 31.4928 169.393 31.7854 169.79 32.2419C169.843 32.3064 169.938 32.3165 170.004 32.2647L170.643 31.7571C170.676 31.7305 170.698 31.6915 170.702 31.6489C170.707 31.6063 170.695 31.5636 170.667 31.5303C169.462 30.1066 167.362 29.8554 165.855 30.9548C165.821 30.9807 165.798 31.0192 165.793 31.0618C165.787 31.1043 165.799 31.1473 165.825 31.181L166.326 31.8249C166.378 31.8907 166.473 31.9033 166.54 31.8533C167.033 31.5035 167.639 31.3494 168.239 31.421ZM169.23 32.8161C169.226 32.8589 169.204 32.8981 169.17 32.9243L168.066 33.8012C168.033 33.8269 167.992 33.8387 167.951 33.8338C167.91 33.8288 167.872 33.8077 167.847 33.775L166.98 32.6624C166.953 32.6288 166.941 32.5856 166.947 32.543C166.953 32.5004 166.977 32.4622 167.012 32.4374C167.705 31.9803 168.627 32.0905 169.193 32.6982C169.221 32.7307 169.235 32.7733 169.23 32.8161Z" fill="#2C312E"/>
<path fill-rule="evenodd" clip-rule="evenodd" d="M161.833 27.7839L161.34 27.7249C161.067 27.6923 160.82 27.8868 160.787 28.1594L160.276 32.4364C160.243 32.7089 160.438 32.9563 160.71 32.9889L161.204 33.0479C161.476 33.0805 161.724 32.886 161.756 32.6134L162.268 28.3364C162.3 28.0639 162.106 27.8165 161.833 27.7839ZM158.893 28.5993L159.386 28.6583C159.659 28.6909 159.854 28.9383 159.821 29.2109L159.447 32.3363C159.415 32.6089 159.167 32.8034 158.895 32.7708L158.401 32.7118C158.129 32.6792 157.934 32.4318 157.967 32.1593L158.34 29.0338C158.373 28.7612 158.62 28.5667 158.893 28.5993ZM156.951 29.5308L156.458 29.4718C156.185 29.4392 155.938 29.6337 155.905 29.9062L155.669 31.8802C155.637 32.1528 155.831 32.4002 156.104 32.4328L156.597 32.4918C156.87 32.5244 157.117 32.3299 157.15 32.0573L157.386 30.0833C157.419 29.8108 157.224 29.5634 156.951 29.5308ZM154.529 30.2464L154.036 30.1874C153.763 30.1548 153.516 30.3493 153.483 30.6219L153.365 31.6089C153.333 31.8814 153.527 32.1288 153.8 32.1614L154.293 32.2204C154.566 32.253 154.813 32.0585 154.846 31.7859L154.964 30.7989C154.996 30.5264 154.802 30.279 154.529 30.2464Z" fill="#2C312E"/>
<path d="M15.7841 15.6211C17.1106 15.7798 18.0226 14.8366 18.2327 13.08C18.3118 12.4185 18.2519 11.8468 18.0612 11.3877C17.7905 10.6771 17.2301 10.2435 16.4675 10.1522C15.3325 10.0165 14.4389 10.6832 14.3109 11.7531C14.1908 12.7579 14.8264 13.5745 15.8203 13.6934C16.4312 13.7664 16.9605 13.5401 17.2655 13.0743L17.2764 13.0756C17.2764 13.0756 17.2908 13.0773 17.2944 13.0778C17.3017 13.0786 17.327 13.0817 17.327 13.0817C17.1843 14.2744 16.6474 14.9325 15.8847 14.8413C15.4365 14.7877 15.1189 14.5004 15.0467 14.0921L14.1178 13.981C14.1708 14.8563 14.8299 15.507 15.7841 15.6211ZM16.1331 12.9792C15.533 12.9074 15.1575 12.4299 15.2289 11.8335C15.2985 11.2516 15.7998 10.8606 16.3818 10.9302C16.9637 10.9998 17.3579 11.5052 17.2874 12.0944C17.2178 12.6763 16.7294 13.0505 16.1331 12.9792Z" fill="#2C312E"/>
<path d="M19.4301 16.0058C19.7735 16.0469 20.0378 15.8292 20.0767 15.5039C20.116 15.175 19.9101 14.9047 19.5667 14.8637C19.2269 14.823 18.9594 15.0367 18.9201 15.3656C18.8812 15.6909 19.0903 15.9652 19.4301 16.0058ZM19.7543 13.295C20.0977 13.336 20.3616 13.122 20.4005 12.7967C20.4398 12.4677 20.2338 12.1975 19.8905 12.1564C19.5507 12.1158 19.2832 12.3294 19.2438 12.6583C19.2049 12.9836 19.4145 13.2543 19.7543 13.295Z" fill="#2C312E"/>
<path d="M23.4008 16.4037L24.2936 16.5105L24.4099 15.5382L25.1147 15.6225L25.2089 14.8345L24.5041 14.7502L24.9174 11.2948L23.6017 11.1374C22.514 12.4152 21.6415 13.4877 21.0683 14.2953L20.9689 15.1267L23.5171 15.4314L23.4008 16.4037ZM21.9309 14.4095C22.666 13.4122 23.3107 12.6204 23.8976 11.9427L23.9483 11.9488L23.6232 14.6669L21.9244 14.4637L21.9309 14.4095Z" fill="#2C312E"/>
<path d="M26.9865 16.8326L27.9191 16.9441L28.5428 11.7284L27.6139 11.6173L26.1371 12.4085L26.0299 13.3049L27.4365 12.5493L27.4979 12.5566L26.9865 16.8326Z" fill="#2C312E"/>
</g>
<defs>
<clipPath id="clip0_276_12134">
<rect width="192.109" height="29.1961" fill="white" transform="translate(3.48028) scale(1.00382) rotate(6.81992)"/>
</clipPath>
</defs>
</svg>
