<svg width="96" height="96" viewBox="0 0 96 96" fill="none" xmlns="http://www.w3.org/2000/svg">
<path d="M30 37.25L24.5 42.75H35.5L30 37.25Z" fill="#E6E6E6"/>
<path d="M33.6999 42.1499H26.3999V58.7499H33.6999V42.1499Z" fill="#E6E6E6"/>
<path d="M42 29.3501L36.5 34.9501H47.5L42 29.3501Z" fill="#3DA647"/>
<path d="M45.6999 34.3501H38.3999V66.6501H45.6999V34.3501Z" fill="#3DA647"/>
<path d="M54 32.8999L48.5 38.3999H59.5L54 32.8999Z" fill="#3DA647"/>
<path d="M57.6 37.8999H50.3V63.0999H57.6V37.8999Z" fill="#3DA647"/>
<path d="M66 24L60.5 29.5H71.5L66 24Z" fill="#3DA647"/>
<path d="M66 24L60.5 29.5H71.5L66 24Z" fill="black" fill-opacity="0.2"/>
<path d="M69.6999 29H62.3999V72H69.6999V29Z" fill="#3DA647"/>
<path d="M69.6999 29H62.3999V72H69.6999V29Z" fill="black" fill-opacity="0.2"/>
</svg>
