<svg width="237" height="61" viewBox="0 0 237 61" fill="none" xmlns="http://www.w3.org/2000/svg">
<rect x="97.4217" y="51.0493" width="0.828671" height="2.48601" rx="0.414063" fill="#F6921E"/>
<rect x="100.873" y="53.6721" width="0.828671" height="2.48601" rx="0.414063" transform="rotate(90 100.873 53.6721)" fill="#F6921E"/>
<rect x="97.4217" y="54.6415" width="0.828671" height="2.48601" rx="0.414063" fill="#F6921E"/>
<rect x="97.2848" y="53.6721" width="0.828671" height="2.48601" rx="0.414063" transform="rotate(90 97.2848 53.6721)" fill="#F6921E"/>
<g clip-path="url(#clip0_276_14174)">
<rect x="-0.151923" y="0.151923" width="19.1297" height="19.1297" rx="9.56485" transform="matrix(-1.00066 0 0 1.00066 33.7263 34.0341)" stroke="#F4F4F4" stroke-width="0.303646"/>
<path d="M25.5227 41.3241L23.0919 43.7549L25.5227 46.1857" stroke="white" stroke-width="0.910938"/>
</g>
<rect x="-0.151923" y="0.151923" width="19.1297" height="19.1297" rx="9.56485" transform="matrix(-1.00066 0 0 1.00066 33.7263 34.0341)" stroke="#F4F4F4" stroke-width="0.303646"/>
<path opacity="0.35" d="M214.514 10.8382H224.643C225.37 10.8383 225.959 11.4275 225.96 12.1545V15.8014C225.959 16.5283 225.37 17.1176 224.643 17.1177H214.514C213.788 17.1176 213.198 16.5283 213.198 15.8014V12.1545C213.198 11.4276 213.788 10.8384 214.514 10.8382Z" stroke="#F4F4F4" stroke-width="0.607292"/>
<path opacity="0.4" d="M226.87 12.7623V15.1931C227.359 14.9872 227.677 14.5083 227.677 13.9777C227.677 13.4471 227.359 12.9682 226.87 12.7623Z" fill="#F4F4F4"/>
<path d="M214.11 12.5602C214.11 12.1127 214.473 11.7499 214.92 11.7499H224.238C224.686 11.7499 225.048 12.1127 225.048 12.5602V15.3961C225.048 15.8436 224.686 16.2063 224.238 16.2063H214.92C214.473 16.2063 214.11 15.8436 214.11 15.3961V12.5602Z" fill="#F4F4F4"/>
<path fill-rule="evenodd" clip-rule="evenodd" d="M205.197 11.9182C206.544 11.9183 207.839 12.4357 208.815 13.3635C208.888 13.4351 209.006 13.4342 209.078 13.3615L209.78 12.6525C209.817 12.6156 209.838 12.5656 209.837 12.5136C209.837 12.4616 209.816 12.4119 209.779 12.3754C207.217 9.92059 203.176 9.92059 200.615 12.3754C200.578 12.4118 200.557 12.4616 200.556 12.5136C200.556 12.5656 200.576 12.6156 200.613 12.6525L201.316 13.3615C201.388 13.4343 201.506 13.4352 201.579 13.3635C202.555 12.4356 203.85 11.9182 205.197 11.9182ZM205.197 14.2254C205.937 14.2254 206.65 14.5004 207.199 14.997C207.273 15.0674 207.39 15.0659 207.462 14.9935L208.164 14.2845C208.201 14.2474 208.221 14.1969 208.22 14.1445C208.22 14.0921 208.198 14.042 208.161 14.0056C206.491 12.4521 203.904 12.4521 202.234 14.0056C202.197 14.042 202.175 14.0921 202.175 14.1445C202.174 14.197 202.195 14.2474 202.232 14.2845L202.933 14.9935C203.005 15.0659 203.122 15.0674 203.196 14.997C203.745 14.5007 204.457 14.2257 205.197 14.2254ZM206.606 15.78C206.607 15.8325 206.586 15.8832 206.549 15.9201L205.335 17.145C205.3 17.181 205.251 17.2012 205.2 17.2012C205.15 17.2012 205.101 17.181 205.066 17.145L203.852 15.9201C203.814 15.8832 203.794 15.8325 203.795 15.7799C203.796 15.7274 203.819 15.6776 203.858 15.6423C204.633 14.9867 205.768 14.9867 206.543 15.6423C206.582 15.6776 206.605 15.7274 206.606 15.78Z" fill="#F4F4F4"/>
<path fill-rule="evenodd" clip-rule="evenodd" d="M196.89 10.7375H196.282C195.946 10.7375 195.674 11.0096 195.674 11.3452V16.6119C195.674 16.9475 195.946 17.2196 196.282 17.2196H196.89C197.225 17.2196 197.497 16.9475 197.497 16.6119V11.3452C197.497 11.0096 197.225 10.7375 196.89 10.7375ZM193.448 12.1565H194.056C194.391 12.1565 194.663 12.4285 194.663 12.7641V16.6129C194.663 16.9485 194.391 17.2206 194.056 17.2206H193.448C193.112 17.2206 192.84 16.9485 192.84 16.6129V12.7641C192.84 12.4285 193.112 12.1565 193.448 12.1565ZM191.216 13.5714H190.608C190.273 13.5714 190.001 13.8435 190.001 14.1791V16.6099C190.001 16.9455 190.273 17.2176 190.608 17.2176H191.216C191.552 17.2176 191.824 16.9455 191.824 16.6099V14.1791C191.824 13.8435 191.552 13.5714 191.216 13.5714ZM188.382 14.7869H187.774C187.439 14.7869 187.167 15.0589 187.167 15.3946V16.6099C187.167 16.9456 187.439 17.2176 187.774 17.2176H188.382C188.718 17.2176 188.99 16.9456 188.99 16.6099V15.3946C188.99 15.0589 188.718 14.7869 188.382 14.7869Z" fill="#F4F4F4"/>
<path d="M17.8153 17.1752C19.4488 17.1752 20.4191 15.8978 20.4191 13.7347C20.4191 12.9202 20.2633 12.2347 19.9651 11.7051C19.5334 10.8817 18.7901 10.4366 17.8509 10.4366C16.4534 10.4366 15.4653 11.3757 15.4653 12.6932C15.4653 13.9305 16.3554 14.8296 17.5794 14.8296C18.3316 14.8296 18.9414 14.478 19.2441 13.8682H19.2574C19.2574 13.8682 19.2752 13.8682 19.2797 13.8682C19.2886 13.8682 19.3197 13.8682 19.3197 13.8682C19.3197 15.337 18.7634 16.2138 17.8242 16.2138C17.2723 16.2138 16.845 15.9111 16.6982 15.426H15.5543C15.7457 16.4809 16.6403 17.1752 17.8153 17.1752ZM17.8554 13.9172C17.1165 13.9172 16.5913 13.3919 16.5913 12.6576C16.5913 11.941 17.1433 11.3935 17.8598 11.3935C18.5764 11.3935 19.1283 11.9499 19.1283 12.6754C19.1283 13.3919 18.5898 13.9172 17.8554 13.9172Z" fill="#F4F4F4"/>
<path d="M22.2975 17.1129C22.7204 17.1129 23.0097 16.8102 23.0097 16.4096C23.0097 16.0046 22.7204 15.7064 22.2975 15.7064C21.8792 15.7064 21.5854 16.0046 21.5854 16.4096C21.5854 16.8102 21.8792 17.1129 22.2975 17.1129ZM22.2975 13.7747C22.7204 13.7747 23.0097 13.4765 23.0097 13.0759C23.0097 12.6709 22.7204 12.3727 22.2975 12.3727C21.8792 12.3727 21.5854 12.6709 21.5854 13.0759C21.5854 13.4765 21.8792 13.7747 22.2975 13.7747Z" fill="#F4F4F4"/>
<path d="M27.1759 17.0194H28.2752V15.8221H29.1432V14.8518H28.2752V10.5968H26.6551C25.5201 12.3059 24.6166 13.7347 24.038 14.7984V15.8221H27.1759V17.0194ZM25.1018 14.8118C25.8495 13.4943 26.5171 12.4395 27.1314 11.5315H27.1937V14.8785H25.1018V14.8118Z" fill="#F4F4F4"/>
<path d="M31.5913 17.0194H32.7396V10.5968H31.5958L29.9178 11.7718V12.8756L31.5157 11.754H31.5913V17.0194Z" fill="#F4F4F4"/>
<rect x="117.576" y="13.3682" width="1.24336" height="3.73008" rx="0.62127" fill="#F6921E"/>
<rect x="122.755" y="17.3044" width="1.24336" height="3.73008" rx="0.62127" transform="rotate(90 122.755 17.3044)" fill="#F6921E"/>
<rect x="117.576" y="18.7546" width="1.24336" height="3.73008" rx="0.62127" fill="#F6921E"/>
<rect x="117.371" y="17.3044" width="1.24336" height="3.73008" rx="0.62127" transform="rotate(90 117.371 17.3044)" fill="#F6921E"/>
<defs>
<clipPath id="clip0_276_14174">
<rect width="19.4333" height="19.4333" rx="9.71667" transform="matrix(-1.00066 0 0 1.00066 34.0302 34.0342)" fill="white"/>
</clipPath>
</defs>
</svg>
