<svg width="10" height="10" viewBox="0 0 10 10" fill="none" xmlns="http://www.w3.org/2000/svg">
<path d="M1.25345 3.65821C1.23003 3.19303 1.35309 2.73353 1.60211 2.34826L1.66697 2.25353L1.67233 2.24834L1.71737 2.19549L1.76455 2.14154L1.76991 2.13598C1.85997 2.04364 1.95969 1.96243 2.06727 1.89309L2.09765 1.87385L2.12803 1.85601L2.19951 1.81484C2.22846 1.80112 2.25992 1.78481 2.28887 1.77109C2.30995 1.76293 2.33104 1.75217 2.35213 1.74402C2.3918 1.72733 2.43397 1.71101 2.47615 1.69729C2.49044 1.69025 2.50546 1.68468 2.52082 1.68098L2.53789 1.67412L2.55657 1.66726C2.74885 1.60978 2.9465 1.5701 3.14629 1.55193L3.1256 1.55435V1.13993C3.1256 0.973761 3.25964 0.839406 3.42541 0.839406C3.59118 0.839406 3.72559 0.973761 3.72559 1.13993V2.4498C3.72559 2.61597 3.59118 2.7507 3.42541 2.7507C3.25964 2.7507 3.1256 2.61597 3.1256 2.4498L3.12562 2.14697C2.92881 2.16667 2.73556 2.21564 2.55228 2.29321C2.0793 2.50599 1.85373 2.9112 1.83235 3.55336L1.83067 3.65673V3.81804H8.17075V3.65265C8.1829 3.35525 8.12321 3.05933 7.99669 2.79197C7.87517 2.56317 7.68074 2.38554 7.44592 2.28913C7.29638 2.22475 7.13975 2.17984 6.97969 2.15533L6.87554 2.14268L6.87555 2.44829C6.87555 2.61374 6.74131 2.74775 6.57556 2.74775C6.40981 2.74775 6.27556 2.61374 6.27556 2.44829L6.27555 2.12018L3.72851 2.1204V1.52449L6.27555 1.52435L6.27556 1.13816C6.27406 0.972715 6.40756 0.837585 6.57331 0.836455C6.73906 0.835339 6.87443 0.968223 6.87555 1.13367L6.87579 1.55205C7.02136 1.56641 7.16575 1.59181 7.30785 1.62809L7.44914 1.668C7.46058 1.67022 7.46915 1.67319 7.48488 1.67875C7.50061 1.68431 7.51383 1.68988 7.52956 1.69507C7.57137 1.70879 7.61033 1.7251 7.65072 1.74179C7.67395 1.74995 7.69539 1.7607 7.71362 1.76886C7.74507 1.78258 7.77724 1.7989 7.80297 1.81262C7.82942 1.82634 7.8548 1.84154 7.87696 1.85378C7.89912 1.86602 7.91627 1.87974 7.93486 1.89086C8.01581 1.94315 8.09274 2.00211 8.1646 2.06696L8.23472 2.13375L8.23794 2.13932L8.28695 2.19132L8.33301 2.24611L8.33551 2.2513C8.60506 2.62407 8.75004 3.07677 8.75051 3.54058L8.74761 3.65673V3.81804H8.75051V7.04892C8.75051 8.45782 7.96369 9.16965 6.40434 9.16965H3.59323C2.03746 9.16965 1.25063 8.45782 1.25063 7.04892V3.81804H1.25345V3.65821ZM6.71549 6.7723C6.52236 6.7723 6.36858 6.9309 6.36858 7.12637C6.37215 7.32185 6.52594 7.48044 6.71549 7.48044C6.90505 7.48044 7.05884 7.32185 7.05884 7.12637C7.05884 6.9309 6.90505 6.7723 6.71549 6.7723ZM5.00236 6.76862C4.80923 6.7723 4.65544 6.9309 4.65544 7.12637C4.65544 7.32185 4.81281 7.48044 5.00236 7.48044C5.19191 7.48044 5.3457 7.32185 5.3457 7.12268C5.34213 6.9309 5.19191 6.7723 5.00236 6.76862ZM3.28565 6.76862C3.09252 6.76862 2.93873 6.9309 2.94231 7.12637C2.94231 7.32185 3.0961 7.48044 3.28565 7.48044C3.4752 7.48044 3.62899 7.31816 3.62899 7.12268C3.62899 6.92721 3.4752 6.76862 3.28565 6.76862ZM6.71549 5.26013C6.52236 5.26013 6.37215 5.41873 6.37215 5.6142C6.37215 5.80968 6.52594 5.96827 6.71549 5.96827C6.90505 5.96827 7.05884 5.80968 7.05884 5.6142C7.05884 5.41873 6.90505 5.26013 6.71549 5.26013ZM5.00236 5.25644C4.80923 5.26013 4.65544 5.41873 4.65544 5.6142C4.65544 5.80968 4.81281 5.96827 5.00236 5.96827C5.19191 5.96827 5.3457 5.80968 5.3457 5.61051C5.3457 5.41873 5.19191 5.26013 5.00236 5.25644ZM3.28923 5.25644C3.0961 5.25644 2.94231 5.41873 2.94231 5.6142C2.94231 5.80968 3.0961 5.96827 3.28565 5.96827C3.47878 5.96827 3.63257 5.80599 3.62899 5.61051C3.62899 5.41504 3.4752 5.25644 3.28923 5.25644Z" fill="#667085"/>
</svg>
