<svg width="299" height="29" viewBox="0 0 299 29" fill="none" xmlns="http://www.w3.org/2000/svg">
<g clip-path="url(#clip0_276_11679)">
<g opacity="0.6" clip-path="url(#clip1_276_11679)">
<path fill-rule="evenodd" clip-rule="evenodd" d="M331.932 10.9475C335.732 6.32874 340.456 0.584085 349.693 0.584085C349.777 0.584085 349.86 0.586522 349.944 0.59133C350.027 0.586522 350.111 0.584085 350.194 0.584085C359.427 0.584085 364.147 6.33288 367.942 10.9547L367.944 10.9571C371.687 15.5209 374.048 18.1019 378.959 18.1019C383.87 18.1019 386.23 15.5209 389.973 10.9571L389.975 10.955C393.77 6.3354 398.494 0.584085 407.726 0.584085C416.952 0.584085 421.672 6.3349 425.462 10.9571C429.206 15.5209 431.563 18.1019 436.469 18.1019C441.374 18.1019 443.735 15.5209 447.478 10.9571L447.486 10.9484C451.28 6.32989 456 0.584085 465.224 0.584085C474.457 0.584085 479.18 6.33528 482.976 10.9549L482.977 10.9571C486.721 15.5209 489.081 18.1019 493.992 18.1019C498.908 18.1019 501.268 15.5187 505.011 10.9549C508.807 6.3349 513.53 0.584085 522.761 0.584085C531.993 0.584085 536.717 6.33542 540.512 10.9551L540.514 10.9571C544.257 15.5209 546.617 18.1019 551.528 18.1019C556.443 18.1019 558.803 15.5187 562.556 10.9549C566.346 6.3349 571.072 0.584085 580.306 0.584085C589.536 0.584085 594.257 6.33279 598.052 10.9546L598.054 10.9571C601.799 15.5209 604.159 18.1019 609.068 18.1019C613.984 18.1019 616.345 15.5209 620.093 10.9571L620.095 10.9532C623.895 6.33162 628.619 0.584085 637.854 0.584085C647.096 0.584085 651.825 6.3349 655.62 10.9549C659.374 15.5187 661.737 18.1019 666.657 18.1019C671.581 18.1019 673.945 15.5187 677.698 10.9549L677.703 10.9475C681.503 6.32877 686.227 0.584085 695.464 0.584085C695.548 0.584085 695.631 0.586522 695.715 0.59133C695.798 0.586522 695.882 0.584085 695.965 0.584085C705.198 0.584085 709.918 6.33294 713.713 10.9548L713.715 10.9571C717.458 15.5209 719.819 18.1019 724.73 18.1019C729.64 18.1019 732.001 15.5209 735.744 10.9571L735.746 10.9551C739.541 6.33542 744.265 0.584085 753.497 0.584085C762.723 0.584085 767.443 6.3349 771.233 10.9571C774.977 15.5209 777.334 18.1019 782.239 18.1019C787.145 18.1019 789.506 15.5209 793.249 10.9571L793.257 10.9484C797.051 6.32989 801.771 0.584085 810.995 0.584085C820.227 0.584085 824.951 6.33528 828.746 10.9549L828.748 10.9571C832.491 15.5209 834.852 18.1019 839.763 18.1019C844.679 18.1019 847.039 15.5187 850.782 10.9549C854.577 6.3349 859.301 0.584085 868.532 0.584085C877.762 0.584085 882.488 6.33537 886.283 10.955L886.285 10.9571C890.028 15.5209 892.388 18.1019 897.299 18.1019C902.214 18.1019 904.574 15.5187 908.327 10.9549C912.117 6.3349 916.843 0.584085 926.077 0.584085C935.307 0.584085 940.028 6.33266 943.823 10.9544L943.825 10.9571C947.57 15.5209 949.93 18.1019 954.839 18.1019C959.755 18.1019 962.116 15.5209 965.864 10.9571L965.867 10.953C969.666 6.33149 974.391 0.584085 983.625 0.584085C992.867 0.584085 997.596 6.3349 1001.39 10.9549C1005.14 15.5187 1007.51 18.1019 1012.43 18.1019C1017.35 18.1019 1019.72 15.5187 1023.47 10.9549L1023.47 10.9475C1026.97 6.69498 1031.25 1.48793 1039.12 0.688992C1039.43 0.620279 1039.74 0.584085 1040.07 0.584085C1040.26 0.584085 1040.46 0.586699 1040.65 0.591859C1040.84 0.586699 1041.04 0.584085 1041.24 0.584085C1041.56 0.584085 1041.88 0.620408 1042.18 0.689356C1050.04 1.48983 1054.32 6.69989 1057.81 10.9548L1057.82 10.9571C1061.56 15.5209 1063.92 18.1019 1068.83 18.1019C1073.74 18.1019 1076.1 15.5209 1079.84 10.9571L1079.85 10.9548C1083.64 6.3352 1088.37 0.584085 1097.6 0.584085C1106.82 0.584085 1111.54 6.3349 1115.33 10.9571C1119.08 15.5209 1121.43 18.1019 1126.34 18.1019C1131.25 18.1019 1133.61 15.5209 1137.35 10.9571L1137.36 10.9486C1141.15 6.33004 1145.87 0.584085 1155.1 0.584085C1164.33 0.584085 1169.05 6.33537 1172.85 10.955L1172.85 10.9571C1176.59 15.5209 1178.95 18.1019 1183.86 18.1019C1188.78 18.1019 1191.14 15.5187 1194.88 10.9549C1198.68 6.3349 1203.4 0.584085 1212.63 0.584085C1221.86 0.584085 1226.59 6.33537 1230.38 10.955L1230.39 10.9571C1234.13 15.5209 1236.49 18.1019 1241.4 18.1019C1246.31 18.1019 1248.67 15.5187 1252.43 10.9549C1256.22 6.3349 1260.94 0.584085 1270.18 0.584085C1279.41 0.584085 1284.13 6.33294 1287.92 10.9548L1287.93 10.9571C1291.67 15.5209 1294.03 18.1019 1298.94 18.1019C1303.86 18.1019 1306.22 15.5209 1309.96 10.9571L1309.97 10.953C1313.77 6.33149 1318.49 0.584085 1327.73 0.584085C1336.97 0.584085 1341.7 6.3349 1345.49 10.9549C1349.25 15.5187 1351.61 18.1019 1356.53 18.1019C1361.45 18.1019 1363.82 15.5187 1367.57 10.9549L1367.57 10.9475C1371.37 6.32878 1376.1 0.584085 1385.34 0.584085C1387.78 0.584085 1389.76 2.64566 1389.76 5.18834C1389.76 7.73103 1387.78 9.79259 1385.34 9.79259C1380.41 9.79259 1378.05 12.3757 1374.3 16.9396L1374.29 16.9471C1370.49 21.5658 1365.77 27.3104 1356.53 27.3104C1347.29 27.3104 1342.56 21.5596 1338.77 16.9396C1335.01 12.3757 1332.65 9.79259 1327.73 9.79259C1322.81 9.79259 1320.45 12.3757 1316.69 16.9396C1312.9 21.5596 1308.17 27.3104 1298.94 27.3104C1289.71 27.3104 1284.99 21.5614 1281.19 16.9396L1281.19 16.9373C1277.45 12.3735 1275.09 9.79259 1270.18 9.79259C1265.26 9.79259 1262.91 12.3735 1259.16 16.9373L1259.15 16.9478C1255.35 21.5683 1250.63 27.3104 1241.4 27.3104C1232.17 27.3104 1227.45 21.5596 1223.65 16.9396C1219.91 12.3757 1217.55 9.79259 1212.63 9.79259C1207.72 9.79259 1205.36 12.3735 1201.62 16.9373L1201.62 16.9394C1197.82 21.5591 1193.1 27.3104 1183.86 27.3104C1174.63 27.3104 1169.91 21.5596 1166.11 16.9396C1162.37 12.3757 1160.01 9.79259 1155.1 9.79259C1150.19 9.79259 1147.83 12.3735 1144.08 16.9373L1144.08 16.9458C1140.28 21.5644 1135.56 27.3104 1126.34 27.3104C1117.11 27.3104 1112.39 21.5572 1108.6 16.9351C1104.86 12.3735 1102.5 9.79259 1097.6 9.79259C1092.68 9.79259 1090.32 12.3757 1086.58 16.9396C1082.78 21.5596 1078.06 27.3104 1068.83 27.3104C1059.6 27.3104 1054.88 21.5614 1051.08 16.9396L1051.08 16.9373C1047.49 12.5582 1045.17 10.0048 1040.65 9.80524C1036.12 10.0049 1033.8 12.5604 1030.2 16.9396L1030.19 16.9471C1026.39 21.5658 1021.66 27.3104 1012.43 27.3104C1003.19 27.3104 998.462 21.5596 994.666 16.9396C990.913 12.3757 988.549 9.79259 983.625 9.79259C978.706 9.79259 976.346 12.3757 972.594 16.9396C968.799 21.5596 964.073 27.3104 954.839 27.3104C945.609 27.3104 940.888 21.5614 937.093 16.9396L937.091 16.9373C933.346 12.3735 930.986 9.79259 926.077 9.79259C921.161 9.79259 918.806 12.3735 915.057 16.9373L915.049 16.9478C911.25 21.5683 906.53 27.3104 897.299 27.3104C888.07 27.3104 883.345 21.5596 879.55 16.9396C875.806 12.3757 873.446 9.79259 868.532 9.79259C863.621 9.79259 861.261 12.3735 857.517 16.9373L857.516 16.9393C853.721 21.5589 848.995 27.3104 839.763 27.3104C830.534 27.3104 825.808 21.5596 822.013 16.9396C818.27 12.3757 815.909 9.79259 810.995 9.79259C806.089 9.79259 803.729 12.3735 799.984 16.9373L799.977 16.946C796.184 21.5646 791.463 27.3104 782.239 27.3104C773.011 27.3104 768.29 21.5572 764.498 16.9351C760.755 12.3735 758.4 9.79259 753.497 9.79259C748.583 9.79259 746.222 12.3757 742.479 16.9396C738.684 21.5596 733.958 27.3104 724.73 27.3104C715.497 27.3104 710.777 21.5614 706.982 16.9396L706.98 16.9373C703.237 12.3735 700.876 9.79259 695.965 9.79259C695.882 9.79259 695.798 9.79015 695.715 9.78534C695.631 9.79015 695.548 9.79259 695.464 9.79259C690.54 9.79259 688.176 12.3757 684.425 16.9396L684.418 16.947C680.62 21.5656 675.894 27.3104 666.657 27.3104C657.419 27.3104 652.691 21.5596 648.895 16.9396C645.142 12.3757 642.778 9.79259 637.854 9.79259C632.935 9.79259 630.575 12.3757 626.823 16.9396C623.028 21.5596 618.302 27.3104 609.068 27.3104C599.838 27.3104 595.117 21.5616 591.322 16.9398L591.32 16.9373C587.575 12.3735 585.215 9.79259 580.306 9.79259C575.39 9.79259 573.035 12.3735 569.286 16.9373L569.278 16.9478C565.48 21.5681 560.759 27.3104 551.528 27.3104C542.299 27.3104 537.574 21.5596 533.779 16.9396C530.035 12.3757 527.675 9.79259 522.761 9.79259C517.85 9.79259 515.49 12.3735 511.746 16.9373L511.745 16.9394C507.95 21.5591 503.224 27.3104 493.992 27.3104C484.763 27.3104 480.037 21.5596 476.242 16.9396C472.499 12.3757 470.139 9.79259 465.224 9.79259C460.318 9.79259 457.958 12.3735 454.213 16.9373L454.206 16.946C450.413 21.5646 445.692 27.3104 436.469 27.3104C427.24 27.3104 422.519 21.5572 418.727 16.9351C414.984 12.3735 412.629 9.79259 407.726 9.79259C402.812 9.79259 400.452 12.3757 396.708 16.9396C392.913 21.5596 388.188 27.3104 378.959 27.3104C369.726 27.3104 365.006 21.5616 361.211 16.9398L361.209 16.9373C357.466 12.3735 355.105 9.79259 350.194 9.79259C350.111 9.79259 350.027 9.79015 349.944 9.78534C349.86 9.79015 349.777 9.79259 349.693 9.79259C344.769 9.79259 342.405 12.3757 338.654 16.9396L338.647 16.947C334.849 21.5658 330.123 27.3104 320.886 27.3104C311.649 27.3104 306.92 21.5596 303.125 16.9396C299.371 12.3757 297.008 9.79259 292.083 9.79259C287.164 9.79259 284.804 12.3757 281.052 16.9396C277.257 21.5596 272.531 27.3104 263.297 27.3104C254.067 27.3104 249.346 21.5616 245.551 16.9398L245.55 16.9373C241.805 12.3735 239.444 9.79259 234.535 9.79259C229.619 9.79259 227.264 12.3735 223.515 16.9373L223.507 16.9478C219.709 21.5683 214.988 27.3104 205.757 27.3104C196.529 27.3104 191.803 21.5596 188.008 16.9396C184.265 12.3757 181.904 9.79259 176.99 9.79259C172.079 9.79259 169.719 12.3735 165.975 16.9373L165.973 16.9394C162.178 21.5591 157.453 27.3104 148.221 27.3104C138.992 27.3104 134.267 21.5596 130.472 16.9396C126.728 12.3757 124.368 9.79259 119.453 9.79259C114.547 9.79259 112.186 12.3735 108.443 16.9373L108.436 16.946C104.642 21.5644 99.9212 27.3104 90.6978 27.3104C81.4687 27.3104 76.7482 21.5572 72.9571 16.9351C69.2136 12.3735 66.8576 9.79259 61.9555 9.79259C57.0406 9.79259 54.6803 12.3757 50.9368 16.9396C47.1413 21.5596 42.4166 27.3104 33.1874 27.3104C23.9557 27.3104 19.2351 21.5616 15.4401 16.9398L15.4381 16.9373C11.6945 12.3735 9.33429 9.79259 4.42361 9.79259C1.9769 9.79259 -0.00293019 7.73103 -0.00293019 5.18834C-0.00293019 2.64566 1.9769 0.584085 4.42361 0.584085C13.6555 0.584085 18.3759 6.33289 22.171 10.9547L22.173 10.9571C25.9165 15.5209 28.2768 18.1019 33.1874 18.1019C38.0982 18.1019 40.4584 15.5209 44.202 10.9571L44.2036 10.955C47.9988 6.33535 52.7236 0.584085 61.9555 0.584085C71.1804 0.584085 75.901 6.3349 79.6921 10.9571C83.4356 15.5209 85.7915 18.1019 90.6978 18.1019C95.6042 18.1019 97.9645 15.5209 101.708 10.9571L101.715 10.9485C105.509 6.32999 110.23 0.584085 119.453 0.584085C128.685 0.584085 133.41 6.33535 137.205 10.955L137.207 10.9571C140.95 15.5209 143.31 18.1019 148.221 18.1019C153.136 18.1019 155.496 15.5187 159.24 10.9549C163.035 6.3349 167.759 0.584085 176.99 0.584085C186.221 0.584085 190.946 6.33533 194.741 10.9549L194.743 10.9571C198.486 15.5209 200.847 18.1019 205.757 18.1019C210.672 18.1019 213.032 15.5187 216.785 10.9549C220.576 6.3349 225.301 0.584085 234.535 0.584085C243.766 0.584085 248.486 6.33288 252.281 10.9547L252.283 10.9571C256.028 15.5209 258.388 18.1019 263.297 18.1019C268.213 18.1019 270.574 15.5209 274.322 10.9571L274.325 10.9531C278.124 6.33156 282.848 0.584085 292.083 0.584085C301.326 0.584085 306.054 6.3349 309.85 10.9549C313.603 15.5187 315.967 18.1019 320.886 18.1019C325.81 18.1019 328.174 15.5187 331.927 10.9549L331.932 10.9475Z" fill="#667085" fill-opacity="0.24"/>
</g>
</g>
<defs>
<clipPath id="clip0_276_11679">
<rect width="298.948" height="28.3918" fill="white"/>
</clipPath>
<clipPath id="clip1_276_11679">
<rect width="1389.53" height="28.3918" fill="white" transform="translate(-0.000976731)"/>
</clipPath>
</defs>
</svg>
