<svg width="7" height="6" viewBox="0 0 7 6" fill="none" xmlns="http://www.w3.org/2000/svg">
<path d="M6.19534 0.139959C6.23877 0.095646 6.29061 0.060443 6.34781 0.0364108C6.40501 0.0123785 6.46644 0 6.52848 0C6.59053 0 6.65195 0.0123785 6.70915 0.0364108C6.76636 0.060443 6.81819 0.095646 6.86162 0.139959C7.04362 0.323869 7.04617 0.621052 6.86798 0.808144L3.10515 5.25635C3.06243 5.30326 3.01058 5.34097 2.95279 5.36715C2.89499 5.39334 2.83246 5.40746 2.76902 5.40866C2.70558 5.40985 2.64257 5.39808 2.58383 5.37408C2.52509 5.35008 2.47187 5.31435 2.42742 5.26908L0.137768 2.94888C0.0494642 2.85883 0 2.73773 0 2.61161C0 2.48548 0.0494642 2.36439 0.137768 2.27433C0.181198 2.23002 0.233031 2.19482 0.290234 2.17079C0.347437 2.14675 0.40886 2.13437 0.470906 2.13437C0.532952 2.13437 0.594375 2.14675 0.651578 2.17079C0.708781 2.19482 0.760615 2.23002 0.804044 2.27433L2.74624 4.24262L6.18262 0.153959C6.18657 0.149041 6.19082 0.144366 6.19534 0.139959Z" fill="#667085"/>
</svg>
