<svg width="10" height="10" viewBox="0 0 10 10" fill="none" xmlns="http://www.w3.org/2000/svg">
<path d="M1.25652 4.71093C1.18174 3.97444 1.75983 3.33467 2.50011 3.33467H7.50001C8.24028 3.33467 8.81838 3.97444 8.74359 4.71093L8.44745 7.62756C8.38265 8.26573 7.84531 8.75127 7.20386 8.75127H2.79626C2.15481 8.75127 1.61747 8.26573 1.55267 7.62756L1.25652 4.71093Z" fill="#228821"/>
<path fill-rule="evenodd" clip-rule="evenodd" d="M3.33492 2.9169C3.33492 1.99643 4.08111 1.25025 5.00157 1.25025C5.92203 1.25025 6.66821 1.99643 6.66821 2.9169V4.16688C6.66821 4.39699 6.48167 4.58354 6.25155 4.58354C6.02144 4.58354 5.83489 4.39699 5.83489 4.16688V2.9169C5.83489 2.45666 5.4618 2.08357 5.00157 2.08357C4.54134 2.08357 4.16825 2.45666 4.16825 2.9169V4.16688C4.16825 4.39699 3.9817 4.58354 3.75159 4.58354C3.52147 4.58354 3.33492 4.39699 3.33492 4.16688V2.9169Z" fill="#82EE8F"/>
</svg>
