<svg width="13" height="8" viewBox="0 0 13 8" fill="none" xmlns="http://www.w3.org/2000/svg">
<path d="M9.0875 0.143891C9.01852 0.0892854 8.93942 0.0488794 8.85475 0.025005C8.77008 0.00113051 8.68152 -0.00573977 8.59418 0.00479044C8.50684 0.0153206 8.42245 0.043043 8.34589 0.0863576C8.26932 0.129672 8.20208 0.187721 8.14807 0.257155L3.48423 6.25351L1.19896 3.46854C1.14535 3.39718 1.07796 3.33733 1.00078 3.29252C0.923594 3.24771 0.838196 3.21886 0.749652 3.20769C0.661108 3.19652 0.571223 3.20326 0.48533 3.22749C0.399438 3.25173 0.319291 3.29297 0.249645 3.34878C0.179999 3.40458 0.122275 3.47381 0.0798987 3.55236C0.0375224 3.6309 0.0113577 3.71716 0.00295775 3.80601C-0.00544219 3.89486 0.00409394 3.98449 0.0309999 4.06958C0.0579058 4.15467 0.101633 4.2335 0.159587 4.30136L2.9379 7.7526C3.00061 7.8299 3.07984 7.89217 3.16977 7.93483C3.2597 7.97749 3.35805 7.99946 3.45758 7.99912C3.56324 8.00384 3.6685 7.98333 3.76466 7.93931C3.86082 7.89528 3.94511 7.829 4.01058 7.74594L9.22741 1.08332C9.2806 1.01271 9.3192 0.932229 9.34097 0.846555C9.36275 0.760881 9.36726 0.671731 9.35423 0.584298C9.34121 0.496865 9.31092 0.412897 9.26513 0.337286C9.21933 0.261676 9.15895 0.195934 9.0875 0.143891ZM12.4188 0.143891C12.3498 0.0892854 12.2707 0.0488794 12.1861 0.025005C12.1014 0.00113051 12.0128 -0.00573977 11.9255 0.00479044C11.8382 0.0153206 11.7538 0.043043 11.6772 0.0863576C11.6006 0.129672 11.5334 0.187721 11.4794 0.257155L6.81554 6.25351L6.40912 5.75382L5.56963 6.83316L6.30252 7.74594C6.36523 7.82324 6.44446 7.88551 6.53439 7.92817C6.62432 7.97082 6.72267 7.99279 6.82221 7.99245C6.92228 7.99199 7.02097 7.96899 7.11094 7.92516C7.2009 7.88133 7.27984 7.8178 7.34189 7.73928L12.5587 1.07666C12.6109 1.00626 12.6486 0.926264 12.6698 0.841256C12.691 0.756248 12.6952 0.667895 12.6822 0.581255C12.6692 0.494614 12.6393 0.411388 12.5941 0.336339C12.5489 0.26129 12.4893 0.195893 12.4188 0.143891Z" fill="#228821"/>
<path d="M3.81865 4.70915L4.67813 3.6298L4.54487 3.4699C4.49227 3.39702 4.42547 3.33554 4.34849 3.28916C4.27151 3.24278 4.18593 3.21245 4.09693 3.2C4.00792 3.18755 3.91731 3.19324 3.83055 3.21672C3.7438 3.24021 3.66269 3.281 3.59212 3.33665C3.52368 3.39163 3.46677 3.45959 3.42468 3.53664C3.38259 3.61368 3.35614 3.69829 3.34686 3.78558C3.33757 3.87288 3.34563 3.96116 3.37057 4.04533C3.39551 4.12951 3.43684 4.20792 3.49218 4.27607L3.81865 4.70915Z" fill="#228821"/>
</svg>
