<svg width="263" height="535" viewBox="0 0 263 535" fill="none" xmlns="http://www.w3.org/2000/svg">
<path d="M260.744 137.133H261.675C262.189 137.133 262.606 137.552 262.606 138.068V199.154C262.606 199.67 262.189 200.089 261.675 200.089H260.744V137.133Z" fill="#303030"/>
<path d="M1.86287 213.177L0.931649 213.177C0.41735 213.177 0.000429069 212.758 0.000429114 212.242L0.000432316 175.466C0.000432361 174.95 0.417354 174.531 0.931653 174.531L1.86288 174.531L1.86287 213.177Z" fill="#303030"/>
<path d="M1.86287 162.064L0.931649 162.064C0.41735 162.064 0.000429069 161.646 0.000429114 161.129L0.000432316 124.353C0.000432361 123.837 0.417354 123.418 0.931653 123.418L1.86288 123.418L1.86287 162.064Z" fill="#333333"/>
<path d="M1.86287 104.72L0.931652 104.72C0.417353 104.72 0.000431575 104.301 0.00043162 103.785L0.000433193 85.7085C0.000433238 85.1921 0.417355 84.7735 0.931654 84.7735L1.86288 84.7735L1.86287 104.72Z" fill="#333333"/>
<path fill-rule="evenodd" clip-rule="evenodd" d="M3.83789 27.9957C1.86287 34.0987 1.86287 41.6399 1.86287 56.7221V478.087C1.86287 493.169 1.86287 500.71 3.83789 506.813C7.82951 519.148 17.4611 528.818 29.746 532.826C35.8245 534.809 43.3353 534.809 58.3569 534.809H204.248C219.27 534.809 226.781 534.809 232.859 532.826C245.144 528.818 254.776 519.148 258.767 506.813C260.742 500.71 260.742 493.169 260.742 478.087V56.7221C260.742 41.6399 260.742 34.0987 258.767 27.9957C254.776 15.6612 245.144 5.99072 232.859 1.98298C226.781 0 219.27 0 204.248 0H58.3569C43.3353 0 35.8245 0 29.746 1.98298C17.4611 5.99072 7.82951 15.6612 3.83789 27.9957ZM67.6696 15.2714V18.0763L67.714 18.0749L67.6694 18.3879C67.6694 25.7893 73.6453 31.7893 81.0169 31.7893H181.589C188.96 31.7893 194.936 25.7893 194.936 18.3879L194.892 18.0749L194.936 18.0763V15.2714C194.936 13.378 196.465 11.8431 198.351 11.8431L206.347 11.8431C218.847 11.8431 225.098 11.8431 230.083 13.7343C237.918 16.7069 244.103 22.9169 247.063 30.7837C248.947 35.7887 248.947 42.0642 248.947 54.6153V480.193C248.947 492.744 248.947 499.02 247.063 504.025C244.103 511.892 237.918 518.102 230.083 521.074C225.098 522.966 218.847 522.966 206.347 522.966H56.2589C43.7583 522.966 37.508 522.966 32.5231 521.074C24.6879 518.102 18.5029 511.892 15.5423 504.025C13.6586 499.02 13.6586 492.744 13.6586 480.193V54.6153C13.6586 42.0642 13.6586 35.7887 15.5423 30.7837C18.5029 22.9169 24.6879 16.7069 32.5231 13.7343C37.508 11.8431 43.7583 11.8431 56.2589 11.8431L64.2552 11.8431C66.1409 11.8431 67.6696 13.378 67.6696 15.2714Z" fill="#333333"/>
<path fill-rule="evenodd" clip-rule="evenodd" d="M204.495 1.24493H58.1075C43.2686 1.24493 35.9964 1.25262 30.1286 3.1669C18.2216 7.05132 8.88639 16.4242 5.01759 28.3793C3.111 34.2708 3.10334 41.5723 3.10334 56.4711V478.334C3.10334 493.233 3.111 500.534 5.01759 506.426C8.88639 518.381 18.2216 527.754 30.1286 531.638C35.9964 533.553 43.2686 533.56 58.1075 533.56H204.495C219.334 533.56 226.606 533.553 232.474 531.638C244.381 527.754 253.716 518.381 257.585 506.426C259.492 500.534 259.5 493.233 259.5 478.334V56.4711C259.5 41.5723 259.492 34.2708 257.585 28.3793C253.716 16.4242 244.381 7.05132 232.474 3.1669C226.606 1.25262 219.334 1.24493 204.495 1.24493ZM4.42716 28.1866C2.48253 34.1957 2.48253 41.6209 2.48253 56.4711V478.334C2.48253 493.184 2.48253 500.61 4.42716 506.619C8.35737 518.763 17.8408 528.285 29.9367 532.231C35.9217 534.184 43.3169 534.184 58.1075 534.184H204.495C219.286 534.184 226.681 534.184 232.666 532.231C244.762 528.285 254.245 518.763 258.176 506.619C260.12 500.61 260.12 493.184 260.12 478.334V56.4711C260.12 41.6209 260.12 34.1957 258.176 28.1866C254.245 16.0419 244.762 6.52017 232.666 2.57409C226.681 0.62161 219.286 0.62161 204.495 0.62161H58.1075C43.3169 0.62161 35.9217 0.62161 29.9367 2.57409C17.8408 6.52017 8.35737 16.0419 4.42716 28.1866Z" fill="#303030"/>
<path fill-rule="evenodd" clip-rule="evenodd" d="M6.79205 28.9581C4.96897 34.5916 4.96897 41.5527 4.96897 55.4748V479.332C4.96897 493.255 4.96897 500.216 6.79205 505.849C10.4766 517.235 19.3673 526.161 30.7073 529.861C36.3182 531.691 43.2512 531.691 57.1173 531.691H205.492C219.358 531.691 226.291 531.691 231.902 529.861C243.242 526.161 252.133 517.235 255.817 505.849C257.64 500.216 257.64 493.255 257.64 479.332V55.4748C257.64 41.5527 257.64 34.5916 255.817 28.9581C252.133 17.5723 243.242 8.64577 231.902 4.94631C226.291 3.11587 219.358 3.11587 205.492 3.11587H57.1173C43.2512 3.11587 36.3182 3.11587 30.7073 4.94631C19.3673 8.64577 10.4766 17.5723 6.79205 28.9581ZM67.671 15.2706V18.0756L67.7153 18.0742L67.6707 18.3872C67.6707 25.7886 73.6466 31.7886 81.0182 31.7886H181.59C188.962 31.7886 194.938 25.7886 194.938 18.3872L194.893 18.0742L194.937 18.0756V15.2706C194.937 13.3772 196.466 11.8424 198.352 11.8424L206.348 11.8423C218.849 11.8423 225.099 11.8423 230.084 13.7336C237.919 16.7062 244.104 22.9162 247.065 30.783C248.948 35.788 248.948 42.0635 248.948 54.6146V480.193C248.948 492.744 248.948 499.019 247.065 504.024C244.104 511.891 237.919 518.101 230.084 521.074C225.099 522.965 218.849 522.965 206.348 522.965H56.2602C43.7596 522.965 37.5093 522.965 32.5244 521.074C24.6892 518.101 18.5042 511.891 15.5436 504.024C13.6599 499.019 13.6599 492.744 13.6599 480.193V54.6145C13.6599 42.0635 13.6599 35.788 15.5436 30.783C18.5042 22.9162 24.6892 16.7062 32.5244 13.7336C37.5093 11.8423 43.7596 11.8423 56.2602 11.8423L64.2565 11.8424C66.1422 11.8424 67.671 13.3772 67.671 15.2706Z" fill="#121515"/>
<rect x="205.491" width="3.72487" height="3.1166" fill="#414141"/>
<rect x="257.64" y="53.607" width="3.10411" height="3.73992" fill="#414141"/>
<rect x="1.86483" y="53.607" width="3.10407" height="3.73992" fill="#414141"/>
<rect x="1.86483" y="477.463" width="3.10407" height="3.73991" fill="#414141"/>
<rect x="257.64" y="477.463" width="3.10411" height="3.73991" fill="#414141"/>
<rect x="53.392" y="531.691" width="3.72489" height="3.11659" fill="#414141"/>
<path fill-rule="evenodd" clip-rule="evenodd" d="M157.687 24.9348C160.43 24.9348 162.654 22.7022 162.654 19.9482C162.654 17.1942 160.43 14.9616 157.687 14.9616C154.944 14.9616 152.72 17.1942 152.72 19.9482C152.72 22.7022 154.944 24.9348 157.687 24.9348Z" fill="#262C2D"/>
<path fill-rule="evenodd" clip-rule="evenodd" d="M157.687 23.0636C159.402 23.0636 160.791 21.6682 160.791 19.947C160.791 18.2257 159.402 16.8304 157.687 16.8304C155.973 16.8304 154.583 18.2257 154.583 19.947C154.583 21.6682 155.973 23.0636 157.687 23.0636Z" fill="#121515"/>
<path opacity="0.4" fill-rule="evenodd" clip-rule="evenodd" d="M157.687 19.3247C158.03 19.3247 158.308 19.0455 158.308 18.7011C158.308 18.3567 158.03 18.0775 157.687 18.0775C157.344 18.0775 157.066 18.3567 157.066 18.7011C157.066 19.0455 157.344 19.3247 157.687 19.3247Z" fill="#636F73"/>
<path fill-rule="evenodd" clip-rule="evenodd" d="M116.092 19.9436C116.092 18.9108 116.93 18.0736 117.962 18.0736H144.642C145.675 18.0736 146.512 18.9108 146.512 19.9436C146.512 20.9763 145.675 21.8135 144.642 21.8135H117.962C116.93 21.8135 116.092 20.9763 116.092 19.9436Z" fill="#262C2D"/>
</svg>
