<svg width="24" height="24" viewBox="0 0 24 24" fill="none" xmlns="http://www.w3.org/2000/svg">
<rect width="24" height="24" rx="11.6692" fill="#F1F9F4"/>
<path d="M9.49782 7.49871C8.6694 7.49871 7.99782 8.17029 7.99782 8.99871V15.4987C7.99782 16.3271 8.6694 16.9987 9.49782 16.9987H14.4978C15.3262 16.9987 15.9978 16.3271 15.9978 15.4987V8.99871C15.9978 8.17029 15.3262 7.49871 14.4978 7.49871H9.49782Z" fill="#228821"/>
<path fill-rule="evenodd" clip-rule="evenodd" d="M10.5013 11.4996C10.2252 11.4996 10.0013 11.7235 10.0013 11.9996C10.0013 12.2758 10.2252 12.4996 10.5013 12.4996H13.5013C13.7774 12.4996 14.0013 12.2758 14.0013 11.9996C14.0013 11.7235 13.7774 11.4996 13.5013 11.4996H10.5013ZM10.5013 13.4996C10.2252 13.4996 10.0013 13.7235 10.0013 13.9996C10.0013 14.2758 10.2252 14.4996 10.5013 14.4996H12.5013C12.7774 14.4996 13.0013 14.2758 13.0013 13.9996C13.0013 13.7235 12.7774 13.4996 12.5013 13.4996H10.5013Z" fill="#82EE8F"/>
<path d="M10.4994 7.50462C10.4994 7.22848 10.7233 7.00462 10.9994 7.00462H12.9994C13.2755 7.00462 13.4994 7.22848 13.4994 7.50462V8.00462C13.4994 8.28076 13.2755 8.50462 12.9994 8.50462H10.9994C10.7233 8.50462 10.4994 8.28076 10.4994 8.00462V7.50462Z" fill="#82EE8F"/>
</svg>
