<svg width="10" height="10" viewBox="0 0 10 10" fill="none" xmlns="http://www.w3.org/2000/svg">
<g clip-path="url(#clip0_276_13111)">
<path fill-rule="evenodd" clip-rule="evenodd" d="M10.001 4.99753C10.001 2.23504 7.76173 -0.00404081 4.99955 -0.00404081C2.23726 -0.00404081 -0.00202041 2.23504 -0.00202041 4.99753C-0.00202041 7.75961 2.23726 9.99886 4.99955 9.99886C7.76173 9.99886 10.001 7.75961 10.001 4.99753Z" fill="#E5AA17"/>
<path fill-rule="evenodd" clip-rule="evenodd" d="M4.99241 6.71987C3.43666 6.71987 2.18812 7.16452 2.0407 7.71449C1.97499 7.95961 1.90034 8.42398 1.83655 8.87423C2.69837 9.57853 3.79936 10.0012 4.9992 10.0012C6.19896 10.0012 7.29989 9.57853 8.16169 8.87425C8.0979 8.424 8.02324 7.95959 7.95754 7.71447C7.81012 7.16452 6.54815 6.71987 4.99241 6.71987Z" fill="#E2A379"/>
<g clip-path="url(#clip1_276_13111)">
<path fill-rule="evenodd" clip-rule="evenodd" d="M6.08876 6.79771C5.74982 6.74759 5.37978 6.71987 4.99144 6.71987C4.60739 6.71987 4.24214 6.74701 3.90747 6.7961L4.99817 8.62532L6.08876 6.79771Z" fill="#8E502E"/>
<path fill-rule="evenodd" clip-rule="evenodd" d="M2.0407 7.71502C1.97499 7.96014 1.90034 8.4245 1.83655 8.87476C2.69837 9.57906 3.79936 10.0017 4.9992 10.0017C6.19896 10.0017 7.29989 9.57906 8.16169 8.87478C8.0979 8.42452 8.02324 7.96012 7.95754 7.715C7.84692 7.3023 7.10868 6.94892 6.08971 6.79822L4.99914 8.62587L3.90843 6.79665C2.88742 6.94638 2.15173 7.30081 2.0407 7.71502Z" fill="#9AE8F4"/>
</g>
<path fill-rule="evenodd" clip-rule="evenodd" d="M2.82251 8.74836V8.96005H4.09257V8.74836H2.82251Z" fill="#D2FAFC"/>
<g clip-path="url(#clip2_276_13111)">
<g clip-path="url(#clip3_276_13111)">
<path fill-rule="evenodd" clip-rule="evenodd" d="M4.32948 6.2875C3.62499 6.45998 3.12355 6.8959 3.12355 7.40519V9.12462H3.22435V7.40519C3.22435 6.94759 3.68116 6.55464 4.32804 6.39085C4.32978 6.35863 4.33024 6.32404 4.32948 6.2875Z" fill="#3F3F3F"/>
<path fill-rule="evenodd" clip-rule="evenodd" d="M5.66962 6.2875C5.66885 6.32404 5.66931 6.35863 5.67105 6.39083C6.31793 6.55464 6.77474 6.94757 6.77474 7.40517V7.72055H6.87554V7.40517C6.87554 6.8959 6.3741 6.45998 5.66962 6.2875Z" fill="#3F3F3F"/>
</g>
<g clip-path="url(#clip4_276_13111)">
<circle cx="3.18039" cy="8.94461" r="0.337676" fill="#5E5E5E"/>
<circle cx="3.17721" cy="8.94143" r="0.294088" fill="#828282"/>
<circle cx="3.17089" cy="8.95531" r="0.206952" fill="#5E5E5E"/>
<circle cx="3.1734" cy="8.95782" r="0.148848" fill="#828282"/>
</g>
<g clip-path="url(#clip5_276_13111)">
<path fill-rule="evenodd" clip-rule="evenodd" d="M7.04351 9.25532C6.92663 9.25532 6.77133 9.25292 6.63752 9.18182C6.46962 9.09258 6.38448 8.91797 6.38448 8.66281V8.22709H6.46513V8.66281C6.46513 8.88896 6.5339 9.03543 6.67537 9.11061C6.79629 9.17486 6.94633 9.1749 7.05619 9.17466H7.06772V9.2553H7.05625C7.05207 9.2553 7.0478 9.25532 7.04351 9.25532Z" fill="#69696B"/>
<path fill-rule="evenodd" clip-rule="evenodd" d="M7.15187 9.21388C7.15187 9.26122 7.11353 9.29956 7.06619 9.29956C7.01885 9.29956 6.9805 9.26122 6.9805 9.21388C6.9805 9.16654 7.01885 9.12819 7.06619 9.12819C7.11353 9.12819 7.15187 9.16654 7.15187 9.21388Z" fill="#69696B"/>
</g>
<g clip-path="url(#clip6_276_13111)">
<path fill-rule="evenodd" clip-rule="evenodd" d="M6.6067 9.25532C6.6024 9.25532 6.59815 9.2553 6.59397 9.2553H6.58248V9.17466H6.59402C6.70363 9.17464 6.85391 9.17486 6.97484 9.11061C7.11633 9.03543 7.18507 8.88896 7.18507 8.66281V8.22709H7.26572V8.66281C7.26572 8.91797 7.18058 9.09258 7.01268 9.18182C6.87889 9.2529 6.72357 9.25532 6.6067 9.25532Z" fill="#8D8D8E"/>
<path fill-rule="evenodd" clip-rule="evenodd" d="M6.49561 9.21388C6.49561 9.26122 6.53397 9.29956 6.58129 9.29956C6.62863 9.29956 6.66697 9.26122 6.66697 9.21388C6.66697 9.16654 6.62863 9.12819 6.58129 9.12819C6.53397 9.12819 6.49561 9.16656 6.49561 9.21388Z" fill="#8D8D8E"/>
</g>
<path fill-rule="evenodd" clip-rule="evenodd" d="M7.22473 8.28029C7.19688 8.28029 7.17432 8.25773 7.17432 8.22988V8.09658C7.17432 7.90328 7.01705 7.74602 6.82374 7.74602C6.63044 7.74602 6.47317 7.90328 6.47317 8.09658V8.22988C6.47317 8.25773 6.45061 8.28029 6.42276 8.28029C6.39492 8.28029 6.37236 8.25773 6.37236 8.22988V8.09658C6.37236 7.84769 6.57486 7.64522 6.82374 7.64522C7.07263 7.64522 7.27513 7.84769 7.27513 8.09658V8.22988C7.27513 8.25773 7.25257 8.28029 7.22473 8.28029Z" fill="#3F3F3F"/>
</g>
<g clip-path="url(#clip7_276_13111)">
<path fill-rule="evenodd" clip-rule="evenodd" d="M5.78469 5.68542H4.21659C4.46126 6.42307 4.2363 6.7599 4.2363 6.7599L4.77886 7.0203H5.2224L5.76497 6.7599C5.76497 6.7599 5.54001 6.42307 5.78469 5.68542Z" fill="#8E502E"/>
<path fill-rule="evenodd" clip-rule="evenodd" d="M6.60806 3.53073C6.60806 1.66728 5.88817 1.24053 5.00018 1.24053C4.11215 1.24053 3.39226 1.66728 3.39226 3.53073C3.39226 4.16109 3.50506 4.65503 3.67397 5.03624C4.04558 5.87489 4.68877 6.16799 5.00018 6.16799C5.31159 6.16799 5.95478 5.87489 6.32637 5.03624C6.49526 4.65501 6.60806 4.16109 6.60806 3.53073Z" fill="#9B5C32"/>
<g clip-path="url(#clip8_276_13111)">
<path fill-rule="evenodd" clip-rule="evenodd" d="M5.5383 5.31431C5.5383 5.31431 5.25121 5.50753 5.00069 5.50753C4.75017 5.50753 4.46308 5.31431 4.46308 5.31431C4.46308 5.28691 4.69104 5.20832 4.78777 5.19376C4.84813 5.18467 5.00069 5.24374 5.00069 5.24374C5.00069 5.24374 5.15111 5.18451 5.21101 5.19334C5.30921 5.20788 5.5383 5.31431 5.5383 5.31431Z" fill="#8C4B2F"/>
<path fill-rule="evenodd" clip-rule="evenodd" d="M5.5383 5.31367C5.5383 5.31367 5.25121 5.58501 5.00069 5.58501C4.75017 5.58501 4.46308 5.31367 4.46308 5.31367C4.46308 5.31367 4.59394 5.34445 4.85906 5.32812C4.90376 5.32536 4.9619 5.36072 5.00069 5.36072C5.03428 5.36072 5.08488 5.32498 5.12422 5.3271C5.39953 5.34185 5.5383 5.31367 5.5383 5.31367Z" fill="#823F27"/>
</g>
<path fill-rule="evenodd" clip-rule="evenodd" d="M4.99793 1.24053C4.01528 1.24053 3.32963 1.75609 3.32963 3.61952C3.32963 3.61952 4.9963 2.69508 4.9963 2.01673L4.99793 1.24053Z" fill="#141414"/>
<path fill-rule="evenodd" clip-rule="evenodd" d="M4.99874 1.24053C5.98138 1.24053 6.66706 1.75609 6.66706 3.61952C6.66706 3.61952 5.00039 2.69508 5.00039 2.01673L4.99874 1.24053Z" fill="#141414"/>
<g clip-path="url(#clip9_276_13111)">
<path fill-rule="evenodd" clip-rule="evenodd" d="M3.48722 1.06677V2.33686H6.51121V1.06677H3.48722Z" fill="#E4F0F2"/>
<g clip-path="url(#clip10_276_13111)">
<circle cx="5.00623" cy="1.69882" r="0.470416" fill="#D61E1E"/>
<g clip-path="url(#clip11_276_13111)">
<path fill-rule="evenodd" clip-rule="evenodd" d="M4.67724 1.61632V1.7887H5.32362V1.61632H4.67724Z" fill="#E6E7E8"/>
<path fill-rule="evenodd" clip-rule="evenodd" d="M4.91969 1.36984V2.01624H5.09207V1.36984H4.91969Z" fill="#E6E7E8"/>
</g>
</g>
</g>
<path fill-rule="evenodd" clip-rule="evenodd" d="M4.23511 6.75985C4.23511 6.75985 3.93727 7.49933 4.99356 7.49933C6.04986 7.49933 5.76379 6.75985 5.76379 6.75985L4.99441 6.38852L4.23511 6.75985Z" fill="#8E502E"/>
<g clip-path="url(#clip12_276_13111)">
<path fill-rule="evenodd" clip-rule="evenodd" d="M3.23796 4.18391C3.32471 4.69112 3.43241 4.71471 3.5861 4.68844L3.42187 3.5842C3.26816 3.61051 3.15127 3.6767 3.23796 4.18391Z" fill="#9B5C32"/>
<path fill-rule="evenodd" clip-rule="evenodd" d="M6.57902 3.5842L6.41479 4.68844C6.56852 4.71471 6.67622 4.69112 6.76293 4.18391C6.84964 3.6767 6.73271 3.61051 6.57902 3.5842Z" fill="#9B5C32"/>
</g>
<g clip-path="url(#clip13_276_13111)">
<path fill-rule="evenodd" clip-rule="evenodd" d="M3.51981 3.68942C3.5112 3.635 3.50993 3.58527 3.51136 3.54535C3.51344 3.48787 3.52116 3.45085 3.52116 3.45085L3.33215 3.52144C3.33179 3.55023 3.33165 3.57932 3.33165 3.60877C3.33165 3.60877 3.35205 3.60222 3.38808 3.58976C3.38637 3.59035 3.38455 3.59099 3.38292 3.59154C3.40889 3.63569 3.44145 3.70349 3.47278 3.80367C3.47278 3.80367 3.54661 3.85867 3.51981 3.68942Z" fill="#141414"/>
<path fill-rule="evenodd" clip-rule="evenodd" d="M6.4877 3.54577C6.48911 3.58563 6.48782 3.63521 6.47923 3.68942C6.45246 3.85867 6.52629 3.80367 6.52629 3.80367C6.55754 3.70367 6.58987 3.63589 6.61564 3.59164C6.64828 3.60289 6.66663 3.60877 6.66663 3.60877C6.66663 3.57922 6.66646 3.55003 6.66612 3.52113L6.47788 3.45085C6.47788 3.45085 6.48564 3.48805 6.4877 3.54577Z" fill="#141414"/>
</g>
</g>
<circle cx="7.74867" cy="8.99729" r="0.870824" fill="#228821" stroke="white" stroke-width="0.241671"/>
</g>
<defs>
<clipPath id="clip0_276_13111">
<rect width="9.66684" height="9.66684" fill="white" transform="scale(1.03445)"/>
</clipPath>
<clipPath id="clip1_276_13111">
<rect width="6.11973" height="3.1768" fill="white" transform="translate(1.83453 6.71179) scale(1.03445)"/>
</clipPath>
<clipPath id="clip2_276_13111">
<rect width="4.28771" height="2.90395" fill="white" transform="translate(2.84271 6.29154) scale(1.03445)"/>
</clipPath>
<clipPath id="clip3_276_13111">
<rect width="3.62506" height="2.74803" fill="white" transform="translate(3.12355 6.29154) scale(1.03445)"/>
</clipPath>
<clipPath id="clip4_276_13111">
<rect width="0.643157" height="0.643157" fill="white" transform="translate(2.84271 8.60693) scale(1.03445)"/>
</clipPath>
<clipPath id="clip5_276_13111">
<rect width="0.740605" height="1.03295" fill="white" transform="translate(6.39054 8.22709) scale(1.03445)"/>
</clipPath>
<clipPath id="clip6_276_13111">
<rect width="0.740605" height="1.03295" fill="white" transform="translate(6.49156 8.22709) scale(1.03445)"/>
</clipPath>
<clipPath id="clip7_276_13111">
<rect width="3.46915" height="6.21718" fill="white" transform="translate(3.20436 1.06677) scale(1.03445)"/>
</clipPath>
<clipPath id="clip8_276_13111">
<rect width="1.05244" height="0.370302" fill="white" transform="translate(4.455 5.20053) scale(1.03445)"/>
</clipPath>
<clipPath id="clip9_276_13111">
<rect width="2.92344" height="1.22784" fill="white" transform="translate(3.48722 1.06677) scale(1.03445)"/>
</clipPath>
<clipPath id="clip10_276_13111">
<rect width="0.916011" height="0.916011" fill="white" transform="translate(4.53581 1.22841) scale(1.03445)"/>
</clipPath>
<clipPath id="clip11_276_13111">
<rect width="0.623667" height="0.623667" fill="white" transform="translate(4.67724 1.36984) scale(1.03445)"/>
</clipPath>
<clipPath id="clip12_276_13111">
<rect width="3.46915" height="1.07193" fill="white" transform="translate(3.20436 3.58824) scale(1.03445)"/>
</clipPath>
<clipPath id="clip13_276_13111">
<rect width="3.23527" height="0.350813" fill="white" transform="translate(3.32559 3.44681) scale(1.03445)"/>
</clipPath>
</defs>
</svg>
