<svg width="14" height="14" viewBox="0 0 14 14" fill="none" xmlns="http://www.w3.org/2000/svg">
<g clip-path="url(#clip0_276_11924)">
<path d="M6.91678 3.29341C6.95119 3.00566 6.74547 2.74141 6.45567 2.73912C5.70227 2.73315 4.95563 2.90757 4.27939 3.2511C3.44663 3.67413 2.75801 4.3346 2.30062 5.149C1.84323 5.9634 1.63761 6.89513 1.70976 7.82639C1.78191 8.75765 2.12858 9.6466 2.70595 10.3808C3.28332 11.1151 4.06544 11.6616 4.95342 11.9513C5.8414 12.241 6.79535 12.2609 7.69464 12.0085C8.59393 11.756 9.39817 11.2426 10.0056 10.5331C10.499 9.95693 10.8445 9.27248 11.0164 8.53892C11.0825 8.25675 10.8742 7.99451 10.5865 7.9601L6.9393 7.52392C6.65155 7.4895 6.44618 7.22833 6.48059 6.94058L6.91678 3.29341Z" fill="#228821"/>
<path d="M11.7495 7.04016C12.0372 7.07457 12.3015 6.86885 12.3038 6.57905C12.3073 6.13593 12.2484 5.69362 12.1282 5.26529C11.9606 4.66819 11.677 4.10994 11.2936 3.62243C10.9103 3.13492 10.4346 2.7277 9.89389 2.424C9.506 2.20615 9.09005 2.04463 8.65859 1.94354C8.37643 1.87744 8.1142 2.08571 8.07978 2.37347L7.6436 6.02064C7.60918 6.30839 7.81455 6.56956 8.10231 6.60397L11.7495 7.04016Z" fill="#82EE8F"/>
</g>
<defs>
<clipPath id="clip0_276_11924">
<rect width="11.883" height="11.883" fill="white" transform="translate(1.49553) scale(1.05981) rotate(6.81992)"/>
</clipPath>
</defs>
</svg>
