<svg width="229" height="28" viewBox="0 0 229 28" fill="none" xmlns="http://www.w3.org/2000/svg">
<g clip-path="url(#clip0_276_14702)">
<path d="M13.9831 27.8926C22.0317 27.8926 27.9662 22.2549 27.9662 14.54C27.9662 6.8255 22.0319 1.18774 13.9831 1.18774C5.93469 1.18774 0 6.86226 0 14.54C0 22.2177 5.93489 27.8926 13.9831 27.8926ZM13.9831 23.6642C8.75337 23.6642 4.85905 19.8436 4.85905 14.5398C4.85905 9.23574 8.75357 5.41576 13.9831 5.41576C19.2126 5.41576 23.1075 9.23574 23.1075 14.5398C23.1075 19.8436 19.2126 23.6642 13.9831 23.6642ZM41.0562 7.4929C38.1632 7.4929 35.7522 8.45704 34.2316 10.2744V7.7153H29.8177V27.5218H34.4539V17.5075C34.4539 13.5387 36.6794 11.5359 39.9802 11.5359C42.9478 11.5359 44.691 13.242 44.691 16.7656V27.522H49.327V16.1723C49.327 10.2009 45.8036 7.4933 41.056 7.4933L41.0562 7.4929ZM71.2082 17.7299C71.2082 11.5357 66.98 7.4929 61.194 7.4929C55.2963 7.4929 50.957 11.7211 50.957 17.6182C50.957 23.516 55.2591 27.7809 61.8982 27.7809C65.3105 27.7809 68.0926 26.6683 69.873 24.554L67.3877 21.6982C65.9781 23.1451 64.2353 23.8499 62.0097 23.8499C58.5602 23.8499 56.1491 21.9949 55.5928 19.1019H71.1339C71.1711 18.6569 71.2082 18.1004 71.2082 17.7299ZM61.194 11.2018C64.2353 11.2018 66.4237 13.1674 66.7946 16.0237H55.5563C56.0011 13.1307 58.1895 11.2018 61.194 11.2018Z" fill="#F37436"/>
<path d="M127.943 17.7295C127.943 11.5353 123.714 7.49248 117.928 7.49248C112.031 7.49248 107.691 11.7207 107.691 17.6178C107.691 23.5155 111.993 27.7805 118.633 27.7805C122.045 27.7805 124.827 26.6679 126.607 24.5536L124.122 21.6978C122.713 23.1447 120.97 23.8494 118.744 23.8494C115.294 23.8494 112.884 21.9945 112.327 19.1015H127.868C127.906 18.6565 127.943 18.1 127.943 17.7295ZM117.928 11.2014C120.97 11.2014 123.158 13.167 123.529 16.0232H112.29C112.735 13.1302 114.924 11.2014 117.928 11.2014ZM131.107 27.5212H135.743V0.000183105H131.107V27.5212ZM140.54 27.5212H145.176V0.000183105H140.54V27.5212ZM161.211 7.49248C158.318 7.49248 155.907 8.45661 154.386 10.274V7.71488H149.973V27.5214H154.609V17.5071C154.609 13.5383 156.834 11.5355 160.135 11.5355C163.103 11.5355 164.846 13.2415 164.846 16.7652V27.5216H169.482V16.1719C169.482 10.2005 165.958 7.49248 161.211 7.49248ZM192.898 17.7295C192.898 11.5353 188.67 7.49248 182.884 7.49248C176.986 7.49248 172.647 11.7207 172.647 17.6178C172.647 23.5155 176.949 27.7805 183.588 27.7805C187.001 27.7805 189.783 26.6679 191.563 24.5536L189.078 21.6978C187.668 23.1447 185.925 23.8494 183.7 23.8494C180.25 23.8494 177.839 21.9945 177.283 19.1015H192.824C192.861 18.6565 192.898 18.1 192.898 17.7295ZM182.884 11.2014C185.925 11.2014 188.114 13.167 188.485 16.0232H177.246C177.691 13.1302 179.879 11.2014 182.884 11.2014ZM202.182 27.7805C207.746 27.7805 211.158 25.3699 211.158 21.6606C211.158 13.9089 198.918 17.4633 198.918 13.4641C198.918 12.1657 200.253 11.2387 203.073 11.2387C204.964 11.2387 206.856 11.6098 208.747 12.7222L210.528 9.19875C208.747 8.12311 205.743 7.49268 203.11 7.49268C197.769 7.49268 194.394 9.94049 194.394 13.6865C194.394 21.5871 206.633 18.0204 206.633 21.8097C206.633 23.182 205.409 23.9979 202.479 23.9979C199.994 23.9979 197.324 23.182 195.58 22.0319L193.8 25.5557C195.58 26.8164 198.882 27.7805 202.182 27.7805ZM219.998 27.7805C225.561 27.7805 228.973 25.3699 228.973 21.6606C228.973 13.9089 216.734 17.4633 216.734 13.4641C216.734 12.1657 218.069 11.2387 220.888 11.2387C222.78 11.2387 224.672 11.6098 226.563 12.7222L228.343 9.19875C226.563 8.12311 223.559 7.49268 220.925 7.49268C215.584 7.49268 212.209 9.94049 212.209 13.6865C212.209 21.5871 224.449 18.0204 224.449 21.8097C224.449 23.182 223.225 23.9979 220.295 23.9979C217.81 23.9979 215.139 23.182 213.396 22.0319L211.616 25.5557C213.396 26.8164 216.697 27.7805 219.998 27.7805Z" fill="#3DA647"/>
<path fill-rule="evenodd" clip-rule="evenodd" d="M103.857 7.71503L98.4789 22.4039L93.1373 7.71503H89.2428L86.0918 16.1612C87.0306 18.5938 87.2454 21.2137 86.8747 23.8488L86.6246 25.6292L91.0971 13.8725L96.2161 27.5223H100.667L107.974 7.71503H103.857H103.857Z" fill="#3DA647"/>
<path fill-rule="evenodd" clip-rule="evenodd" d="M85.667 23.6766C83.6658 21.7672 82.9074 19.4281 81.2883 17.7051C80.819 17.1725 80.3732 16.1562 79.5152 16.7725C78.8474 17.2511 79.5003 18.0213 79.7842 18.5823C80.9171 20.752 82.1442 22.888 82.8136 25.2621C83.0527 26.0866 83.4864 27.0389 82.7893 27.6689C81.9423 28.4255 81.0213 27.6987 80.228 27.2977C77.473 25.8586 75.468 23.7029 74.7656 20.6534C73.6217 15.7381 73.1413 10.6116 68.541 6.7619C79.609 7.52092 87.0268 13.9972 85.6672 23.6764L85.667 23.6766Z" fill="#3DA647"/>
</g>
<defs>
<clipPath id="clip0_276_14702">
<rect width="228.973" height="28" fill="white"/>
</clipPath>
</defs>
</svg>
