<svg width="15" height="15" viewBox="0 0 15 15" fill="none" xmlns="http://www.w3.org/2000/svg">
<path d="M11.2499 5.62522H11.8749C12.9105 5.62522 13.7499 6.46468 13.7499 7.50022V11.2502C13.7499 11.9406 13.1903 12.5002 12.4999 12.5002H11.2499V5.62522Z" fill="#C2C1CC"/>
<path d="M1.24985 4.37521C1.24985 3.33967 2.08932 2.50021 3.12485 2.50021H9.37485C10.4104 2.50021 11.2498 3.33967 11.2498 4.37521V12.5002H2.49985C1.8095 12.5002 1.24985 11.9406 1.24985 11.2502V4.37521Z" fill="white"/>
<path d="M4.99992 10.6248C4.99992 10.2797 5.27974 9.99983 5.62492 9.99983H6.87491C7.22009 9.99983 7.49991 10.2797 7.49991 10.6248V12.4998H4.99992V10.6248Z" fill="#C2C1CC"/>
<path fill-rule="evenodd" clip-rule="evenodd" d="M6.25011 4.99992C5.90494 4.99992 5.62511 5.27974 5.62511 5.62492V6.24992H5.00011C4.65494 6.24992 4.37511 6.52974 4.37511 6.87491C4.37511 7.22009 4.65494 7.49991 5.00011 7.49991H5.62511V8.12491C5.62511 8.47009 5.90494 8.74991 6.25011 8.74991C6.59529 8.74991 6.87511 8.47009 6.87511 8.12491V7.49991H7.50011C7.84529 7.49991 8.12511 7.22009 8.12511 6.87492C8.12511 6.52974 7.84529 6.24992 7.50011 6.24992L6.87511 6.24992V5.62492C6.87511 5.27974 6.59529 4.99992 6.25011 4.99992Z" fill="#C2C1CC"/>
</svg>
