<svg width="40" height="21" viewBox="0 0 40 21" fill="none" xmlns="http://www.w3.org/2000/svg">
<rect x="1.89376" width="16.447" height="15.9485" rx="7.922" transform="rotate(6.81992 1.89376 0)" fill="#F4F4F4" fill-opacity="0.56"/>
<g clip-path="url(#clip0_276_12167)">
<path d="M6.73932 9.07227L10.0198 5.78635C10.2556 5.55015 10.6534 5.77012 10.5787 6.09541L10.1389 8.01232L11.7895 8.20973C12.0647 8.24264 12.181 8.57825 11.9852 8.7744L8.70093 12.0637C8.46513 12.2998 8.06735 12.0799 8.14195 11.7546L8.58247 9.83396L6.935 9.63693C6.65978 9.60401 6.54349 9.26843 6.73932 9.07227Z" fill="#82EE8F"/>
<path d="M8.13939 11.7519L8.57991 9.83127L10.1363 8.00963L11.7869 8.20704C12.0622 8.23995 12.1785 8.57556 11.9826 8.77171L8.69837 12.061C8.46257 12.2971 8.06479 12.0772 8.13939 11.7519Z" fill="#228821"/>
</g>
<rect x="24.1643" y="2.66395" width="15.9486" height="15.9485" rx="7.922" transform="rotate(6.81992 24.1643 2.66395)" fill="#F4F4F4" fill-opacity="0.56"/>
<g clip-path="url(#clip1_276_12167)">
<path d="M30.1586 14.0884L31.4783 14.2463C31.4347 14.6107 31.104 14.8708 30.7395 14.8272C30.3751 14.7836 30.1151 14.4529 30.1586 14.0884Z" fill="#82EE8F"/>
<path d="M31.7848 8.92515L31.122 8.8459L30.7689 8.92721C29.9495 9.11586 29.3365 9.79833 29.2367 10.6332L29.1057 11.7286C29.0767 11.9707 28.9356 12.1851 28.7248 12.3074C27.9886 12.7345 28.2191 13.8528 29.0642 13.9539L32.5801 14.3743C33.4252 14.4754 33.913 13.443 33.2983 12.8544C33.1222 12.6858 33.0357 12.4442 33.0646 12.2021L33.1956 11.1067C33.2955 10.2718 32.8607 9.46403 32.1089 9.08748L31.7848 8.92515Z" fill="#228821"/>
<path d="M31.1621 8.51835C31.1839 8.33615 31.3493 8.20611 31.5315 8.2279C31.7137 8.24969 31.8438 8.41506 31.822 8.59726L31.7825 8.92717L31.1227 8.84826L31.1621 8.51835Z" fill="#82EE8F"/>
</g>
<defs>
<clipPath id="clip0_276_12167">
<rect width="7.92201" height="7.922" fill="white" transform="translate(5.87395 4.49037) scale(1.0066) rotate(6.81992)"/>
</clipPath>
<clipPath id="clip1_276_12167">
<rect width="7.92201" height="7.922" fill="white" transform="translate(27.649 7.09337) scale(1.0066) rotate(6.81992)"/>
</clipPath>
</defs>
</svg>
