<svg width="12" height="12" viewBox="0 0 12 12" fill="none" xmlns="http://www.w3.org/2000/svg">
<g clip-path="url(#clip0_0_81)">
<path d="M1.69902 7.87473L2.1196 4.35802C2.23925 3.35759 2.29908 2.85737 2.53947 2.49854C2.75093 2.1829 3.05689 1.94231 3.41349 1.81125C3.81889 1.66225 4.31911 1.72207 5.31955 1.84172L7.64177 2.11945C8.64221 2.23909 9.14243 2.29892 9.50126 2.53932C9.8169 2.75078 10.0575 3.05673 10.1886 3.41333C10.3376 3.81873 10.2777 4.31895 10.1581 5.31939L10.094 5.85529C9.97434 6.85573 9.91452 7.35594 9.67412 7.71478C9.46266 8.03041 9.1567 8.271 8.8001 8.40207C8.3947 8.55107 7.89448 8.49124 6.89404 8.37159L5.00016 8.14509C4.77632 8.11832 4.6644 8.10494 4.55629 8.11819C4.46046 8.12994 4.36714 8.15704 4.27992 8.19845C4.18153 8.24516 4.09418 8.31641 3.9195 8.45891L3.45314 8.83934C2.8056 9.36757 2.48184 9.63168 2.23098 9.62466C2.01341 9.61858 1.81213 9.50789 1.69046 9.32742C1.55017 9.11934 1.59979 8.70447 1.69902 7.87473Z" fill="#C2C1CC"/>
<path d="M4.48189 3.55513C4.23525 3.52563 4.01139 3.70166 3.9819 3.9483C3.9524 4.19494 4.12843 4.41879 4.37507 4.44829L7.94773 4.87557C8.19437 4.90506 8.41822 4.72903 8.44772 4.48239C8.47721 4.23575 8.30118 4.0119 8.05454 3.9824L4.48189 3.55513Z" fill="#2C312E"/>
<path d="M4.26825 5.34146C4.02161 5.31196 3.79776 5.48799 3.76826 5.73463C3.73876 5.98127 3.91479 6.20512 4.16143 6.23462L5.50118 6.39485C5.74782 6.42434 5.97167 6.24832 6.00117 6.00167C6.03067 5.75503 5.85464 5.53118 5.608 5.50168L4.26825 5.34146Z" fill="#2C312E"/>
</g>
<defs>
<clipPath id="clip0_0_81">
<rect width="9.9025" height="9.9025" fill="white" transform="translate(1.28194) scale(1.09006) rotate(6.81992)"/>
</clipPath>
</defs>
</svg>
