<svg width="13" height="13" viewBox="0 0 13 13" fill="none" xmlns="http://www.w3.org/2000/svg">
<g clip-path="url(#clip0_276_12191)">
<path d="M2.26146 5.01143C2.35733 4.20984 3.08486 3.63774 3.88644 3.73361L9.69205 4.42793C10.4936 4.5238 11.0657 5.25133 10.9699 6.05291L10.507 9.92332C10.4111 10.7249 9.68359 11.297 8.882 11.2011L3.0764 10.5068C2.27481 10.4109 1.70271 9.68342 1.79858 8.88183L2.26146 5.01143Z" fill="#667085"/>
<path fill-rule="evenodd" clip-rule="evenodd" d="M5.93747 2.99752C5.67028 2.96557 5.42777 3.15627 5.39581 3.42346L5.33795 3.90726L4.37035 3.79154L4.42821 3.30774C4.52408 2.50615 5.25161 1.93406 6.0532 2.02992L7.9884 2.26136C8.78998 2.35723 9.36208 3.08476 9.26621 3.88634L9.20835 4.37014L8.24075 4.25442L8.29861 3.77062C8.33057 3.50343 8.13987 3.26092 7.87267 3.22896L5.93747 2.99752Z" fill="#EFFFEF"/>
<path fill-rule="evenodd" clip-rule="evenodd" d="M6.55787 6.01625C6.29067 5.9843 6.04816 6.175 6.01621 6.44219L5.95835 6.92599L5.47455 6.86813C5.20735 6.83618 4.96484 7.02688 4.93289 7.29407C4.90093 7.56127 5.09163 7.80378 5.35883 7.83573L5.84263 7.8936L5.78477 8.3774C5.75281 8.64459 5.94351 8.8871 6.21071 8.91906C6.4779 8.95101 6.72041 8.76031 6.75237 8.49312L6.81023 8.00932L7.29403 8.06718C7.56122 8.09913 7.80373 7.90843 7.83569 7.64124C7.86764 7.37404 7.67694 7.13153 7.40975 7.09958L6.92595 7.04172L6.98381 6.55792C7.01576 6.29072 6.82506 6.04821 6.55787 6.01625Z" fill="#EFFFEF"/>
</g>
<defs>
<clipPath id="clip0_276_12191">
<rect width="11.184" height="11.184" fill="white" transform="translate(1.38868) scale(1.0456) rotate(6.81992)"/>
</clipPath>
</defs>
</svg>
