<svg width="179" height="375" viewBox="0 0 179 375" fill="none" xmlns="http://www.w3.org/2000/svg">
<path fill-rule="evenodd" clip-rule="evenodd" d="M1.29153 18.3074C0 22.2984 0 27.2298 0 37.0926V337.366C0 347.229 0 352.161 1.29153 356.152C3.9018 364.218 10.2002 370.541 18.2338 373.162C22.2087 374.459 27.1203 374.459 36.9435 374.459H142.057C151.88 374.459 156.791 374.459 160.766 373.162C168.8 370.541 175.098 364.218 177.709 356.152C179 352.161 179 347.229 179 337.366V37.0926C179 27.2298 179 22.2984 177.709 18.3074C175.098 10.2414 168.8 3.91755 160.766 1.29675C156.791 0 151.88 0 142.057 0H36.9435C27.1203 0 22.2087 0 18.2338 1.29675C10.2002 3.91755 3.9018 10.2414 1.29153 18.3074ZM44.42 8.61079V10.5979L44.4514 10.5969L44.4199 10.8187C44.4199 16.062 48.6534 20.3126 53.8756 20.3126H125.124C130.346 20.3126 134.58 16.062 134.58 10.8187L134.548 10.5969L134.579 10.5979V8.61079C134.579 7.26947 135.662 6.18211 136.998 6.18211L142.663 6.1821C151.519 6.1821 155.947 6.1821 159.478 7.5219C165.029 9.6278 169.411 14.0271 171.508 19.6002C172.843 23.1459 172.843 27.5917 172.843 36.4833V337.976C172.843 346.867 172.843 351.313 171.508 354.859C169.411 360.432 165.029 364.831 159.478 366.937C155.947 368.277 151.519 368.277 142.663 368.277H36.3363C27.4805 368.277 23.0526 368.277 19.5211 366.937C13.9704 364.831 9.5888 360.432 7.49137 354.859C6.15695 351.313 6.15695 346.867 6.15695 337.976V36.4832C6.15695 27.5917 6.15695 23.1459 7.49137 19.6002C9.5888 14.0271 13.9704 9.6278 19.5211 7.5219C23.0526 6.1821 27.4805 6.1821 36.3363 6.1821L42.0011 6.18211C43.337 6.18211 44.42 7.26947 44.42 8.61079Z" fill="#121515"/>
</svg>
