<svg width="12" height="12" viewBox="0 0 12 12" fill="none" xmlns="http://www.w3.org/2000/svg">
<path d="M6.76748 2.11231C6.59017 1.99546 6.3682 1.96892 6.16833 2.04066L3.56526 2.97501C3.32474 3.06134 3.15365 3.27614 3.1233 3.52987L2.5523 8.30427C2.46381 9.0442 2.9919 9.71576 3.73182 9.80425L7.30448 10.2315C8.0444 10.32 8.71596 9.79192 8.80445 9.052L9.37545 4.2776C9.40579 4.02387 9.29018 3.77478 9.07681 3.63416L6.76748 2.11231Z" fill="#228821"/>
<path fill-rule="evenodd" clip-rule="evenodd" d="M6.41373 10.126L4.62741 9.91233L4.84104 8.126C4.90004 7.63272 5.34774 7.28066 5.84103 7.33966C6.33431 7.39865 6.68636 7.84636 6.62737 8.33964L6.41373 10.126Z" fill="#82EE8F"/>
<path fill-rule="evenodd" clip-rule="evenodd" d="M2.21752 3.9385C2.30144 4.1723 2.55899 4.29379 2.79279 4.20988L6.36742 2.92679L9.53866 5.01665C9.74607 5.15334 10.025 5.096 10.1617 4.88859C10.2984 4.68118 10.241 4.40224 10.0336 4.26555L6.67462 2.05195C6.55641 1.97405 6.40843 1.95635 6.27518 2.00418L2.48889 3.36323C2.2551 3.44715 2.1336 3.70471 2.21752 3.9385Z" fill="#82EE8F"/>
</svg>
