<svg width="20" height="20" viewBox="0 0 20 20" fill="none" xmlns="http://www.w3.org/2000/svg">
<rect width="19.9997" height="19.9997" rx="9.71667" fill="#F4F4F4"/>
<g clip-path="url(#clip0_276_12626)">
<path d="M13.534 10.5859C13.294 10.5859 13.0706 10.6495 12.8705 10.7522L12.4746 10.2817C12.6501 10.1779 12.84 10.0981 13.0407 10.0532C13.2044 10.0163 13.3666 10.0028 13.5356 10.0003C13.754 10.002 13.9688 9.91585 14.1296 9.75655C14.2973 9.59061 14.3934 9.35975 14.3934 9.08677C14.3934 7.58632 13.1294 6.48442 11.7948 6.48442H11.4638C11.3019 6.48442 11.1708 6.61549 11.1708 6.77739C11.1708 6.93928 11.3019 7.07035 11.4638 7.07035H11.7948C11.8821 7.07035 11.9653 7.08538 12.0497 7.09622V7.66231C11.8795 7.67772 11.7193 7.73036 11.5677 7.80093C11.5658 7.79872 11.5634 7.79727 11.5616 7.79506C11.3211 7.90751 11.1138 8.08337 10.9637 8.30859L10.2968 9.30879C10.251 9.37715 10.1789 9.42323 10.0973 9.43581C9.50425 9.52698 8.99011 9.90509 8.72011 10.4572C8.97035 10.8312 9.12003 11.2768 9.12003 11.7578H8.51457C8.51457 10.7885 7.72609 10 6.75678 10C5.78748 10 4.99899 10.7885 4.99899 11.7578C4.99899 12.7271 5.78748 13.5156 6.75678 13.5156C7.51964 13.5156 8.16393 13.0243 8.40662 12.3437H11.1708C11.3327 12.3437 11.4638 12.2126 11.4638 12.0508C11.4638 11.8879 11.4832 11.7217 11.5213 11.557C11.6011 11.2149 11.779 10.9035 12.0178 10.6492L12.4132 11.1191C12.2017 11.373 12.0692 11.6952 12.0692 12.0508C12.0692 12.8584 12.7264 13.5156 13.534 13.5156C14.3417 13.5156 14.9989 12.8584 14.9989 12.0508C14.9989 11.2431 14.3417 10.5859 13.534 10.5859ZM6.75678 12.9296C6.11051 12.9296 5.58492 12.4041 5.58492 11.7578C5.58492 11.1115 6.11051 10.5859 6.75678 10.5859C7.40306 10.5859 7.92864 11.1115 7.92864 11.7578H7.04975C6.88808 11.7578 6.75678 11.6265 6.75678 11.4648C6.75678 11.3029 6.62571 11.1719 6.46382 11.1719C6.30193 11.1719 6.17085 11.3029 6.17085 11.4648C6.17085 11.9494 6.56514 12.3437 7.04975 12.3437H7.76568C7.56244 12.6923 7.18868 12.9296 6.75678 12.9296ZM13.534 12.9296C13.0494 12.9296 12.6551 12.5354 12.6551 12.0508C12.6551 11.881 12.7057 11.7238 12.7894 11.5892L13.3052 12.2339C13.407 12.3609 13.5915 12.38 13.7171 12.2796C13.8433 12.1783 13.8639 11.9941 13.7629 11.8677L13.2478 11.2237C13.338 11.1924 13.4333 11.1719 13.534 11.1719C14.0187 11.1719 14.4129 11.5661 14.4129 12.0508C14.4129 12.5354 14.0187 12.9296 13.534 12.9296Z" fill="#667085"/>
<path d="M9.97069 8.7335L10.4726 7.98056C10.6331 7.73978 10.8435 7.54417 11.0825 7.39227C10.761 7.18925 10.3904 7.06734 9.99541 7.06734C9.3032 7.06734 8.66379 7.42019 8.28744 7.98606L8.75603 8.26727C9.13246 8.4931 9.54467 8.64431 9.97069 8.7335Z" fill="#667085"/>
<path d="M8.45804 8.77059L6.57803 7.65427H5.29196C5.13007 7.65427 4.99899 7.78534 4.99899 7.94724C4.99899 8.75487 5.65618 9.41206 6.46382 9.41206C7.04983 9.41206 7.65773 9.4248 8.30904 9.99097C8.31156 9.98632 8.31156 9.98105 8.31438 9.97655C8.54166 9.61111 8.86255 9.32776 9.23043 9.12863C8.96409 9.03121 8.70332 8.91768 8.45804 8.77059Z" fill="#667085"/>
</g>
<defs>
<clipPath id="clip0_276_12626">
<rect width="9.71667" height="9.71667" fill="white" transform="translate(4.99899 5.00101) scale(1.02915)"/>
</clipPath>
</defs>
</svg>
