<svg width="16" height="16" viewBox="0 0 16 16" fill="none" xmlns="http://www.w3.org/2000/svg">
<g clip-path="url(#clip0_276_11369)">
<path d="M11.0816 4.1328C11.0125 4.07817 10.9334 4.03774 10.8487 4.01385C10.7639 3.98996 10.6753 3.98308 10.5879 3.99362C10.5006 4.00416 10.4161 4.0319 10.3395 4.07524C10.2629 4.11858 10.1956 4.17666 10.1416 4.24614L5.47495 10.2461L3.18831 7.45943C3.13467 7.38804 3.06724 7.32814 2.99001 7.28331C2.91278 7.23847 2.82734 7.20961 2.73874 7.19843C2.65014 7.18726 2.5602 7.19399 2.47426 7.21824C2.38832 7.24249 2.30812 7.28376 2.23843 7.3396C2.16875 7.39544 2.11099 7.46471 2.06859 7.5433C2.02618 7.62189 2 7.7082 1.9916 7.7971C1.98319 7.88601 1.99274 7.97569 2.01966 8.06084C2.04658 8.14598 2.09033 8.22485 2.14832 8.29276L4.92829 11.7461C4.99103 11.8234 5.07031 11.8857 5.1603 11.9284C5.25028 11.9711 5.34869 11.9931 5.44828 11.9927C5.554 11.9974 5.65932 11.9769 5.75554 11.9329C5.85176 11.8888 5.93611 11.8225 6.00161 11.7394L11.2216 5.07279C11.2748 5.00215 11.3134 4.92161 11.3352 4.83589C11.357 4.75016 11.3615 4.66096 11.3485 4.57347C11.3354 4.48599 11.3051 4.40197 11.2593 4.32632C11.2135 4.25066 11.153 4.18488 11.0816 4.1328ZM14.4148 4.1328C14.3458 4.07817 14.2667 4.03774 14.182 4.01385C14.0972 3.98996 14.0086 3.98308 13.9212 3.99362C13.8338 4.00416 13.7494 4.0319 13.6728 4.07524C13.5962 4.11858 13.5289 4.17666 13.4749 4.24614L8.80825 10.2461L8.40158 9.74607L7.56159 10.8261L8.29492 11.7394C8.35766 11.8167 8.43694 11.879 8.52693 11.9217C8.61691 11.9644 8.71532 11.9864 8.81491 11.986C8.91505 11.9856 9.01379 11.9626 9.10382 11.9187C9.19384 11.8749 9.27282 11.8113 9.33491 11.7327L14.5548 5.06613C14.607 4.99569 14.6448 4.91564 14.666 4.83059C14.6872 4.74553 14.6914 4.65712 14.6784 4.57043C14.6654 4.48374 14.6354 4.40046 14.5902 4.32537C14.545 4.25027 14.4854 4.18484 14.4148 4.1328Z" fill="#228821"/>
<path d="M5.80956 8.69476L6.66955 7.61477L6.53622 7.45477C6.48359 7.38185 6.41675 7.32033 6.33972 7.27392C6.26269 7.22751 6.17707 7.19717 6.08801 7.18471C5.99895 7.17225 5.90828 7.17795 5.82148 7.20144C5.73467 7.22494 5.65352 7.26576 5.5829 7.32144C5.51442 7.37645 5.45748 7.44446 5.41537 7.52155C5.37325 7.59864 5.34679 7.68329 5.33749 7.77064C5.3282 7.858 5.33626 7.94632 5.36122 8.03055C5.38617 8.11477 5.42752 8.19324 5.4829 8.26143L5.80956 8.69476Z" fill="#228821"/>
</g>
<defs>
<clipPath id="clip0_276_11369">
<rect width="15.5589" height="15.5589" fill="white" transform="scale(1.02834)"/>
</clipPath>
</defs>
</svg>
