<svg width="47" height="20" viewBox="0 0 47 20" fill="none" xmlns="http://www.w3.org/2000/svg">
<rect width="20.143" height="19.5326" rx="9.71667" fill="#F4F4F4" fill-opacity="0.56"/>
<path d="M7.21168 10.3307L10.723 5.85773C10.9754 5.53621 11.4912 5.74584 11.4477 6.15227L11.1916 8.54732H13.2275C13.567 8.54732 13.7572 8.93852 13.5476 9.20554L10.0322 13.6831C9.77977 14.0046 9.26405 13.795 9.30747 13.3886L9.56384 10.9889H7.53177C7.1923 10.9889 7.00207 10.5977 7.21168 10.3307Z" fill="#82EE8F"/>
<path d="M9.30766 13.3886L9.56403 10.9889L11.1917 8.54733H13.2277C13.5672 8.54733 13.7574 8.93853 13.5478 9.20555L10.0324 13.6831C9.77996 14.0046 9.26425 13.795 9.30766 13.3886Z" fill="#228821"/>
<rect x="27.4674" width="19.5326" height="19.5326" rx="9.71667" fill="#F4F4F4" fill-opacity="0.56"/>
<path d="M36.4172 13.0232H38.0449C38.0449 13.4727 37.6805 13.837 37.231 13.837C36.7816 13.837 36.4172 13.4727 36.4172 13.0232Z" fill="#82EE8F"/>
<path d="M37.6415 6.50963H36.8241L36.4064 6.65988C35.4374 7.00845 34.7913 7.92753 34.7913 8.95732V10.3085C34.7913 10.607 34.6509 10.8882 34.4123 11.0677C33.5791 11.6941 34.0221 13.0205 35.0645 13.0205H39.4012C40.4435 13.0205 40.8866 11.6941 40.0535 11.0677C39.8148 10.8882 39.6744 10.607 39.6744 10.3085V8.95736C39.6744 7.92755 39.0283 7.00846 38.0592 6.6599L37.6415 6.50963Z" fill="#228821"/>
<path d="M36.8275 6.10776C36.8275 5.88302 37.0097 5.70084 37.2344 5.70084C37.4591 5.70084 37.6413 5.88302 37.6413 6.10776V6.51469H36.8275V6.10776Z" fill="#82EE8F"/>
</svg>
