<svg width="250" height="172" viewBox="0 0 250 172" fill="none" xmlns="http://www.w3.org/2000/svg">
<path d="M249.129 134.348C236.274 139.837 224.896 140.246 211.332 136.972C209.235 137.316 211.968 139.164 212.648 139.742C218.867 144.66 228.996 144.784 236.991 144.368C217.617 155.622 192.946 165.261 170.488 162.776C144.414 160.416 117.44 141.781 114.773 114.339C130.923 108.603 147.286 98.6273 155.602 83.0833C164.415 62.073 142.667 51.4472 125.04 64.185C110.746 74.5184 103.27 92.284 102.7 109.735C34.9553 123.394 -9.19928 64.5577 4.97812 0.752086C4.99865 0.67427 5.00309 0.593087 4.99118 0.513496C4.97927 0.433904 4.95126 0.357574 4.90885 0.289176C4.86645 0.220778 4.81054 0.161745 4.74454 0.115686C4.67855 0.069626 4.60386 0.0375075 4.52503 0.0212921C4.4492 0.000385734 4.36997 -0.00519774 4.29197 0.00486383C4.21396 0.0149254 4.13874 0.0404315 4.0707 0.0798935C4.00266 0.119356 3.94317 0.17198 3.8957 0.234695C3.84823 0.29741 3.81374 0.368957 3.79423 0.445154C-13.9567 66.6843 32.4925 128.999 103.131 117.321C105.433 137.644 119.888 155.023 137.873 163.851C169.904 180.067 211.932 169.032 238.913 147.386C238.226 151.04 236.172 154.314 235.471 157.953C234.652 162.214 236.267 170.011 238.204 167.6C239.063 163.536 240.234 159.543 241.704 155.658C243.122 151.705 244.847 147.284 246.447 143.403L246.769 142.672L249.94 135.233C249.994 135.116 250.012 134.987 249.992 134.86C249.972 134.733 249.916 134.615 249.829 134.521C249.742 134.426 249.63 134.359 249.505 134.329C249.38 134.298 249.25 134.305 249.129 134.348ZM122.475 82.7618C133.371 61.8245 158.284 65.325 143.946 85.0345C136.079 94.3292 126.037 101.536 114.714 106.016C115.482 97.7714 118.138 89.8146 122.475 82.7618Z" fill="#FAFAFA"/>
<path d="M14.7343 96.8727C14.7863 96.8092 14.8534 96.7598 14.9294 96.7291C15.0054 96.6983 15.088 96.6872 15.1695 96.6966C15.251 96.7061 15.3288 96.7359 15.3957 96.7832C15.4627 96.8306 15.5167 96.894 15.5528 96.9677C22.2249 110.356 37.155 119.98 50.3897 120.974C50.5086 120.982 50.6202 121.034 50.7017 121.121C50.7832 121.208 50.8284 121.323 50.8282 121.442C50.8269 121.562 50.7861 121.677 50.712 121.771C50.638 121.865 50.5349 121.932 50.4189 121.961C35.1965 125.702 19.7256 111.218 14.61 97.7935C14.5505 97.6404 14.5333 97.474 14.5603 97.312C14.5873 97.1499 14.6575 96.9982 14.7635 96.8727H14.7343Z" fill="#FAFAFA"/>
<path d="M157.4 52.6531C166.111 51.6884 171.511 62.7015 167.39 69.9218C167.363 69.9713 167.321 70.0104 167.27 70.0328C167.218 70.0552 167.161 70.0596 167.107 70.0452C167.052 70.0308 167.005 69.9985 166.971 69.9535C166.938 69.9085 166.92 69.8536 166.922 69.7975C166.922 62.6869 164.218 55.9124 157.341 53.1354C157.288 53.1169 157.242 53.0805 157.212 53.0323C157.182 52.9841 157.169 52.9271 157.176 52.8706C157.182 52.8142 157.208 52.7618 157.249 52.7222C157.29 52.6827 157.343 52.6583 157.4 52.6531Z" fill="#FAFAFA"/>
<path d="M13.0825 92.409C12.3894 92.4693 11.6987 92.2686 11.1458 91.8463C10.7271 91.5453 10.4087 91.1251 10.2324 90.6405C10.0629 90.1712 10.0399 89.6615 10.1666 89.1789C10.3361 88.5237 10.7035 87.9367 11.2189 87.498C11.8369 87.6671 12.4138 87.9605 12.9144 88.3604C13.2524 88.6277 13.5089 88.9843 13.6549 89.3898C13.8008 89.7954 13.8304 90.2336 13.7402 90.6551C13.601 91.2667 13.3798 91.8567 13.0825 92.409Z" fill="#FAFAFA"/>
<path d="M166.417 74.5623C166.425 74.521 166.445 74.483 166.475 74.4539C166.505 74.4247 166.544 74.406 166.585 74.4003C166.627 74.3946 166.669 74.4022 166.706 74.4222C166.743 74.4421 166.772 74.4733 166.79 74.5111C166.991 74.9095 167.108 75.3447 167.134 75.79C167.165 76.3924 167.081 76.9953 166.885 77.5658C166.69 78.1341 166.385 78.6582 165.986 79.1078C165.695 79.4454 165.336 79.7191 164.934 79.9117C164.897 79.9274 164.856 79.9319 164.816 79.9244C164.777 79.917 164.74 79.8981 164.711 79.87C164.682 79.8419 164.663 79.8059 164.654 79.7665C164.646 79.7271 164.649 79.6861 164.664 79.6486C164.846 79.2686 164.992 78.9178 165.139 78.567C165.336 78.092 165.504 77.617 165.672 77.142C165.84 76.667 165.994 76.192 166.132 75.6804C166.235 75.3296 166.33 74.9715 166.417 74.5623Z" fill="#FAFAFA"/>
<path d="M162.844 153.867C174.178 156.71 190.482 156.103 200.918 150.688C200.94 150.673 200.968 150.667 200.995 150.672C201.021 150.676 201.045 150.692 201.061 150.714C201.076 150.736 201.082 150.764 201.077 150.79C201.073 150.817 201.057 150.841 201.035 150.856C192.061 158.742 173.185 159.582 162.778 154.057C162.757 154.045 162.741 154.027 162.733 154.004C162.725 153.982 162.724 153.957 162.732 153.935C162.74 153.912 162.755 153.893 162.776 153.881C162.796 153.869 162.82 153.864 162.844 153.867Z" fill="#FAFAFA"/>
</svg>
