<svg width="378" height="43" viewBox="0 0 378 43" fill="none" xmlns="http://www.w3.org/2000/svg">
<rect width="377.303" height="42.787" transform="scale(1.00185)" fill="white"/>
<path opacity="0.35" d="M342.933 17.3699H359.171C360.336 17.3701 361.281 18.3148 361.281 19.4802V25.326C361.281 26.4916 360.336 27.437 359.171 27.4373H342.933C341.767 27.4371 340.822 26.4916 340.822 25.326V19.4802C340.823 18.3148 341.767 17.3701 342.933 17.3699Z" stroke="#2C312E" stroke-width="0.972432"/>
<path opacity="0.4" d="M362.741 20.4537V24.3506C363.525 24.0206 364.034 23.2528 364.034 22.4022C364.034 21.5515 363.525 20.7838 362.741 20.4537Z" fill="#2C312E"/>
<path d="M342.284 20.1305C342.284 19.4131 342.866 18.8316 343.583 18.8316H358.521C359.239 18.8316 359.82 19.4131 359.82 20.1305V24.6769C359.82 25.3943 359.239 25.9759 358.521 25.9759H343.583C342.866 25.9759 342.284 25.3943 342.284 24.6769V20.1305Z" fill="#2C312E"/>
<path fill-rule="evenodd" clip-rule="evenodd" d="M327.988 19.1013C330.147 19.1014 332.223 19.9309 333.788 21.4183C333.906 21.5332 334.094 21.5317 334.21 21.4151L335.336 20.2785C335.395 20.2193 335.428 20.1392 335.427 20.0558C335.427 19.9725 335.393 19.8927 335.334 19.8342C331.227 15.8988 324.749 15.8988 320.642 19.8342C320.583 19.8927 320.549 19.9724 320.549 20.0558C320.548 20.1391 320.581 20.2193 320.64 20.2785L321.766 21.4151C321.882 21.5319 322.07 21.5334 322.188 21.4183C323.753 19.9308 325.829 19.1013 327.988 19.1013ZM327.988 22.7992C329.175 22.7991 330.318 23.2399 331.198 24.0361C331.316 24.1491 331.504 24.1466 331.62 24.0306L332.745 22.894C332.804 22.8344 332.837 22.7535 332.836 22.6694C332.835 22.5854 332.801 22.5052 332.74 22.4468C330.063 19.9563 325.916 19.9563 323.239 22.4468C323.179 22.5052 323.144 22.5854 323.143 22.6695C323.143 22.7536 323.176 22.8344 323.235 22.894L324.359 24.0306C324.475 24.1466 324.663 24.1491 324.782 24.0361C325.66 23.2405 326.803 22.7996 327.988 22.7992ZM330.241 25.2861C330.243 25.3703 330.21 25.4516 330.15 25.5106L328.204 27.4743C328.147 27.5321 328.069 27.5645 327.988 27.5645C327.907 27.5645 327.829 27.5321 327.772 27.4743L325.826 25.5106C325.766 25.4515 325.732 25.3703 325.734 25.286C325.736 25.2017 325.773 25.1219 325.835 25.0654C327.078 24.0143 328.898 24.0143 330.141 25.0654C330.203 25.1219 330.239 25.2018 330.241 25.2861Z" fill="#2C312E"/>
<path fill-rule="evenodd" clip-rule="evenodd" d="M314.677 17.2094H313.703C313.165 17.2094 312.729 17.6456 312.729 18.1837V26.627C312.729 27.165 313.165 27.6012 313.703 27.6012H314.677C315.215 27.6012 315.651 27.165 315.651 26.627V18.1837C315.651 17.6456 315.215 17.2094 314.677 17.2094ZM309.159 19.4851H310.134C310.672 19.4851 311.108 19.9213 311.108 20.4594V26.6295C311.108 27.1675 310.672 27.6037 310.134 27.6037H309.159C308.621 27.6037 308.185 27.1675 308.185 26.6295V20.4594C308.185 19.9213 308.621 19.4851 309.159 19.4851ZM305.581 21.753H304.607C304.069 21.753 303.633 22.1892 303.633 22.7272V26.6241C303.633 27.1622 304.069 27.5983 304.607 27.5983H305.581C306.119 27.5983 306.555 27.1622 306.555 26.6241V22.7272C306.555 22.1892 306.119 21.753 305.581 21.753ZM301.038 23.7019H300.063C299.525 23.7019 299.089 24.1381 299.089 24.6761V26.6246C299.089 27.1626 299.525 27.5988 300.063 27.5988H301.038C301.576 27.5988 302.012 27.1626 302.012 26.6246V24.6761C302.012 24.1381 301.576 23.7019 301.038 23.7019Z" fill="#2C312E"/>
<path d="M27.5895 27.5351C30.2082 27.5351 31.7637 25.4872 31.7637 22.0194C31.7637 20.7136 31.514 19.6147 31.0359 18.7656C30.3438 17.4455 29.1522 16.732 27.6466 16.732C25.406 16.732 23.822 18.2376 23.822 20.3497C23.822 22.3333 25.2491 23.7747 27.2113 23.7747C28.4172 23.7747 29.3948 23.211 29.88 22.2334H29.9014C29.9014 22.2334 29.9299 22.2334 29.9371 22.2334C29.9513 22.2334 30.0013 22.2334 30.0013 22.2334C30.0013 24.5881 29.1093 25.9938 27.6038 25.9938C26.719 25.9938 26.034 25.5086 25.7985 24.7308H23.9647C24.2715 26.4219 25.7057 27.5351 27.5895 27.5351ZM27.6537 22.3119C26.4692 22.3119 25.6272 21.4699 25.6272 20.2926C25.6272 19.1438 26.512 18.2661 27.6608 18.2661C28.8097 18.2661 29.6944 19.1581 29.6944 20.3211C29.6944 21.4699 28.8311 22.3119 27.6537 22.3119Z" fill="#2C312E"/>
<path d="M34.7752 27.4352C35.453 27.4352 35.9168 26.95 35.9168 26.3078C35.9168 25.6585 35.453 25.1804 34.7752 25.1804C34.1044 25.1804 33.6335 25.6585 33.6335 26.3078C33.6335 26.95 34.1044 27.4352 34.7752 27.4352ZM34.7752 22.0836C35.453 22.0836 35.9168 21.6055 35.9168 20.9633C35.9168 20.314 35.453 19.8359 34.7752 19.8359C34.1044 19.8359 33.6335 20.314 33.6335 20.9633C33.6335 21.6055 34.1044 22.0836 34.7752 22.0836Z" fill="#2C312E"/>
<path d="M42.5959 27.2853H44.3584V25.3659H45.7498V23.8104H44.3584V16.9889H41.7611C39.9415 19.7289 38.493 22.0194 37.5654 23.7247V25.3659H42.5959V27.2853ZM39.2708 23.7462C40.4695 21.6341 41.5399 19.943 42.5246 18.4873H42.6245V23.8532H39.2708V23.7462Z" fill="#2C312E"/>
<path d="M49.6746 27.2853H51.5155V16.9889H49.6817L46.9916 18.8726V20.6422L49.5533 18.8441H49.6746V27.2853Z" fill="#2C312E"/>
</svg>
