<svg width="20" height="20" viewBox="0 0 20 20" fill="none" xmlns="http://www.w3.org/2000/svg">
<path d="M6.87346 4.37216C5.83794 4.37216 4.99848 5.21161 4.99848 6.24713V14.372C4.99848 15.4075 5.83794 16.247 6.87346 16.247H13.1234C14.1589 16.247 14.9983 15.4075 14.9983 14.372V6.24713C14.9983 5.21161 14.1589 4.37216 13.1234 4.37216H6.87346Z" fill="#228821"/>
<path fill-rule="evenodd" clip-rule="evenodd" d="M8.12676 9.37468C7.78159 9.37468 7.50177 9.6545 7.50177 9.99967C7.50177 10.3448 7.78159 10.6247 8.12676 10.6247H11.8767C12.2219 10.6247 12.5017 10.3448 12.5017 9.99967C12.5017 9.6545 12.2219 9.37468 11.8767 9.37468H8.12676ZM8.12676 11.8746C7.78159 11.8746 7.50177 12.1545 7.50177 12.4996C7.50177 12.8448 7.78159 13.1246 8.12676 13.1246H10.6267C10.9719 13.1246 11.2517 12.8448 11.2517 12.4996C11.2517 12.1545 10.9719 11.8746 10.6267 11.8746H8.12676Z" fill="#82EE8F"/>
<path d="M8.12607 4.37486C8.12607 4.02969 8.40589 3.74987 8.75106 3.74987H11.251C11.5962 3.74987 11.876 4.02969 11.876 4.37486V4.99985C11.876 5.34503 11.5962 5.62484 11.251 5.62484H8.75106C8.40589 5.62484 8.12607 5.34503 8.12607 4.99985V4.37486Z" fill="#82EE8F"/>
</svg>
