<svg width="11" height="11" viewBox="0 0 11 11" fill="none" xmlns="http://www.w3.org/2000/svg">
<path d="M2.74997 6.42808H6.33641V5.74058H2.74997V6.42808ZM2.74997 4.9385H8.24995V4.25101H2.74997V4.9385ZM2.74997 3.44893H8.24995V2.76143H2.74997V3.44893ZM0.916646 10.0833V1.60414C0.916646 1.42845 0.985396 1.26994 1.1229 1.12862C1.26039 0.987305 1.42081 0.916646 1.60414 0.916646H9.39577C9.57147 0.916646 9.72997 0.987305 9.87129 1.12862C10.0126 1.26994 10.0833 1.42845 10.0833 1.60414V7.56245C10.0833 7.73814 10.0126 7.89665 9.87129 8.03797C9.72997 8.17929 9.57147 8.24995 9.39577 8.24995H2.74997L0.916646 10.0833Z" fill="white"/>
</svg>
