<svg width="12" height="12" viewBox="0 0 12 12" fill="none" xmlns="http://www.w3.org/2000/svg">
<g clip-path="url(#clip0_0_76)">
<path d="M2.1196 4.35802C2.23925 3.35759 2.29908 2.85737 2.53947 2.49854C2.75093 2.1829 3.05689 1.94231 3.41349 1.81125C3.81889 1.66225 4.31911 1.72207 5.31955 1.84172L7.64177 2.11945C8.64221 2.23909 9.14243 2.29892 9.50126 2.53932C9.8169 2.75078 10.0575 3.05673 10.1886 3.41333C10.3376 3.81873 10.2777 4.31895 10.1581 5.31939L9.88035 7.64162C9.7607 8.64205 9.70088 9.14227 9.46048 9.5011C9.24902 9.81674 8.94307 10.0573 8.58646 10.1884C8.18106 10.3374 7.68084 10.2776 6.68041 10.1579L4.35818 9.88019C3.35774 9.76055 2.85752 9.70072 2.49869 9.46033C2.18306 9.24887 1.94246 8.94291 1.8114 8.58631C1.6624 8.18091 1.72223 7.68069 1.84187 6.68025L2.1196 4.35802Z" fill="#C2C1CC"/>
<path fill-rule="evenodd" clip-rule="evenodd" d="M7.58009 4.15061C7.40145 4.12925 7.22726 4.2164 7.13725 4.37219L5.94866 6.42935L5.76164 5.79306C5.71091 5.62045 5.56219 5.49467 5.38354 5.47331L2.03418 5.07274L1.92736 5.9659L4.98225 6.33125L5.38156 7.68987C5.43229 7.86248 5.58102 7.98826 5.75966 8.00962C5.93831 8.03099 6.1125 7.94383 6.20251 7.78805L7.3911 5.73088L7.57811 6.36717C7.62884 6.53979 7.77757 6.66556 7.95621 6.68693L9.96583 6.92727L10.0727 6.0341L8.35751 5.82898L7.9582 4.47037C7.90746 4.29775 7.75874 4.17198 7.58009 4.15061Z" fill="#2C312E"/>
</g>
<defs>
<clipPath id="clip0_0_76">
<rect width="9.9025" height="9.9025" fill="white" transform="translate(1.28194) scale(1.09006) rotate(6.81992)"/>
</clipPath>
</defs>
</svg>
