<svg width="14" height="14" viewBox="0 0 14 14" fill="none" xmlns="http://www.w3.org/2000/svg">
<g clip-path="url(#clip0_276_11913)">
<path d="M2.47531 5.08158C2.6149 3.91437 2.68469 3.33077 2.96516 2.91213C3.21187 2.54388 3.56883 2.26318 3.98487 2.11027C4.45785 1.93643 5.04146 2.00623 6.20866 2.14582L8.91798 2.46985C10.0852 2.60944 10.6688 2.67923 11.0874 2.9597C11.4557 3.20641 11.7364 3.56337 11.8893 3.97941C12.0631 4.45239 11.9933 5.03599 11.8537 6.20319L11.5297 8.91252C11.3901 10.0797 11.3203 10.6633 11.0399 11.082C10.7932 11.4502 10.4362 11.7309 10.0202 11.8838C9.54717 12.0577 8.96357 11.9879 7.79637 11.8483L5.08704 11.5242C3.91984 11.3847 3.33623 11.3149 2.91759 11.0344C2.54934 10.7877 2.26864 10.4307 2.11573 10.0147C1.94189 9.5417 2.01169 8.9581 2.15128 7.7909L2.47531 5.08158Z" fill="#228821"/>
<path fill-rule="evenodd" clip-rule="evenodd" d="M8.84488 4.84001C8.63646 4.81508 8.43323 4.91676 8.32822 5.09851L6.9415 7.49859L6.72331 6.75624C6.66412 6.55485 6.49061 6.40811 6.28218 6.38318L2.3745 5.91584L2.24988 6.95789L5.814 7.38414L6.27987 8.96923C6.33906 9.17062 6.51258 9.31736 6.721 9.34228C6.92943 9.36721 7.13265 9.26553 7.23766 9.08377L8.62439 6.6837L8.84257 7.42605C8.90176 7.62744 9.07528 7.77418 9.2837 7.7991L11.6283 8.07951L11.7529 7.03746L9.75189 6.79814L9.28601 5.21306C9.22682 5.01167 9.05331 4.86493 8.84488 4.84001Z" fill="#82EE8F"/>
</g>
<defs>
<clipPath id="clip0_276_11913">
<rect width="11.883" height="11.883" fill="white" transform="translate(1.49553) scale(1.05981) rotate(6.81992)"/>
</clipPath>
</defs>
</svg>
