<svg width="186" height="91" viewBox="0 0 186 91" fill="none" xmlns="http://www.w3.org/2000/svg">
<path d="M184.681 37.0981H185.34C185.705 37.0981 186 37.3946 186 37.7603V81.0244C186 81.3901 185.705 81.6866 185.34 81.6866H184.681V37.0981Z" fill="#303030"/>
<path d="M1.31905 90.9506L0.659506 90.9506C0.29525 90.9506 -3.70677e-05 90.6541 -3.70359e-05 90.2884L-3.4768e-05 64.2416C-3.47361e-05 63.8758 0.295253 63.5794 0.659509 63.5794L1.31905 63.5794L1.31905 90.9506Z" fill="#303030"/>
<path d="M1.31905 54.748L0.659506 54.748C0.29525 54.748 -3.70677e-05 54.4515 -3.70359e-05 54.0858L-3.4768e-05 28.039C-3.47361e-05 27.6733 0.295253 27.3768 0.659509 27.3768L1.31905 27.3768L1.31905 54.748Z" fill="#333333"/>
<path d="M1.31905 14.127L0.659508 14.127C0.295252 14.127 -3.51594e-05 13.8306 -3.51276e-05 13.4648L-3.40128e-05 0.662193C-3.3981e-05 0.296467 0.295253 -1.24941e-05 0.659509 -1.24622e-05L1.31905 -1.24043e-05L1.31905 14.127Z" fill="#333333"/>
</svg>
