<svg width="10" height="10" viewBox="0 0 10 10" fill="none" xmlns="http://www.w3.org/2000/svg">
<g clip-path="url(#clip0_276_11846)">
<path d="M2.67411 5.48504L5.5862 5.83331L5.65296 5.27508L2.74088 4.92681L2.67411 5.48504ZM2.81876 4.27555L7.28458 4.80964L7.35134 4.25141L2.88552 3.71732L2.81876 4.27555ZM2.96341 3.06606L7.42922 3.60015L7.49599 3.04192L3.03017 2.50783L2.96341 3.06606ZM0.830561 8.27491L1.65395 1.39012C1.67101 1.24746 1.74223 1.12544 1.8676 1.02404C1.99297 0.92265 2.13008 0.880854 2.27894 0.898657L8.60551 1.65529C8.74817 1.67235 8.87001 1.74511 8.97103 1.87358C9.07205 2.00205 9.11403 2.13762 9.09697 2.28027L8.51837 7.11823C8.50131 7.26089 8.42855 7.38273 8.30008 7.48375C8.17161 7.58478 8.03604 7.62676 7.89339 7.6097L2.4972 6.96434L0.830561 8.27491Z" fill="white"/>
</g>
<defs>
<clipPath id="clip0_276_11846">
<rect width="8.91226" height="8.91225" fill="white" transform="translate(1.06821) scale(1.00931) rotate(6.81992)"/>
</clipPath>
</defs>
</svg>
