<svg width="8" height="8" viewBox="0 0 8 8" fill="none" xmlns="http://www.w3.org/2000/svg">
<path fill-rule="evenodd" clip-rule="evenodd" d="M3.98281 7.9978C6.18246 7.9978 7.96563 6.20743 7.96563 3.9989C7.96563 1.79037 6.18246 0 3.98281 0C1.78317 0 0 1.79037 0 3.9989C0 6.20743 1.78317 7.9978 3.98281 7.9978Z" fill="#262C2D"/>
<path fill-rule="evenodd" clip-rule="evenodd" d="M3.97503 6.48329C5.34981 6.48329 6.46429 5.36431 6.46429 3.98398C6.46429 2.60365 5.34981 1.48467 3.97503 1.48467C2.60025 1.48467 1.48577 2.60365 1.48577 3.98398C1.48577 5.36431 2.60025 6.48329 3.97503 6.48329Z" fill="#121515"/>
<path opacity="0.4" fill-rule="evenodd" clip-rule="evenodd" d="M3.98628 3.49823C4.26136 3.49823 4.48436 3.27433 4.48436 2.99814C4.48436 2.72195 4.26136 2.49805 3.98628 2.49805C3.71119 2.49805 3.48819 2.72195 3.48819 2.99814C3.48819 3.27433 3.71119 3.49823 3.98628 3.49823Z" fill="#636F73"/>
</svg>
