<svg width="18" height="18" viewBox="0 0 18 18" fill="none" xmlns="http://www.w3.org/2000/svg">
<g clip-path="url(#clip0_276_11947)">
<g clip-path="url(#clip1_276_11947)">
<path d="M5.00585 9.22621L10.0016 4.22212C10.3607 3.86243 10.9665 4.19741 10.8529 4.6928L10.1829 7.61202L12.6967 7.91266C13.1158 7.96278 13.2929 8.47387 12.9947 8.77259L7.99316 13.7818C7.63407 14.1414 7.02829 13.8065 7.1419 13.3111L7.81276 10.3862L5.30386 10.0861C4.88473 10.036 4.70762 9.52494 5.00585 9.22621Z" fill="#82EE8F"/>
<path d="M7.14112 13.313L7.81198 10.3881L10.1822 7.61391L12.6959 7.91454C13.1151 7.96467 13.2922 8.47576 12.9939 8.77448L7.99238 13.7836C7.63329 14.1433 7.02751 13.8084 7.14112 13.313Z" fill="#228821"/>
</g>
</g>
<defs>
<clipPath id="clip0_276_11947">
<rect width="15.844" height="15.844" fill="white" transform="translate(1.92265) scale(1.02196) rotate(6.81992)"/>
</clipPath>
<clipPath id="clip1_276_11947">
<rect width="11.883" height="11.883" fill="white" transform="translate(3.68713 2.2495) scale(1.02196) rotate(6.81992)"/>
</clipPath>
</defs>
</svg>
