<svg width="30" height="6" viewBox="0 0 30 6" fill="none" xmlns="http://www.w3.org/2000/svg">
<path opacity="0.35" d="M20.259 0.224957H27.7596C28.2978 0.225188 28.7343 0.661542 28.7344 1.19977V3.90025C28.7342 4.43844 28.2977 4.87483 27.7596 4.87506H20.259C19.7207 4.87495 19.2843 4.43851 19.2842 3.90025V1.19977C19.2843 0.66147 19.7207 0.225073 20.259 0.224957Z" stroke="#040C07" stroke-width="0.445392"/>
<path opacity="0.4" d="M29.4023 1.65166V3.45164C29.7645 3.29919 29.9999 2.94456 29.9999 2.55165C29.9999 2.15875 29.7645 1.80411 29.4023 1.65166Z" fill="#040C07"/>
<path d="M19.963 1.50377C19.963 1.1724 20.2316 0.903776 20.563 0.903776H27.4629C27.7943 0.903776 28.0629 1.1724 28.0629 1.50377V3.60375C28.0629 3.93511 27.7943 4.20374 27.4629 4.20374H20.563C20.2316 4.20374 19.963 3.93511 19.963 3.60375V1.50377Z" fill="#040C07"/>
<path fill-rule="evenodd" clip-rule="evenodd" d="M13.3432 1.02479C14.3403 1.02483 15.2993 1.40797 16.022 2.09502C16.0764 2.14807 16.1634 2.1474 16.217 2.09352L16.7372 1.56853C16.7643 1.5412 16.7795 1.50419 16.7792 1.46568C16.779 1.42717 16.7635 1.39034 16.736 1.36333C14.8392 -0.454444 11.8469 -0.454444 9.95008 1.36333C9.92261 1.39032 9.90702 1.42714 9.90676 1.46565C9.90651 1.50416 9.92161 1.54118 9.94873 1.56853L10.4691 2.09352C10.5226 2.14748 10.6097 2.14815 10.6641 2.09502C11.3868 1.40793 12.346 1.02478 13.3432 1.02479ZM13.3354 2.73027C13.8833 2.73024 14.4116 2.93388 14.8177 3.30161C14.8726 3.35381 14.9591 3.35267 15.0127 3.29907L15.5323 2.77407C15.5596 2.74653 15.5748 2.70918 15.5744 2.67036C15.574 2.63154 15.5581 2.5945 15.5302 2.56752C14.2935 1.41716 12.3784 1.41716 11.1417 2.56752C11.1137 2.5945 11.0978 2.63156 11.0974 2.67039C11.0971 2.70922 11.1123 2.74657 11.1397 2.77407L11.6592 3.29907C11.7127 3.35267 11.7992 3.35381 11.8542 3.30161C12.26 2.93412 12.7879 2.7305 13.3354 2.73027ZM14.3881 3.88973C14.3889 3.92866 14.3736 3.96619 14.3458 3.99346L13.447 4.9005C13.4207 4.92716 13.3847 4.94216 13.3473 4.94216C13.3098 4.94216 13.2738 4.92716 13.2475 4.9005L12.3486 3.99346C12.3208 3.96617 12.3055 3.92863 12.3063 3.8897C12.3072 3.85077 12.324 3.81391 12.3529 3.78781C12.9269 3.30232 13.7676 3.30232 14.3416 3.78781C14.3705 3.81393 14.3873 3.8508 14.3881 3.88973Z" fill="#040C07"/>
<path fill-rule="evenodd" clip-rule="evenodd" d="M7.197 0.171678H6.747C6.49848 0.171678 6.29701 0.373148 6.29701 0.621673V4.52163C6.29701 4.77015 6.49848 4.97162 6.747 4.97162H7.197C7.44552 4.97162 7.64699 4.77015 7.64699 4.52163V0.621673C7.64699 0.373148 7.44552 0.171678 7.197 0.171678ZM4.65512 1.22543H5.10512C5.35364 1.22543 5.55511 1.4269 5.55511 1.67542V4.52539C5.55511 4.77391 5.35364 4.97538 5.10512 4.97538H4.65512C4.4066 4.97538 4.20513 4.77391 4.20513 4.52539V1.67542C4.20513 1.4269 4.4066 1.22543 4.65512 1.22543ZM3.01242 2.26339H2.56242C2.3139 2.26339 2.11243 2.46486 2.11243 2.71338V4.51336C2.11243 4.76189 2.3139 4.96336 2.56242 4.96336H3.01242C3.26094 4.96336 3.46241 4.76189 3.46241 4.51336V2.71338C3.46241 2.46486 3.26094 2.26339 3.01242 2.26339ZM0.89999 3.16716H0.449995C0.20147 3.16716 0 3.36863 0 3.61716V4.51715C0 4.76567 0.20147 4.96714 0.449995 4.96714H0.89999C1.14852 4.96714 1.34998 4.76567 1.34998 4.51715V3.61716C1.34998 3.36863 1.14852 3.16716 0.89999 3.16716Z" fill="#040C07"/>
</svg>
