<svg width="175" height="37" viewBox="0 0 175 37" fill="none" xmlns="http://www.w3.org/2000/svg">
<g clip-path="url(#clip0_276_12532)">
<path d="M9.33984 18.6317C14.7158 18.6317 18.6797 14.866 18.6797 9.71296C18.6797 4.56016 14.7159 0.794482 9.33984 0.794482C3.96401 0.794482 0 4.58471 0 9.71296C0 14.8412 3.96414 18.6317 9.33984 18.6317ZM9.33984 15.8074C5.84671 15.8074 3.24555 13.2555 3.24555 9.71283C3.24555 6.17005 5.84685 3.61854 9.33984 3.61854C12.8328 3.61854 15.4344 6.17005 15.4344 9.71283C15.4344 13.2555 12.8328 15.8074 9.33984 15.8074ZM27.423 5.00594C25.4907 5.00594 23.8803 5.64992 22.8646 6.86382V5.15449H19.9164V18.384H23.0131V11.6951C23.0131 9.04416 24.4996 7.7064 26.7043 7.7064C28.6865 7.7064 29.8508 8.84596 29.8508 11.1995V18.3841H32.9474V10.8033C32.9474 6.8147 30.594 5.00621 27.4229 5.00621L27.423 5.00594ZM47.5627 11.8437C47.5627 7.70627 44.7385 5.00594 40.8738 5.00594C36.9345 5.00594 34.0361 7.83013 34.0361 11.769C34.0361 15.7084 36.9097 18.5571 41.3442 18.5571C43.6234 18.5571 45.4817 17.814 46.6709 16.4017L45.0108 14.4942C44.0693 15.4606 42.9052 15.9314 41.4187 15.9314C39.1146 15.9314 37.5042 14.6924 37.1326 12.76H47.5131C47.5379 12.4628 47.5627 12.0911 47.5627 11.8437ZM40.8738 7.48324C42.9052 7.48324 44.367 8.79617 44.6147 10.704H37.1082C37.4053 8.77161 38.867 7.48324 40.8738 7.48324Z" fill="#F37436"/>
<path d="M85.4566 11.8421C85.4566 7.70472 82.6324 5.00439 78.7677 5.00439C74.8283 5.00439 71.9299 7.82858 71.9299 11.7675C71.9299 15.7068 74.8034 18.5556 79.238 18.5556C81.5172 18.5556 83.3754 17.8124 84.5647 16.4002L82.9046 14.4927C81.9632 15.4591 80.799 15.9298 79.3125 15.9298C77.0083 15.9298 75.398 14.6909 75.0264 12.7585H85.4068C85.4317 12.4613 85.4566 12.0896 85.4566 11.8421ZM78.7677 7.4817C80.799 7.4817 82.2607 8.79463 82.5084 10.7024H75.0018C75.2989 8.77007 76.7607 7.4817 78.7675 7.4817H78.7677ZM87.5701 18.3823H90.6668V0H87.5701V18.3823ZM93.8706 18.3823H96.9675V0H93.8706V18.3823ZM107.678 5.00439C105.745 5.00439 104.135 5.64838 103.119 6.86227V5.15294H100.171V18.3825H103.268V11.6936C103.268 9.04261 104.754 7.70486 106.959 7.70486C108.941 7.70486 110.106 8.84441 110.106 11.198V18.3826H113.202V10.8017C113.202 6.81316 110.849 5.00466 107.678 5.00466V5.00439ZM128.843 11.8421C128.843 7.70472 126.019 5.00439 122.154 5.00439C118.215 5.00439 115.316 7.82858 115.316 11.7675C115.316 15.7068 118.19 18.5556 122.624 18.5556C124.904 18.5556 126.762 17.8124 127.951 16.4002L126.291 14.4927C125.35 15.4591 124.185 15.9298 122.699 15.9298C120.395 15.9298 118.784 14.6909 118.413 12.7585H128.793C128.818 12.4613 128.843 12.0896 128.843 11.8421ZM122.154 7.4817C124.185 7.4817 125.647 8.79463 125.895 10.7024H118.388C118.686 8.77007 120.147 7.4817 122.154 7.4817ZM135.044 18.5556C138.76 18.5556 141.039 16.9454 141.039 14.4678C141.039 9.29019 132.864 11.6643 132.864 8.99309C132.864 8.12582 133.756 7.50666 135.639 7.50666C136.902 7.50666 138.166 7.75451 139.429 8.49753L140.618 6.14408C139.429 5.42562 137.422 5.00453 135.664 5.00453C132.096 5.00453 129.842 6.63951 129.842 9.14164C129.842 14.4187 138.017 12.0364 138.017 14.5674C138.017 15.4841 137.199 16.029 135.242 16.029C133.582 16.029 131.799 15.4841 130.634 14.7158L129.445 17.0695C130.634 17.9116 132.839 18.5557 135.044 18.5557V18.5556ZM146.944 18.5556C150.66 18.5556 152.939 16.9454 152.939 14.4678C152.939 9.29019 144.764 11.6643 144.764 8.99309C144.764 8.12582 145.655 7.50666 147.538 7.50666C148.802 7.50666 150.065 7.75451 151.329 8.49753L152.518 6.14408C151.329 5.42562 149.322 5.00453 147.563 5.00453C143.996 5.00453 141.741 6.63951 141.741 9.14164C141.741 14.4187 149.917 12.0364 149.917 14.5674C149.917 15.4841 149.099 16.029 147.142 16.029C145.482 16.029 143.699 15.4841 142.534 14.7158L141.345 17.0695C142.534 17.9116 144.739 18.5557 146.944 18.5557L146.944 18.5556Z" fill="#3DA647"/>
<path fill-rule="evenodd" clip-rule="evenodd" d="M69.3703 5.15043L65.7779 14.9617L62.21 5.15043H59.6087L57.504 10.792C58.1311 12.4168 58.2746 14.1667 58.027 15.9268L57.8599 17.116L60.8473 9.26326L64.2665 18.3805H67.2393L72.1201 5.15043H69.3702H69.3703Z" fill="#3DA647"/>
<path fill-rule="evenodd" clip-rule="evenodd" d="M57.2197 15.8144C55.883 14.539 55.3764 12.9766 54.295 11.8258C53.9815 11.4701 53.6837 10.7912 53.1106 11.2029C52.6645 11.5225 53.1007 12.037 53.2903 12.4117C54.047 13.861 54.8666 15.2877 55.3138 16.8734C55.4734 17.4241 55.7632 18.0602 55.2975 18.481C54.7318 18.9864 54.1166 18.5009 53.5867 18.233C51.7465 17.2718 50.4073 15.832 49.9382 13.7951C49.1741 10.5119 48.8532 7.08779 45.7805 4.51641C53.1733 5.02339 58.1279 9.34918 57.2198 15.8142L57.2197 15.8144Z" fill="#3DA647"/>
</g>
<path d="M3.42095 33.514C3.14 33.514 2.85905 33.4686 2.57811 33.3777C2.30542 33.2868 2.05339 33.167 1.82203 33.0183C1.59892 32.8613 1.40887 32.6919 1.25187 32.5101C1.10313 32.32 1.00397 32.13 0.954395 31.9399L1.27666 31.7664V33.3529H0V24.218H1.27666V28.3702L1.07834 28.2587C1.11966 28.0686 1.21055 27.8868 1.35103 27.7133C1.4915 27.5315 1.66916 27.3704 1.884 27.2299C2.10711 27.0812 2.34674 26.9655 2.60289 26.8829C2.85905 26.792 3.11934 26.7465 3.38376 26.7465C3.97045 26.7465 4.49103 26.8911 4.9455 27.1803C5.39997 27.4695 5.75942 27.8703 6.02384 28.3826C6.28826 28.8867 6.42047 29.4651 6.42047 30.1179C6.42047 30.7707 6.28826 31.3532 6.02384 31.8655C5.76768 32.3779 5.41237 32.7828 4.9579 33.0802C4.50342 33.3694 3.99111 33.514 3.42095 33.514ZM3.21024 32.3489C3.59034 32.3489 3.92913 32.2539 4.22661 32.0639C4.52408 31.8655 4.75958 31.6011 4.93311 31.2706C5.10663 30.9318 5.19339 30.5476 5.19339 30.1179C5.19339 29.6965 5.10663 29.3205 4.93311 28.99C4.76784 28.6512 4.53647 28.3868 4.239 28.1967C3.94153 28.0067 3.59861 27.9116 3.21024 27.9116C2.82187 27.9116 2.47895 28.0067 2.18147 28.1967C1.884 28.3868 1.6485 28.6512 1.47497 28.99C1.30145 29.3205 1.21468 29.6965 1.21468 30.1179C1.21468 30.5476 1.30145 30.9318 1.47497 31.2706C1.6485 31.6011 1.884 31.8655 2.18147 32.0639C2.47895 32.2539 2.82187 32.3489 3.21024 32.3489Z" fill="#2C312E"/>
<path d="M8.65588 36.2409L9.96973 33.2042L9.98212 34.2205L6.7347 26.8829H8.22207L10.2548 31.6672C10.2961 31.7499 10.3457 31.8779 10.4035 32.0515C10.4614 32.2167 10.511 32.382 10.5523 32.5473L10.23 32.6216C10.2961 32.4481 10.3581 32.2746 10.4159 32.101C10.482 31.9275 10.544 31.754 10.6019 31.5805L12.2999 26.8829H13.8121L11.1348 33.3901L10.0317 36.2409H8.65588Z" fill="#2C312E"/>
<g clip-path="url(#clip1_276_12532)">
<path fill-rule="evenodd" clip-rule="evenodd" d="M31.2996 27.8069C29.8378 27.8069 29.1961 28.5406 28.9268 29.2062V27.9791H27.4057V34.8287H28.9268V31.4628C28.9268 29.8475 29.6249 29.0738 30.7577 29.0738C31.6688 29.0738 32.1855 29.5234 32.1855 30.8371V34.8287H33.7066V30.461C33.7066 28.5678 32.7609 27.8069 31.2997 27.8069H31.2996Z" fill="#3DA647"/>
<path fill-rule="evenodd" clip-rule="evenodd" d="M35.739 30.9539C35.8674 29.7083 36.5718 28.9566 37.5887 28.9566C38.547 28.9566 39.2446 29.6222 39.3789 30.9539H35.739ZM40.9064 31.4501C40.9064 29.2276 39.6453 27.8069 37.5762 27.8069C35.4105 27.8069 34.2273 29.3571 34.2273 31.4437C34.2273 33.5433 35.4261 34.9917 37.5949 34.9917C39.116 34.9917 40.2429 34.2337 40.7123 32.9268H39.157C38.8502 33.497 38.293 33.8449 37.5949 33.8449C36.6124 33.8449 35.8862 33.1453 35.7453 31.8784H40.8911C40.8911 31.8784 40.9063 31.6812 40.9063 31.4501H40.9064Z" fill="#3DA647"/>
<path fill-rule="evenodd" clip-rule="evenodd" d="M25.3894 31.6544C24.8578 31.8548 24.4666 32.2182 24.1222 32.6499C23.7116 33.1617 23.1925 33.4453 22.5068 33.3529C22.4134 33.3402 22.3127 33.3373 22.2597 33.2419C22.2005 33.1276 22.3037 33.0722 22.3566 33.0015C22.5384 32.7515 22.7696 32.5544 23.0452 32.4035C23.2301 32.3048 23.4177 32.206 23.5432 32.0182C23.0324 32.0426 22.6574 32.3846 22.2005 32.5423C22.2034 32.0553 22.7729 31.4353 23.3643 31.2627C24.053 31.0627 24.7289 31.1303 25.3928 31.3828C25.4584 31.4076 25.546 31.4232 25.5553 31.5C25.5647 31.6018 25.4644 31.6266 25.3894 31.6543L25.3894 31.6544ZM21.9653 32.0704C21.8807 32.0213 21.9188 31.9195 21.9435 31.8456C22.0908 31.3955 22.1659 30.9333 22.241 30.4707C22.2627 30.3354 22.2749 30.1997 22.2913 30.0638C22.2532 30.0576 22.2158 30.0483 22.1782 30.0424C21.9654 30.671 21.7529 31.2997 21.5053 32.0305C21.2861 31.5955 21.2549 31.2136 21.2178 30.8468C21.0771 29.5243 21.5276 28.4237 22.5601 27.564C22.8728 27.3023 23.0013 27.3387 23.1486 27.7275C23.7621 29.3521 23.3304 30.7236 22.1718 31.9687C22.119 32.0276 22.0563 32.12 21.9654 32.0704H21.9653ZM21.0607 31.901C20.7574 31.6608 20.623 31.3464 20.3755 31.1274C20.3033 31.0593 20.2287 30.9241 20.1157 31.0194C20.0278 31.0933 20.1285 31.1921 20.175 31.2661C20.3597 31.5526 20.5573 31.8334 20.6794 32.1535C20.7228 32.2645 20.7949 32.391 20.7046 32.4863C20.5948 32.6006 20.4571 32.5111 20.3409 32.4649C19.9373 32.2984 19.6305 32.0241 19.4956 31.611C19.2768 30.9454 19.1484 30.2429 18.4573 29.765C20.0189 29.7402 21.1364 30.5479 21.0607 31.9009L21.0607 31.901ZM22.7854 25.7759C20.9891 25.4806 19.1612 26.3125 18.2472 27.8631C17.6935 28.8061 17.565 29.8356 17.6559 30.9178C17.8594 33.3529 19.7901 34.9926 21.9376 34.9341C23.2236 34.9433 24.2407 34.6538 25.0766 33.8769C26.1817 32.8532 26.5914 31.5619 26.5632 30.0979C26.5161 27.8476 25.0357 26.1428 22.7854 25.7759H22.7854Z" fill="#3DA647"/>
<path fill-rule="evenodd" clip-rule="evenodd" d="M47.6065 25.4586V29.4318H43.0931V25.4586H41.4657V34.8291H43.0931V30.856H47.6065V34.8291H49.2373V25.4586H47.6065Z" fill="#3DA647"/>
<path fill-rule="evenodd" clip-rule="evenodd" d="M51.3361 30.9539C51.4611 29.7083 52.1656 28.9566 53.1824 28.9566C54.1402 28.9566 54.8383 29.6222 54.9726 30.9539H51.3361H51.3361ZM56.5002 31.4501C56.5002 29.2276 55.242 27.8069 53.1699 27.8069C51.0076 27.8069 49.8214 29.3571 49.8214 31.4437C49.8214 33.5433 51.0195 34.9917 53.1887 34.9917C54.7098 34.9917 55.8367 34.2337 56.3065 32.9268H54.7504C54.444 33.497 53.8868 33.8449 53.1887 33.8449C52.2062 33.8449 51.4833 33.1453 51.3425 31.8784H56.4879C56.4879 31.8784 56.5002 31.6812 56.5002 31.4501Z" fill="#3DA647"/>
<path fill-rule="evenodd" clip-rule="evenodd" d="M61.5264 31.78C61.5264 33.1516 60.9133 33.95 59.6111 33.95C58.7534 33.95 58.3058 33.5895 58.3058 32.973C58.3058 32.2764 58.8813 32.0452 59.5044 31.925C60.3155 31.7737 61.1257 31.6691 61.5264 31.2653V31.78ZM63.0006 33.0285V30.2941C63.0006 28.8641 62.1774 27.8069 60.0551 27.8069C57.7832 27.8069 57.1132 28.9752 57.0446 29.9584H58.5064C58.6185 29.2924 59.1289 28.8826 60.0744 28.8826C61.1791 28.8826 61.5263 29.4713 61.5263 29.866C61.5263 30.8429 60.4153 30.7689 59.2169 30.948C58.0648 31.1203 56.7565 31.5086 56.7565 33.0407C56.7565 34.2736 57.6141 34.9922 59.1635 34.9922C60.4499 34.9922 61.1662 34.4862 61.5674 33.8916C61.6296 34.4988 61.7363 34.8287 61.7363 34.8287H63.2228C63.2228 34.8287 63.0006 34.2089 63.0006 33.0284V33.0285Z" fill="#3DA647"/>
<path fill-rule="evenodd" clip-rule="evenodd" d="M63.8853 34.8291H65.4129V25.4586H63.8853V34.8291Z" fill="#3DA647"/>
<path fill-rule="evenodd" clip-rule="evenodd" d="M70.2518 29.2214V27.9821H68.6245V25.5995L67.097 26.1818V27.9821H65.7952V29.2214H67.097V32.5011C67.097 34.1443 67.6858 34.8838 69.1937 34.8838C69.6352 34.8838 70.2518 34.8191 70.2518 34.8191V33.6105C70.2518 33.6105 69.9762 33.6693 69.6665 33.6693C68.9654 33.6693 68.6246 33.3395 68.6246 32.3717V29.2214H70.2518H70.2518Z" fill="#3DA647"/>
<path fill-rule="evenodd" clip-rule="evenodd" d="M74.6654 27.8076C73.2007 27.8076 72.55 28.5477 72.2808 29.2133V25.4586H70.7597V34.8295H72.2808V31.4636C72.2808 29.8483 72.9853 29.0746 74.1181 29.0746C75.0286 29.0746 75.5636 29.5242 75.5636 30.8379V34.8295H77.0847V30.4618C77.0847 28.5686 76.1273 27.8076 74.6654 27.8076H74.6654Z" fill="#3DA647"/>
</g>
<defs>
<clipPath id="clip0_276_12532">
<rect width="152.648" height="18.6667" fill="white" transform="scale(1.00191)"/>
</clipPath>
<clipPath id="clip1_276_12532">
<rect width="59.3367" height="9.51626" fill="white" transform="translate(17.6254 25.4626) scale(1.00191)"/>
</clipPath>
</defs>
</svg>
