<svg width="10" height="10" viewBox="0 0 10 10" fill="none" xmlns="http://www.w3.org/2000/svg">
<path d="M5.00002 0.652506C4.14011 0.652506 3.29951 0.907499 2.58453 1.38524C1.86954 1.86298 1.31227 2.54201 0.983199 3.33646C0.654126 4.13091 0.568026 5.00511 0.735786 5.84849C0.903546 6.69188 1.31763 7.46658 1.92568 8.07462C2.53373 8.68267 3.30843 9.09676 4.15181 9.26452C4.9952 9.43228 5.86939 9.34618 6.66384 9.0171C7.45829 8.68803 8.13732 8.13077 8.61506 7.41578C9.0928 6.70079 9.3478 5.86019 9.3478 5.00028C9.3478 4.42932 9.23534 3.86396 9.01684 3.33646C8.79835 2.80896 8.47809 2.32967 8.07436 1.92594C7.67063 1.52221 7.19134 1.20196 6.66384 0.983461C6.13635 0.764965 5.57098 0.652506 5.00002 0.652506ZM5.4348 6.73939C5.4348 6.8547 5.38899 6.96529 5.30745 7.04683C5.22592 7.12836 5.11533 7.17417 5.00002 7.17417C4.88471 7.17417 4.77412 7.12836 4.69259 7.04683C4.61105 6.96529 4.56524 6.8547 4.56524 6.73939V4.5655C4.56524 4.45019 4.61105 4.33961 4.69259 4.25807C4.77412 4.17653 4.88471 4.13073 5.00002 4.13073C5.11533 4.13073 5.22592 4.17653 5.30745 4.25807C5.38899 4.33961 5.4348 4.45019 5.4348 4.5655V6.73939ZM5.00002 3.69595C4.91403 3.69595 4.82997 3.67045 4.75847 3.62268C4.68697 3.5749 4.63125 3.507 4.59834 3.42755C4.56543 3.34811 4.55682 3.26069 4.5736 3.17635C4.59037 3.09201 4.63178 3.01454 4.69259 2.95374C4.75339 2.89293 4.83086 2.85152 4.9152 2.83475C4.99954 2.81797 5.08696 2.82658 5.1664 2.85949C5.24585 2.8924 5.31375 2.94812 5.36153 3.01962C5.4093 3.09112 5.4348 3.17518 5.4348 3.26117C5.4348 3.37648 5.38899 3.48707 5.30745 3.56861C5.22592 3.65014 5.11533 3.69595 5.00002 3.69595Z" fill="#F6921E"/>
</svg>
