<svg width="184" height="379" viewBox="0 0 184 379" fill="none" xmlns="http://www.w3.org/2000/svg">
<path fill-rule="evenodd" clip-rule="evenodd" d="M1.39962 19.8396C0 24.1646 0 29.5087 0 40.197V338.803C0 349.491 0 354.835 1.39962 359.16C4.22834 367.902 11.0539 374.755 19.7598 377.595C24.0674 379 29.39 379 40.0353 379H143.423C154.069 379 159.391 379 163.699 377.595C172.405 374.755 179.23 367.902 182.059 359.16C183.459 354.835 183.459 349.491 183.459 338.803V40.197C183.459 29.5087 183.459 24.1646 182.059 19.8396C179.23 11.0985 172.405 4.24541 163.699 1.40527C159.391 0 154.069 0 143.423 0H40.0353C29.39 0 24.0674 0 19.7598 1.40527C11.0539 4.24541 4.22834 11.0985 1.39962 19.8396ZM46.6349 10.8223V12.81L46.6663 12.809L46.6348 13.0309C46.6348 18.276 50.8697 22.528 56.0937 22.528H127.365C132.589 22.528 136.824 18.276 136.824 13.0309L136.793 12.809L136.824 12.81V10.8223C136.824 9.4805 137.907 8.39278 139.244 8.39278L144.911 8.39277C153.769 8.39277 158.199 8.39277 161.731 9.73302C167.284 11.8396 171.667 16.2404 173.765 21.8153C175.1 25.3622 175.1 29.8094 175.1 38.7039V340.296C175.1 349.191 175.1 353.638 173.765 357.185C171.667 362.76 167.284 367.16 161.731 369.267C158.199 370.607 153.769 370.607 144.911 370.607H38.5485C29.6898 370.607 25.2604 370.607 21.7278 369.267C16.1753 367.16 11.7922 362.76 9.6941 357.185C8.35924 353.638 8.35924 349.191 8.35924 340.296V38.7039C8.35924 29.8094 8.35924 25.3622 9.6941 21.8153C11.7922 16.2404 16.1753 11.8396 21.7278 9.73302C25.2604 8.39277 29.6898 8.39277 38.5485 8.39277L44.2152 8.39278C45.5516 8.39278 46.6349 9.4805 46.6349 10.8223Z" fill="#333333"/>
</svg>
