<svg width="13" height="5" viewBox="0 0 13 5" fill="none" xmlns="http://www.w3.org/2000/svg">
<path d="M1.74374 5.00005C2.95577 5.00005 3.67573 4.05222 3.67573 2.44718C3.67573 1.84282 3.56014 1.33423 3.33887 0.941224C3.01852 0.330254 2.467 0 1.77016 0C0.733164 0 0 0.696836 0 1.67439C0 2.59249 0.660508 3.25961 1.56871 3.25961C2.12684 3.25961 2.57928 2.99871 2.80386 2.54626H2.81376C2.81376 2.54626 2.82697 2.54626 2.83028 2.54626C2.83688 2.54626 2.86 2.54626 2.86 2.54626C2.86 3.6361 2.44718 4.2867 1.75035 4.2867C1.34083 4.2867 1.02379 4.06212 0.914804 3.70215H0.0660508C0.20806 4.48485 0.871871 5.00005 1.74374 5.00005ZM1.77346 2.58259C1.22524 2.58259 0.835543 2.19289 0.835543 1.64797C0.835543 1.11626 1.24506 0.710046 1.77677 0.710046C2.30848 0.710046 2.71799 1.12286 2.71799 1.66118C2.71799 2.19289 2.31838 2.58259 1.77346 2.58259Z" fill="#040C07"/>
<path d="M5.06953 4.95381C5.38327 4.95381 5.59794 4.72924 5.59794 4.43201C5.59794 4.13148 5.38327 3.91021 5.06953 3.91021C4.75909 3.91021 4.54112 4.13148 4.54112 4.43201C4.54112 4.72924 4.75909 4.95381 5.06953 4.95381ZM5.06953 2.47691C5.38327 2.47691 5.59794 2.25564 5.59794 1.95841C5.59794 1.65788 5.38327 1.43661 5.06953 1.43661C4.75909 1.43661 4.54112 1.65788 4.54112 1.95841C4.54112 2.25564 4.75909 2.47691 5.06953 2.47691Z" fill="#040C07"/>
<path d="M8.68925 4.88446H9.50498V3.99607H10.149V3.27612H9.50498V0.118891H8.30285C7.4607 1.38707 6.79029 2.44718 6.36096 3.23649V3.99607H8.68925V4.88446ZM7.15026 3.2464C7.70509 2.26885 8.20047 1.48614 8.65622 0.812425H8.70246V3.29594H7.15026V3.2464Z" fill="#040C07"/>
<path d="M11.9655 4.88446H12.8176V0.118891H11.9688L10.7237 0.990762V1.80979L11.9094 0.977552H11.9655V4.88446Z" fill="#040C07"/>
</svg>
