<svg width="12" height="12" viewBox="0 0 12 12" fill="none" xmlns="http://www.w3.org/2000/svg">
<g clip-path="url(#clip0_0_70)">
<path d="M3.30079 2.05345L9.55294 2.80118L8.67169 10.1698C8.65263 10.3291 8.47761 10.4178 8.33786 10.3389L7.49452 9.86294C7.40651 9.81327 7.30434 9.79469 7.20447 9.81019L5.88583 10.0149C5.64164 10.0528 5.39173 10.0229 5.16336 9.92845L3.93017 9.4186C3.83678 9.37998 3.73311 9.37395 3.63587 9.40147L2.70406 9.66514C2.54965 9.70883 2.40048 9.58139 2.41954 9.42205L3.30079 2.05345Z" fill="#C2C1CC"/>
<path fill-rule="evenodd" clip-rule="evenodd" d="M4.82014 4.49935C4.5735 4.46985 4.34964 4.64588 4.32015 4.89252C4.29065 5.13917 4.46668 5.36302 4.71332 5.39252L5.60648 5.49933C5.85312 5.52883 6.07698 5.3528 6.10647 5.10616C6.13597 4.85952 5.95994 4.63567 5.7133 4.60617L4.82014 4.49935ZM7.49963 4.81981C7.25299 4.79031 7.02914 4.96634 6.99964 5.21298C6.97014 5.45962 7.14617 5.68347 7.39281 5.71297C7.63945 5.74247 7.86331 5.56644 7.8928 5.3198C7.9223 5.07316 7.74627 4.8493 7.49963 4.81981ZM4.10651 6.67885C4.13601 6.43221 4.35986 6.25618 4.6065 6.28568L5.49966 6.3925C5.74631 6.422 5.92233 6.64585 5.89284 6.89249C5.86334 7.13913 5.63949 7.31516 5.39285 7.28566L4.49968 7.17884C4.25304 7.14935 4.07701 6.92549 4.10651 6.67885ZM7.28599 6.60613C7.03935 6.57664 6.8155 6.75267 6.786 6.99931C6.7565 7.24595 6.93253 7.4698 7.17917 7.4993C7.42581 7.5288 7.64967 7.35277 7.67917 7.10613C7.70866 6.85949 7.53263 6.63563 7.28599 6.60613Z" fill="#2C312E"/>
<path d="M2.40828 1.94648C2.43778 1.69984 2.66163 1.52381 2.90827 1.55331L10.0536 2.40786C10.3002 2.43735 10.4763 2.66121 10.4468 2.90785C10.4173 3.15449 10.1934 3.33052 9.94676 3.30102L2.80145 2.44647C2.55481 2.41698 2.37878 2.19312 2.40828 1.94648Z" fill="#2C312E"/>
</g>
<defs>
<clipPath id="clip0_0_70">
<rect width="9.9025" height="9.9025" fill="white" transform="translate(1.28194) scale(1.09006) rotate(6.81992)"/>
</clipPath>
</defs>
</svg>
