<svg width="15" height="13" viewBox="0 0 15 13" fill="none" xmlns="http://www.w3.org/2000/svg">
<path d="M4.70825 12.3214C2.97522 12.3214 1.35974 11.8174 0 10.9477C1.15446 11.0224 3.19182 10.8435 4.45906 9.63471C2.55272 9.54723 1.693 8.08516 1.58086 7.46034C1.74284 7.52282 2.51534 7.5978 2.95143 7.42285C0.758517 6.87301 0.422104 4.94857 0.496863 4.36124C0.908034 4.64865 1.60578 4.74862 1.87989 4.72363C-0.163504 3.26155 0.571621 1.06219 0.932953 0.58733C2.39937 2.61893 4.59707 3.75995 7.31592 3.82342C7.26466 3.59858 7.23758 3.36451 7.23758 3.12409C7.23758 1.3987 8.63218 0 10.3525 0C11.2514 0 12.0613 0.381832 12.6298 0.992592C13.2305 0.851842 14.1344 0.522358 14.5764 0.237431C14.3536 1.0372 13.6601 1.70437 13.2407 1.95165C13.2372 1.9432 13.2441 1.96006 13.2407 1.95165C13.6091 1.89591 14.6061 1.7043 15 1.43708C14.8052 1.88638 14.07 2.63343 13.4666 3.05165C13.5789 8.00253 9.79097 12.3214 4.70825 12.3214Z" fill="white"/>
</svg>
