<svg width="96" height="96" viewBox="0 0 96 96" fill="none" xmlns="http://www.w3.org/2000/svg">
<path d="M53.9 25.1355C52.3 23.7355 49.8 23.9355 48.3 25.4355L48 25.7355L47.7 25.4355C46.2 23.9355 43.7 23.7355 42.1 25.1355C40.4 26.6355 40.4 29.2355 41.9 30.8355L47.4 36.3355C47.6 36.5355 47.8 36.5355 48 36.5355C48.2 36.5355 48.4 36.4355 48.6 36.3355L54.1 30.8355C55.6 29.2355 55.6 26.6355 53.9 25.1355Z" fill="#3DA647"/>
<path d="M53.9 25.1355C52.3 23.7355 49.8 23.9355 48.3 25.4355L48 25.7355L47.7 25.4355C46.2 23.9355 43.7 23.7355 42.1 25.1355C40.4 26.6355 40.4 29.2355 41.9 30.8355L47.4 36.3355C47.6 36.5355 47.8 36.5355 48 36.5355C48.2 36.5355 48.4 36.4355 48.6 36.3355L54.1 30.8355C55.6 29.2355 55.6 26.6355 53.9 25.1355Z" fill="black" fill-opacity="0.2"/>
<path d="M38.1499 51.4104V48.9104C38.1499 46.9104 37.05 45.1104 35.35 44.1104C33.65 43.1104 31.4499 43.1104 29.7499 44.1104C28.0499 45.1104 26.95 46.9104 26.95 48.9104V51.4104C26.95 53.2104 27.85 54.8104 29.45 55.6104C31.35 56.7104 33.7499 56.7104 35.7499 55.6104C37.2499 54.8104 38.1499 53.2104 38.1499 51.4104Z" fill="#E6E6E6"/>
<path d="M43.35 71.2104C44.35 70.6104 44.8499 69.6105 44.6499 68.5105C43.7499 62.7105 38.65 58.2104 32.5499 58.2104C30.5499 58.2104 28.65 58.7104 26.95 59.6104C25.15 60.6104 23.95 62.5104 23.95 64.6104C23.95 67.3104 25.8499 69.6104 28.5499 70.1104C32.65 70.9104 37.15 71.4104 41.85 71.7104C42.45 71.6104 42.95 71.4104 43.35 71.2104Z" fill="#E6E6E6"/>
<path d="M30.25 70.2103C33.95 70.8103 37.85 71.3103 41.85 71.5103C42.35 71.5103 42.85 71.4102 43.35 71.1102C44.35 70.5102 44.85 69.5102 44.65 68.4102C43.95 63.7102 40.45 59.8103 35.95 58.5103C32.75 61.5103 30.65 65.6103 30.25 70.2103Z" fill="black" fill-opacity="0.1"/>
<path d="M69.0499 51.4104V48.9104C69.0499 46.9104 67.9498 45.1104 66.2498 44.1104C64.5498 43.1104 62.3498 43.1104 60.6498 44.1104C58.9498 45.1104 57.8499 46.9104 57.8499 48.9104V51.4104C57.8499 53.2104 58.7499 54.8104 60.3499 55.6104C62.2499 56.7104 64.6499 56.7104 66.6499 55.6104C68.1499 54.8104 69.0499 53.2104 69.0499 51.4104Z" fill="#E6E6E6"/>
<path d="M53.35 71.2104C53.85 71.4104 54.35 71.5104 54.85 71.5104C59.25 71.2104 63.5499 70.7104 67.4499 70.0104C70.1499 69.5104 72.05 67.2104 72.05 64.5104C72.05 62.4104 70.95 60.5104 69.05 59.5104C67.35 58.6104 65.45 58.1104 63.45 58.1104C57.55 58.1104 52.65 62.3104 51.45 67.9104C51.25 69.3104 52.05 70.7104 53.35 71.2104Z" fill="#E6E6E6"/>
<path d="M60.15 58.6104C55.75 59.8104 52.45 63.4104 51.55 67.9104C51.25 69.3104 52.05 70.7104 53.35 71.3104C53.85 71.5104 54.35 71.6104 54.85 71.6104C58.75 71.4104 62.35 70.9104 65.95 70.3104C65.45 65.6104 63.35 61.5104 60.15 58.6104Z" fill="black" fill-opacity="0.1"/>
<path d="M55.1498 47.8102V44.6101C55.1498 42.1101 53.8498 39.7102 51.6498 38.5102C49.4498 37.2102 46.7498 37.2102 44.5498 38.5102C42.3498 39.8102 41.0498 42.1101 41.0498 44.6101V47.8102C41.0498 50.0102 42.2498 52.1102 44.1498 53.2102C46.6498 54.6102 49.6498 54.6102 52.0498 53.2102C53.9498 52.1102 55.1498 50.0102 55.1498 47.8102Z" fill="#3DA647"/>
<path d="M48.0499 56.3101C39.8499 56.3101 33.2499 62.6101 32.6499 70.7101C37.4499 71.4101 42.6499 71.8101 48.0499 71.8101C53.4499 71.8101 58.6499 71.4101 63.4499 70.7101C62.8499 62.6101 56.2499 56.3101 48.0499 56.3101Z" fill="#3DA647"/>
</svg>
