<svg width="12" height="12" viewBox="0 0 12 12" fill="none" xmlns="http://www.w3.org/2000/svg">
<path d="M5.99999 0C6.19891 0 6.38967 0.0790177 6.53032 0.21967C6.67098 0.360322 6.74999 0.551087 6.74999 0.749999V5.25H11.25C11.4489 5.25 11.6397 5.32901 11.7803 5.46967C11.921 5.61032 12 5.80108 12 5.99999C12 6.19891 11.921 6.38967 11.7803 6.53032C11.6397 6.67098 11.4489 6.74999 11.25 6.74999H6.74999V11.25C6.74999 11.4489 6.67098 11.6397 6.53032 11.7803C6.38967 11.921 6.19891 12 5.99999 12C5.80108 12 5.61032 11.921 5.46967 11.7803C5.32901 11.6397 5.25 11.4489 5.25 11.25V6.74999H0.749999C0.551087 6.74999 0.360322 6.67098 0.21967 6.53032C0.0790177 6.38967 0 6.19891 0 5.99999C0 5.80108 0.0790177 5.61032 0.21967 5.46967C0.360322 5.32901 0.551087 5.25 0.749999 5.25H5.25V0.749999C5.25 0.551087 5.32901 0.360322 5.46967 0.21967C5.61032 0.0790177 5.80108 0 5.99999 0Z" fill="#228821"/>
</svg>
