<?xml version="1.0" encoding="UTF-8"?>
<svg width="48" height="48" viewBox="0 0 48 48" fill="none" xmlns="http://www.w3.org/2000/svg">
  <path d="M24 4C18.48 4 14 8.48 14 14C14 19.52 18.48 24 24 24C29.52 24 34 19.52 34 14C34 8.48 29.52 4 24 4ZM24 20C20.69 20 18 17.31 18 14C18 10.69 20.69 8 24 8C27.31 8 30 10.69 30 14C30 17.31 27.31 20 24 20Z" fill="#28A745"/>
  <path d="M36 28H12C9.79 28 8 29.79 8 32V36C8 38.21 9.79 40 12 40H36C38.21 40 40 38.21 40 36V32C40 29.79 38.21 28 36 28Z" fill="#28A745"/>
</svg> 